<?xml version="1.0" encoding="UTF-8" standalone="no"?>
<svg width="84px" height="80px" viewBox="0 0 84 80" version="1.1" xmlns="http://www.w3.org/2000/svg" xmlns:xlink="http://www.w3.org/1999/xlink">
    <!-- Generator: Sketch 41.2 (35397) - http://www.bohemiancoding.com/sketch -->
    <title>Page 1</title>
    <desc>Created with Sketch.</desc>
    <defs></defs>
    <g id="Page-1" stroke="none" stroke-width="1" fill="none" fill-rule="evenodd">
        <g id="home-step-1" transform="translate(-461.000000, -1198.000000)" fill="#CBB788">
            <g id="section-steps" transform="translate(0.000000, 799.000000)">
                <g id="steps" transform="translate(106.000000, 356.000000)">
                    <g id="col-3" transform="translate(275.000000, 0.000000)">
                        <g id="Page-1" transform="translate(80.000000, 43.000000)">
                            <path d="M80.0625,76.0655738 L75.917625,76.0655738 L73.5748125,43.2786885 L80.0625,43.2786885 L80.0625,76.0655738 Z M6.6268125,76.0655738 L3.9375,76.0655738 L3.9375,43.2786885 L8.969625,43.2786885 L6.6268125,76.0655738 Z M3.9375,34.0983607 L63.65625,34.0983607 L70.21875,34.0983607 L80.0625,34.0983607 L80.0625,39.3442623 L71.4590625,39.3442623 L11.0840625,39.3442623 L3.9375,39.3442623 L3.9375,34.0983607 Z M65.625,30.1639344 L68.25,30.1639344 L68.25,22.295082 L65.625,22.295082 L65.625,30.1639344 Z M13.125,22.295082 L49.875,22.295082 L49.875,19.6721311 L13.125,19.6721311 L13.125,22.295082 Z M13.125,6.55737705 L49.875,6.55737705 L49.875,3.93442623 L13.125,3.93442623 L13.125,6.55737705 Z M13.125,17.0491803 L49.875,17.0491803 L49.875,9.18032787 L13.125,9.18032787 L13.125,17.0491803 Z M82.03125,30.1639344 L72.1875,30.1639344 L72.1875,24.9180328 L73.5,24.9180328 L73.5,27.5409836 C73.5,28.6268852 74.382,29.5081967 75.46875,29.5081967 C76.5555,29.5081967 77.4375,28.6268852 77.4375,27.5409836 L77.4375,22.9508197 C77.4375,21.864918 75.9950625,20.9836066 74.9083125,20.9836066 L72.1875,20.9836066 L72.1875,20.3278689 C72.1875,19.2419672 71.3055,18.3606557 70.21875,18.3606557 L67.7263125,18.3606557 C68.0150625,18.3055738 68.2985625,18.2085246 68.54925,18.0183607 C69.4155,17.3613115 69.5835,16.1272131 68.9259375,15.2629508 L68.2224375,14.3370492 C67.942875,13.9672131 67.6974375,13.3862295 68.116125,12.7068852 L69.03225,11.2288525 C69.6045,10.3055738 69.318375,9.09377049 68.3930625,8.52196721 C67.46775,7.95016393 66.255,8.2347541 65.6840625,9.15934426 L64.7679375,10.637377 C63.5775,12.5613115 63.6995625,14.8891803 65.0855625,16.7147541 L65.790375,17.6419672 C66.0751875,18.0170492 66.467625,18.2570492 66.8915625,18.3606557 L63.65625,18.3606557 C62.5695,18.3606557 61.6875,19.2419672 61.6875,20.3278689 L61.6875,30.1639344 L34.125,30.1639344 L34.125,26.2295082 L51.84375,26.2295082 C52.9305,26.2295082 53.8125,25.3481967 53.8125,24.2622951 L53.8125,1.96721311 C53.8125,0.881311475 52.9305,0 51.84375,0 L11.15625,0 C10.0695,0 9.1875,0.881311475 9.1875,1.96721311 L9.1875,24.2622951 C9.1875,25.3481967 10.0695,26.2295082 11.15625,26.2295082 L30.1875,26.2295082 L30.1875,30.1639344 L1.96875,30.1639344 C0.882,30.1639344 0,31.0452459 0,32.1311475 L0,41.3114754 L0,78.0327869 C0,79.1186885 0.3215625,80 1.4083125,80 L8.4590625,80 C9.492,80 10.350375,79.202623 10.4225625,78.1718033 L12.917625,43.2786885 L69.6268125,43.2786885 L72.1205625,78.1718033 C72.1940625,79.202623 73.051125,80 74.0840625,80 L81.4708125,80 C82.5575625,80 84,79.1186885 84,78.0327869 L84,41.3114754 L84,32.1311475 C84,31.0452459 83.118,30.1639344 82.03125,30.1639344 L82.03125,30.1639344 Z"></path>
                        </g>
                    </g>
                </g>
            </g>
        </g>
    </g>
</svg>