<?xml version="1.0" encoding="UTF-8" standalone="no"?>
<svg width="75px" height="84px" viewBox="0 0 75 84" version="1.1" xmlns="http://www.w3.org/2000/svg" xmlns:xlink="http://www.w3.org/1999/xlink">
    <!-- Generator: Sketch 40.3 (33839) - http://www.bohemiancoding.com/sketch -->
    <title>Page 1</title>
    <desc>Created with Sketch.</desc>
    <defs></defs>
    <g id="Page-1" stroke="none" stroke-width="1" fill="none" fill-rule="evenodd">
        <g id="home-step-1" transform="translate(-191.000000, -1194.000000)" fill="#CBB788">
            <g id="section-steps" transform="translate(0.000000, 799.000000)">
                <g id="steps" transform="translate(106.000000, 356.000000)">
                    <g id="col-3">
                        <g id="Page-1" transform="translate(85.000000, 39.000000)">
                            <path d="M68.3035714,80 L70.9821429,80 L70.9821429,74.6666667 L68.3035714,74.6666667 L68.3035714,80 Z M38.8392857,70.6666667 L38.8392857,53.3333333 L66.2946429,53.3333333 L70.9821429,53.3333333 L70.9821429,70.6666667 L65.7227679,70.6666667 L38.8392857,70.6666667 Z M8.13348214,70.6666667 L4.01785714,70.6666667 L4.01785714,53.3333333 L26.1160714,53.3333333 L34.8214286,53.3333333 L34.8214286,70.6666667 L8.13348214,70.6666667 Z M4.01785714,80 L6.69642857,80 L6.69642857,74.6666667 L4.01785714,74.6666667 L4.01785714,80 Z M70.9821429,4 L70.9821429,10.7186667 C70.8401786,10.6866667 70.6941964,10.6666667 70.5455357,10.6666667 L57.9669643,10.6666667 C57.1473214,10.6666667 56.409375,11.1626667 56.1040179,11.92 L51.2209821,24 L29.4642857,24 L29.4642857,12.6666667 C29.4642857,11.5626667 28.5642857,10.6666667 27.4553571,10.6666667 L11.3839286,10.6666667 C10.275,10.6666667 9.375,11.5626667 9.375,12.6666667 L9.375,24 L4.01785714,24 L4.01785714,4 L70.9821429,4 Z M58.1169643,24 L55.5522321,24 L59.325,14.6666667 L61.6044643,14.6666667 L58.1169643,24 Z M64.5348214,24 L62.4053571,24 L65.8928571,14.6666667 L67.7357143,14.6666667 L64.5348214,24 Z M70.9821429,24 L68.7803571,24 L70.9821429,17.5826667 L70.9821429,24 Z M13.3928571,24 L25.4464286,24 L25.4464286,21.3333333 L13.3928571,21.3333333 L13.3928571,24 Z M13.3928571,17.3333333 L25.4464286,17.3333333 L25.4464286,14.6666667 L13.3928571,14.6666667 L13.3928571,17.3333333 Z M66.2946429,36 L26.1160714,36 C25.0071429,36 24.1071429,36.896 24.1071429,38 L24.1071429,49.3333333 L4.01785714,49.3333333 L4.01785714,28 L11.3839286,28 L27.4553571,28 L52.5776786,28 L65.9705357,28 L70.9821429,28 L70.9821429,49.3333333 L68.3035714,49.3333333 L68.3035714,38 C68.3035714,36.896 67.4035714,36 66.2946429,36 L66.2946429,36 Z M60.2678571,49.3333333 L64.2857143,49.3333333 L64.2857143,40 L60.2678571,40 L60.2678571,49.3333333 Z M52.2321429,49.3333333 L56.25,49.3333333 L56.25,40 L52.2321429,40 L52.2321429,49.3333333 Z M44.1964286,49.3333333 L48.2142857,49.3333333 L48.2142857,40 L44.1964286,40 L44.1964286,49.3333333 Z M36.1607143,49.3333333 L40.1785714,49.3333333 L40.1785714,40 L36.1607143,40 L36.1607143,49.3333333 Z M28.125,49.3333333 L32.1428571,49.3333333 L32.1428571,40 L28.125,40 L28.125,49.3333333 Z M72.4191964,0 L1.43705357,0 C0.328125,0 0,0.896 0,2 L0,82 C0,83.104 0.328125,84 1.43705357,84 L8.13348214,84 C9.24241071,84 10.7142857,83.104 10.7142857,82 L10.7142857,74.6666667 L64.2857143,74.6666667 L64.2857143,82 C64.2857143,83.104 64.6138393,84 65.7227679,84 L72.4191964,84 C73.528125,84 75,83.104 75,82 L75,2 C75,0.896 73.528125,0 72.4191964,0 L72.4191964,0 Z" id="Fill-1"></path>
                            <path d="M43.5267857,59.3333333 C42.4178571,59.3333333 41.5178571,60.2293333 41.5178571,61.3333333 L41.5178571,64 C41.5178571,65.104 42.4178571,66 43.5267857,66 C44.6357143,66 45.5357143,65.104 45.5357143,64 L45.5357143,61.3333333 C45.5357143,60.2293333 44.6357143,59.3333333 43.5267857,59.3333333" id="Fill-3"></path>
                            <path d="M30.1339286,59.3333333 C29.025,59.3333333 28.125,60.2293333 28.125,61.3333333 L28.125,64 C28.125,65.104 29.025,66 30.1339286,66 C31.2428571,66 32.1428571,65.104 32.1428571,64 L32.1428571,61.3333333 C32.1428571,60.2293333 31.2428571,59.3333333 30.1339286,59.3333333" id="Fill-4"></path>
                        </g>
                    </g>
                </g>
            </g>
        </g>
    </g>
</svg>