<?xml version="1.0" encoding="UTF-8" standalone="no"?>
<!DOCTYPE svg PUBLIC "-//W3C//DTD SVG 1.1//EN" "http://www.w3.org/Graphics/SVG/1.1/DTD/svg11.dtd">
<svg width="100%" height="100%" viewBox="0 0 1400 1125" version="1.1" xmlns="http://www.w3.org/2000/svg" xmlns:xlink="http://www.w3.org/1999/xlink" xml:space="preserve" style="fill-rule:evenodd;clip-rule:evenodd;stroke-miterlimit:10;">
    <g id="Layer-1" transform="matrix(4.16667,0,0,4.16667,0,0)">
        <g transform="matrix(0.999801,7.6893e-20,7.6893e-20,0.999487,-231.92,-165.736)">
            <path d="M303.75,243.266C303.327,244.025 302.887,244.578 302.427,244.925C301.813,245.413 301.164,245.73 300.476,245.876C300.428,264.487 300.38,283.099 300.332,301.71C300.33,302.4 300.444,302.872 300.672,303.128C300.901,303.385 301.167,303.603 301.473,303.785C302.082,304.147 302.692,304.681 303.303,305.386C303.911,306.091 304.216,307.024 304.213,308.187C304.209,309.66 304.205,311.132 304.201,312.605C297.13,313.236 290.064,313.938 283.003,314.71C283.007,313.197 283.01,311.685 283.014,310.172C283.017,308.976 283.323,307.961 283.937,307.127C284.549,306.294 285.161,305.638 285.774,305.161C286.155,304.914 286.442,304.643 286.635,304.345C286.825,304.048 286.923,303.549 286.925,302.848C286.957,289.655 286.989,276.462 287.021,263.269C287.021,263.2 287.001,263.13 286.964,263.061C286.925,262.993 286.83,263.102 286.677,263.386C284.296,268.167 282.147,272.53 280.23,276.455C279.385,278.129 278.561,279.789 277.756,281.437C276.951,283.085 276.221,284.592 275.57,285.955C274.918,287.319 274.363,288.484 273.903,289.445C273.443,290.409 273.173,291.002 273.098,291.222C272.868,291.741 272.256,292.167 271.264,292.502C270.271,292.838 269.221,293.053 268.116,293.15C267.009,293.248 265.96,293.234 264.97,293.105C263.978,292.977 263.369,292.671 263.141,292.183C262.988,291.979 262.703,291.445 262.286,290.572C261.867,289.703 261.317,288.642 260.633,287.389C259.948,286.136 259.207,284.739 258.408,283.193C257.61,281.65 256.829,280.061 256.07,278.427C254.168,274.677 252.076,270.466 249.792,265.767C249.715,265.623 249.621,265.553 249.506,265.559C249.392,265.565 249.334,265.754 249.334,266.124C249.319,279.653 249.304,293.183 249.29,306.712C249.289,307.454 249.403,307.96 249.63,308.226C249.859,308.495 250.124,308.76 250.429,309.017C251.037,309.385 251.645,309.938 252.254,310.672C252.862,311.409 253.166,312.399 253.164,313.651C253.162,315.234 253.16,316.818 253.158,318.401C246.116,319.373 239.081,320.415 232.055,321.528L232.055,316.598C232.055,315.299 232.357,314.185 232.967,313.258C233.574,312.332 234.182,311.599 234.792,311.06C235.095,310.79 235.343,310.491 235.533,310.161C235.722,309.832 235.856,309.359 235.933,308.741C235.938,288.135 235.944,267.53 235.95,246.924C235.186,246.788 234.536,246.459 234.002,245.935C233.467,245.565 233.008,244.964 232.628,244.128C232.245,243.295 232.055,242.228 232.055,240.927L232.055,235.768C237.252,235.767 242.45,235.766 247.647,235.766C248.717,235.766 249.519,236.323 250.053,237.432C256.076,250.299 262.088,262.772 268.094,274.924C274.035,262.055 279.984,249.55 285.938,237.34C286.243,236.708 286.817,236.288 287.66,236.077C288.501,235.867 289.226,235.762 289.839,235.762C294.693,235.762 299.547,235.761 304.4,235.761C304.396,237.302 304.392,238.843 304.388,240.384C304.385,241.549 304.171,242.509 303.75,243.266" style="fill:rgb(87,87,87);fill-rule:nonzero;"/>
        </g>
        <g transform="matrix(0.999801,7.6893e-20,7.6893e-20,0.999487,-231.92,-165.736)">
            <path d="M339.385,281.347C340.378,281.313 340.801,280.936 340.65,280.213C339.742,275.679 338.833,271.136 337.925,266.584C337.545,264.869 337.205,263.186 336.904,261.533C336.601,259.882 336.318,258.394 336.054,257.069C335.788,255.747 335.58,254.671 335.43,253.842C335.278,253.015 335.204,252.567 335.204,252.5C335.127,252.501 335.051,252.502 334.974,252.503C334.974,252.57 334.858,253.252 334.626,254.552C334.393,255.851 334.083,257.502 333.696,259.505C333.308,261.508 332.884,263.697 332.419,266.072C331.955,268.448 331.509,270.676 331.085,272.755C330.658,274.835 330.31,276.616 330.039,278.092C329.767,279.57 329.632,280.41 329.632,280.61C329.554,281.081 329.61,281.379 329.802,281.504C329.992,281.631 330.508,281.676 331.351,281.643C332.613,281.593 333.876,281.545 335.138,281.499C336.554,281.446 337.969,281.396 339.385,281.347M359.215,300.882C359.827,301.19 360.421,301.692 360.994,302.392C361.568,303.093 361.854,303.997 361.852,305.107C361.85,306.413 361.848,307.719 361.846,309.025C354.757,309.273 347.67,309.592 340.586,309.981C340.589,308.79 340.592,307.6 340.594,306.409C340.597,305.285 340.731,304.418 341.001,303.809C341.27,303.2 341.578,302.706 341.923,302.326C342.268,301.947 342.594,301.567 342.902,301.189C343.207,300.813 343.363,300.326 343.364,299.732C342.984,297.967 342.72,296.493 342.569,295.31C342.418,294.127 342.267,293.192 342.116,292.505C341.964,291.817 341.754,291.329 341.488,291.043C341.219,290.756 340.817,290.623 340.283,290.645C339.977,290.658 339.671,290.671 339.365,290.683C336.15,290.817 332.936,290.961 329.722,291.116C329.033,291.149 328.534,291.241 328.229,291.39C327.922,291.54 327.729,291.916 327.652,292.521C327.574,292.86 327.516,293.466 327.476,294.336C327.434,295.207 327.337,296.116 327.183,297.06C327.026,298.139 326.871,299.318 326.715,300.598C326.713,301.335 326.844,301.879 327.113,302.23C327.379,302.582 327.645,302.95 327.913,303.335C328.18,303.72 328.446,304.172 328.714,304.689C328.98,305.208 329.112,306.002 329.11,307.069C329.107,308.271 329.104,309.472 329.101,310.674C322.136,311.132 315.173,311.658 308.215,312.253C308.219,310.89 308.222,309.526 308.226,308.163C308.228,307.14 308.42,306.324 308.805,305.715C309.188,305.107 309.611,304.58 310.071,304.138C310.531,303.695 311.009,303.251 311.508,302.808C312.005,302.364 312.37,301.83 312.601,301.203C314.766,292.097 316.93,283.058 319.094,274.079C319.866,270.748 320.659,267.473 321.469,264.256C322.28,261.041 322.993,258.169 323.613,255.641C324.23,253.113 324.731,251.062 325.119,249.481C325.504,247.903 325.698,247.08 325.698,247.012C325.699,246.845 325.699,246.678 325.699,246.51C325.701,245.975 325.53,245.542 325.186,245.208C324.843,244.877 324.46,244.495 324.043,244.061C323.623,243.629 323.242,243.078 322.9,242.408C322.557,241.74 322.388,240.733 322.391,239.388C322.394,238.178 322.397,236.969 322.4,235.759C326.451,235.759 329.757,235.744 332.318,235.709C334.878,235.676 336.922,235.793 338.451,236.057C339.979,236.322 341.105,236.768 341.831,237.395C342.555,238.023 343.107,238.963 343.487,240.215C343.562,240.479 343.809,241.519 344.226,243.33C344.642,245.144 345.193,247.448 345.875,250.242C346.558,253.038 347.315,256.19 348.151,259.696C348.985,263.205 349.819,266.757 350.655,270.352C352.628,278.785 354.908,288.301 357.495,298.88C357.647,299.399 357.876,299.799 358.182,300.083C358.487,300.368 358.831,300.634 359.215,300.882" style="fill:rgb(87,87,87);fill-rule:nonzero;"/>
        </g>
        <g transform="matrix(0.999801,7.6893e-20,7.6893e-20,0.999487,-231.92,-165.736)">
            <path d="M395.662,251.291C395.662,250.45 395.605,249.657 395.49,248.912C395.376,248.169 395.127,247.522 394.745,246.971C394.362,246.422 393.808,245.986 393.082,245.662C392.354,245.339 391.38,245.178 390.157,245.179C388.055,245.181 385.952,245.184 383.849,245.188C383.314,245.189 382.912,245.336 382.644,245.628C382.375,245.92 382.243,246.261 382.242,246.65C382.23,263.735 382.218,280.82 382.206,297.905C382.205,298.814 382.74,299.26 383.814,299.246C385.921,299.219 388.029,299.198 390.137,299.183C391.362,299.174 392.339,298.99 393.068,298.63C393.796,298.272 394.351,297.816 394.736,297.263C395.118,296.713 395.368,296.065 395.483,295.319C395.598,294.576 395.656,293.815 395.656,293.037C395.658,279.122 395.66,265.206 395.662,251.291M390.161,235.757C396.734,235.757 401.512,237.181 404.493,240.029C407.476,242.879 408.969,246.702 408.971,251.493C408.976,265.222 408.982,278.951 408.988,292.68C408.99,297.474 407.497,301.279 404.508,304.112C401.519,306.948 396.726,308.355 390.133,308.41C381.661,308.482 373.19,308.654 364.721,308.928C364.723,307.624 364.725,306.32 364.726,305.015C364.728,303.581 364.96,302.482 365.421,301.718C365.881,300.957 366.494,300.402 367.262,300.055C368.182,299.706 368.642,299.011 368.643,297.968C368.665,280.877 368.686,263.787 368.707,246.696C368.709,245.655 368.211,244.908 367.219,244.455C365.614,243.745 364.814,242.248 364.817,239.964C364.819,238.562 364.821,237.16 364.823,235.758C373.269,235.757 381.715,235.757 390.161,235.757" style="fill:rgb(87,87,87);fill-rule:nonzero;"/>
        </g>
        <g transform="matrix(0.999801,7.6893e-20,7.6893e-20,0.999487,-231.92,-165.736)">
            <path d="M432.136,245.68C431.83,245.972 431.678,246.282 431.678,246.607C431.686,252.764 431.694,258.922 431.702,265.08C431.704,265.993 432.239,266.455 433.312,266.469C437.75,266.529 442.188,266.6 446.626,266.683C447.007,266.69 447.409,266.813 447.831,267.051C448.251,267.29 448.463,267.672 448.464,268.197C448.468,270.498 448.473,272.798 448.477,275.099C448.479,276.021 447.906,276.465 446.758,276.436C442.281,276.326 437.803,276.231 433.325,276.152C432.252,276.133 431.718,276.581 431.719,277.493C431.728,284.4 431.737,291.306 431.746,298.213C431.747,298.67 431.938,299.034 432.322,299.304C432.705,299.575 433.088,299.715 433.472,299.726C436.805,299.82 440.137,299.927 443.469,300.048C444.234,300.076 444.733,299.702 444.961,298.922C445.341,297.495 446.086,296.538 447.196,296.051C448.304,295.568 449.739,295.357 451.502,295.427C452.842,295.48 454.182,295.535 455.522,295.592L455.546,307.381C455.548,308.108 455.262,308.688 454.688,309.119C454.114,309.552 453.406,309.746 452.564,309.704C450.189,309.585 447.814,309.474 445.439,309.371C437.394,309.023 429.346,308.766 421.297,308.599C418.997,308.552 416.697,308.512 414.398,308.479C414.397,307.183 414.396,305.886 414.395,304.59C414.394,303.165 414.604,302.082 415.026,301.342C415.445,300.603 416.039,300.076 416.807,299.762C417.188,299.638 417.534,299.383 417.84,298.999C418.145,298.614 418.299,298.196 418.299,297.741C418.286,280.712 418.272,263.684 418.258,246.656C418.258,245.619 417.721,244.871 416.651,244.414C415.962,244.089 415.406,243.585 414.987,242.904C414.565,242.223 414.355,241.235 414.354,239.938C414.353,238.544 414.352,237.151 414.351,235.757C426.81,235.757 439.269,235.758 451.728,235.758C452.568,235.758 453.391,236.039 454.195,236.6C454.999,237.162 455.401,237.707 455.402,238.235C455.41,241.966 455.418,245.698 455.426,249.429C453.896,249.414 452.367,249.4 450.838,249.386C449.232,249.371 447.97,249.033 447.05,248.368C446.132,247.705 445.48,247.076 445.097,246.484C444.712,245.694 443.909,245.296 442.687,245.29C439.514,245.273 436.34,245.258 433.167,245.245C432.784,245.243 432.44,245.388 432.136,245.68" style="fill:rgb(87,87,87);fill-rule:nonzero;"/>
        </g>
        <g transform="matrix(0.999801,7.6893e-20,7.6893e-20,0.999487,-231.92,-165.736)">
            <path d="M490.982,252.14C490.976,250.025 490.303,248.41 488.963,247.303C487.622,246.197 485.995,245.636 484.086,245.616C482.557,245.6 481.028,245.585 479.499,245.57C478.581,245.561 478.124,246.028 478.127,246.97C478.143,253.602 478.16,260.233 478.177,266.865C478.178,267.405 478.311,267.778 478.581,267.989C478.849,268.2 479.135,268.31 479.442,268.32C481.392,268.383 483.342,268.449 485.291,268.517C487.66,268.6 489.207,268.096 489.932,266.996C490.655,265.897 491.013,264.322 491.008,262.274C491,258.896 490.991,255.518 490.982,252.14M505.556,303.783C506.168,304.184 506.704,304.735 507.164,305.437C507.624,306.141 507.856,307.085 507.858,308.268C507.863,310.149 507.867,312.03 507.872,313.91C504.169,313.532 500.463,313.172 496.757,312.833C494.768,312.65 493.276,311.971 492.28,310.793C491.283,309.615 490.783,308.279 490.78,306.777C490.76,299.205 490.741,291.632 490.721,284.06C490.716,282.082 490.271,280.592 489.391,279.595C488.508,278.599 486.881,278.047 484.513,277.942C482.907,277.87 481.301,277.801 479.695,277.733C478.7,277.692 478.205,278.144 478.208,279.085C478.225,286.154 478.243,293.224 478.261,300.293C478.263,300.968 478.359,301.445 478.551,301.726C478.742,302.009 479.029,302.262 479.414,302.49C480.026,302.935 480.639,303.55 481.253,304.336C481.867,305.122 482.176,306.09 482.178,307.239C482.182,308.692 482.186,310.145 482.19,311.598C475.114,311.047 468.034,310.566 460.951,310.156C460.948,308.731 460.945,307.305 460.941,305.88C460.939,304.753 461.241,303.842 461.854,303.144C462.463,302.446 463.074,301.914 463.687,301.548C463.992,301.365 464.26,301.148 464.489,300.893C464.718,300.64 464.832,300.213 464.83,299.615C464.79,281.988 464.749,264.361 464.709,246.734C464.708,246.203 464.707,245.771 464.706,245.438C464.705,245.105 464.513,244.872 464.131,244.735C463.518,244.398 462.848,243.863 462.121,243.127C461.392,242.393 461.028,241.364 461.024,240.037C461.021,238.611 461.018,237.185 461.015,235.759C469.079,235.76 477.143,235.76 485.207,235.76C488.033,235.76 490.615,236.186 492.949,237.044C495.282,237.903 497.271,239.094 498.921,240.618C500.567,242.144 501.832,243.969 502.718,246.091C503.6,248.214 504.047,250.563 504.054,253.127C504.062,256.316 504.07,259.505 504.078,262.694C504.083,264.913 503.745,266.928 503.062,268.734C502.378,270.541 501.274,271.995 499.748,273.097C498.833,273.745 498.873,274.434 499.869,275.171C501.63,276.429 502.78,278.114 503.32,280.222C503.859,282.33 504.133,284.67 504.14,287.234C504.152,291.983 504.164,296.731 504.176,301.48C504.178,302.104 504.312,302.583 504.58,302.918C504.848,303.253 505.173,303.541 505.556,303.783" style="fill:rgb(87,87,87);fill-rule:nonzero;"/>
        </g>
        <g transform="matrix(0.999801,7.6893e-20,7.6893e-20,0.999487,-231.92,-165.736)">
            <path d="M543.977,286.367C544.967,286.45 545.386,286.082 545.233,285.258C544.312,280.101 543.39,274.967 542.467,269.857C542.081,267.93 541.735,266.044 541.428,264.2C541.119,262.357 540.831,260.7 540.561,259.226C540.291,257.755 540.079,256.562 539.926,255.643C539.771,254.726 539.695,254.231 539.695,254.158C539.618,254.155 539.542,254.153 539.465,254.151C539.465,254.224 539.352,254.969 539.125,256.383C538.898,257.797 538.595,259.591 538.218,261.759C537.838,263.927 537.424,266.292 536.969,268.847C536.517,271.402 536.08,273.791 535.665,276.011C535.249,278.233 534.909,280.129 534.645,281.701C534.38,283.275 534.249,284.168 534.249,284.386C534.174,284.887 534.231,285.217 534.423,285.376C534.613,285.536 535.128,285.648 535.969,285.714C537.227,285.814 538.486,285.915 539.744,286.017C541.155,286.132 542.566,286.249 543.977,286.367M563.757,311.531C564.364,311.997 564.954,312.688 565.524,313.609C566.095,314.531 566.38,315.642 566.38,316.941L566.38,321.527C559.353,320.414 552.318,319.372 545.276,318.4C545.274,317.075 545.273,315.749 545.271,314.424C545.269,313.172 545.401,312.232 545.667,311.602C545.933,310.973 546.237,310.476 546.579,310.113C546.921,309.751 547.244,309.384 547.548,309.014C547.851,308.646 548.004,308.128 548.004,307.462C547.619,305.418 547.351,303.725 547.198,302.378C547.043,301.03 546.89,299.962 546.738,299.17C546.583,298.378 546.373,297.802 546.107,297.443C545.838,297.084 545.438,296.877 544.905,296.823C544.601,296.792 544.296,296.761 543.991,296.73C540.79,296.407 537.588,296.094 534.385,295.792C533.697,295.727 533.201,295.754 532.898,295.869C532.592,295.986 532.402,296.364 532.328,297.006C532.252,297.361 532.195,298.005 532.16,298.937C532.122,299.871 532.029,300.836 531.879,301.829C531.727,302.967 531.578,304.212 531.428,305.564C531.43,306.357 531.564,306.966 531.832,307.391C532.099,307.817 532.367,308.261 532.635,308.724C532.902,309.188 533.17,309.724 533.439,310.333C533.706,310.943 533.842,311.827 533.844,312.983C533.846,314.284 533.848,315.585 533.851,316.887C526.915,316.006 519.973,315.193 513.026,314.449C513.023,313.047 513.019,311.644 513.016,310.241C513.013,309.19 513.201,308.385 513.583,307.826C513.962,307.268 514.382,306.798 514.839,306.422C515.296,306.044 515.771,305.668 516.267,305.294C516.762,304.919 517.124,304.425 517.352,303.812C519.467,294.703 521.584,285.516 523.701,276.244C524.456,272.802 525.233,269.401 526.028,266.042C526.823,262.685 527.522,259.667 528.129,256.999C528.734,254.331 529.226,252.154 529.605,250.474C529.983,248.795 530.173,247.916 530.173,247.844C530.172,247.664 530.172,247.484 530.172,247.305C530.171,246.73 529.998,246.26 529.654,245.894C529.309,245.53 528.925,245.112 528.505,244.639C528.083,244.168 527.7,243.572 527.355,242.852C527.01,242.133 526.836,241.059 526.833,239.627C526.831,238.339 526.828,237.051 526.825,235.763C530.875,235.763 534.18,235.747 536.742,235.71C539.301,235.674 541.347,235.802 542.876,236.095C544.405,236.39 545.533,236.888 546.261,237.591C546.987,238.295 547.541,239.352 547.926,240.76C548.002,241.057 548.252,242.224 548.675,244.266C549.097,246.311 549.654,248.915 550.345,252.091C551.036,255.269 551.801,258.868 552.646,262.896C553.488,266.926 554.33,271.03 555.173,275.208C557.163,285.009 559.455,296.206 562.045,308.907C562.197,309.535 562.425,310.038 562.73,310.421C563.033,310.805 563.376,311.175 563.757,311.531" style="fill:rgb(87,87,87);fill-rule:nonzero;"/>
        </g>
        <g transform="matrix(0.999801,7.6893e-20,7.6893e-20,0.999487,-231.92,-165.736)">
            <path d="M415.151,170.359C415.818,171.287 419.221,175.793 420.149,176.789C421.093,177.785 422.053,178.081 422.319,178.944C422.591,179.807 422.466,183.461 422.542,186.386C422.618,189.311 421.201,191.94 420.903,192.442C420.604,192.941 427.751,193.685 432.825,189.78C437.893,185.873 439.613,181.215 439.239,180.916C438.875,180.618 436.618,181.158 433.487,179.573C430.367,177.989 428.668,176.165 427.86,175.368C427.062,174.575 425.96,172.882 425.526,172.055C425.087,171.224 422.656,168.272 422.156,167.51C421.652,166.748 421.25,165.622 420.751,165.852C420.257,166.088 417.468,168.093 416.507,168.992C415.547,169.892 415.151,170.359 415.151,170.359" style="fill:rgb(87,87,87);fill-rule:nonzero;"/>
        </g>
        <g transform="matrix(0.999801,7.6893e-20,7.6893e-20,0.999487,-231.92,-165.736)">
            <path d="M376.07,167.069C377.02,167.823 379.401,169.397 380.677,170.412C381.946,171.429 385.093,172.824 387.399,175.51C389.711,178.196 393.085,182.347 394.506,183.407C395.923,184.471 397.739,186.51 399.6,187.213C401.461,187.913 405.887,190.251 408.529,192.381C409.76,193.367 411.257,194.719 412.734,195.954C414.442,197.383 416.018,198.741 416.76,199.659C418.149,201.371 415.276,205.249 414.429,205.903C413.577,206.56 412.18,203.728 411.399,202.201C410.606,200.673 408.867,199.061 407.293,197.75C405.719,196.437 402.397,194.162 401.383,193.587C400.836,193.277 398.819,191.956 396.7,190.626C394.91,189.502 393.22,188.104 392.199,187.398C389.969,185.86 387.973,185.141 386.91,184.319C386.358,183.897 384.353,181.949 382.204,180.14C380.162,178.422 378.001,176.812 377.259,176.248C375.728,175.089 373.395,173.146 372.885,172.66C372.38,172.175 375.593,166.689 376.07,167.069" style="fill:rgb(87,87,87);fill-rule:nonzero;"/>
        </g>
        <g transform="matrix(0.999801,7.6893e-20,7.6893e-20,0.999487,-231.92,-165.736)">
            <path d="M384.33,170.772C383.684,171.714 380.341,176.316 379.434,177.336C378.528,178.356 377.541,178.659 377.291,179.53C377.047,180.399 377.266,184.058 377.271,186.98C377.282,189.905 378.801,192.487 379.11,192.979C379.314,193.296 376.384,193.856 372.902,193.154C371.001,192.772 368.98,191.929 367.15,190.601C365.437,189.356 364.033,188.089 363.01,186.846C360.937,184.329 360.266,182.246 360.503,182.039C360.861,181.729 363.133,182.243 366.22,180.572C369.303,178.9 370.97,177.006 371.751,176.19C372.527,175.37 373.415,173.531 373.822,172.69C374.24,171.849 376.656,168.861 377.139,168.085C377.616,167.309 377.981,166.271 378.48,166.491C378.979,166.71 381.848,168.563 382.836,169.437C383.818,170.311 384.489,169.82 384.33,170.772" style="fill:rgb(87,87,87);fill-rule:nonzero;"/>
        </g>
        <g transform="matrix(0.999801,7.6893e-20,7.6893e-20,0.999487,-231.92,-165.736)">
            <path d="M397.314,188.594C395.366,189.72 393.06,191.24 391.443,192.618C388.854,194.818 384.681,198.324 383.341,200.071C382.001,201.821 385.029,205.777 385.891,206.407C386.754,207.039 388.236,204.141 388.979,202.594C389.728,201.048 391.426,199.453 392.957,198.101C394.498,196.745 397.58,194.143 398.573,193.54C398.937,193.321 399.978,192.648 401.254,191.812L397.314,188.594Z" style="fill:rgb(87,87,87);fill-rule:nonzero;"/>
        </g>
        <g transform="matrix(0.999801,7.6893e-20,7.6893e-20,0.999487,-231.92,-165.736)">
            <path d="M423.122,166.338C422.194,167.117 419.931,168.848 418.689,169.898C417.446,170.948 414.364,172.454 412.123,175.202C409.892,177.951 406.566,182.102 405.171,183.203C404.585,183.67 403.923,184.308 403.228,184.945C405.052,185.664 406.658,186.503 407.944,187.265C410.055,185.743 411.835,184.804 412.85,183.977C413.897,183.122 420.805,176.871 422.297,175.669C423.789,174.47 425.976,172.367 426.47,171.867C426.964,171.366 423.589,165.942 423.122,166.338" style="fill:rgb(87,87,87);fill-rule:nonzero;"/>
        </g>
        <g transform="matrix(0.999801,7.6893e-20,7.6893e-20,0.999487,-231.92,-165.736)">
            <path d="M329.277,412.434C329.367,412.235 329.456,412.036 329.546,411.836C329.694,411.506 329.698,411.17 329.56,410.826C329.422,410.483 329.182,410.233 328.839,410.076C328.011,409.695 327.185,409.308 326.362,408.913C326.02,408.749 325.675,408.724 325.321,408.837C324.968,408.95 324.712,409.168 324.553,409.493C323.785,411.062 323.017,412.632 322.249,414.201C322.09,414.526 322.079,414.866 322.219,415.217C322.358,415.569 322.607,415.832 322.964,416.003C323.826,416.416 324.69,416.822 325.557,417.22C325.916,417.385 326.277,417.408 326.636,417.29C326.994,417.173 327.248,416.947 327.396,416.617C327.486,416.417 327.576,416.218 327.665,416.019C328.525,416.406 329.387,416.785 330.251,417.157C330.165,417.357 330.078,417.558 329.992,417.759C329.774,418.264 329.47,418.69 329.075,419.035C328.681,419.382 328.234,419.64 327.733,419.808C327.232,419.977 326.696,420.048 326.128,420.018C325.559,419.989 325.003,419.85 324.463,419.602C323.583,419.198 322.706,418.786 321.832,418.367C321.282,418.103 320.814,417.762 320.433,417.346C320.052,416.929 319.765,416.472 319.572,415.978C319.38,415.484 319.291,414.974 319.304,414.449C319.316,413.924 319.448,413.417 319.698,412.927C320.491,411.37 321.284,409.814 322.078,408.257C322.322,407.778 322.649,407.375 323.059,407.044C323.469,406.713 323.918,406.472 324.407,406.319C324.897,406.165 325.406,406.105 325.936,406.136C326.466,406.167 326.985,406.305 327.494,406.549C328.305,406.938 329.118,407.319 329.933,407.694C330.434,407.924 330.867,408.233 331.233,408.623C331.599,409.013 331.88,409.443 332.073,409.917C332.266,410.39 332.366,410.889 332.372,411.415C332.377,411.941 332.276,412.451 332.063,412.944C331.977,413.145 331.891,413.346 331.804,413.546C330.96,413.183 330.117,412.812 329.277,412.434" style="fill:rgb(87,87,87);fill-rule:nonzero;"/>
        </g>
        <g transform="matrix(0.999801,7.6893e-20,7.6893e-20,0.999487,-231.92,-165.736)">
            <path d="M345.22,420.733C345.236,419.359 345.261,417.986 345.296,416.615C345.259,416.602 345.222,416.59 345.186,416.577C344.381,417.688 343.568,418.795 342.746,419.897C343.569,420.182 344.394,420.461 345.22,420.733M349.33,426.134C349.083,426.972 348.836,427.811 348.589,428.648C346.756,428.108 344.93,427.538 343.11,426.937C343.384,426.108 343.658,425.278 343.932,424.448C344.354,424.587 344.777,424.725 345.2,424.861C345.199,424.402 345.2,423.943 345.201,423.484C343.827,423.039 342.457,422.576 341.091,422.095C340.813,422.46 340.535,422.825 340.255,423.19C340.675,423.339 341.095,423.486 341.516,423.632C341.231,424.457 340.945,425.283 340.659,426.109C338.847,425.481 337.042,424.824 335.246,424.137C335.558,423.321 335.87,422.505 336.183,421.689C336.612,421.853 337.043,422.016 337.474,422.177C339.761,419.301 341.988,416.391 344.154,413.448C345.436,413.899 346.722,414.334 348.012,414.753C347.947,418.406 347.948,422.069 348.016,425.741C348.453,425.874 348.892,426.005 349.33,426.134" style="fill:rgb(87,87,87);fill-rule:nonzero;"/>
        </g>
        <g transform="matrix(0.999801,7.6893e-20,7.6893e-20,0.999487,-231.92,-165.736)">
            <path d="M361.511,424.426C362.268,424.596 363.026,424.762 363.784,424.922C364.23,425.016 364.641,424.945 365.014,424.709C365.386,424.473 365.615,424.139 365.701,423.711C365.787,423.283 365.705,422.888 365.459,422.525C365.212,422.163 364.871,421.937 364.433,421.845C363.689,421.688 362.945,421.526 362.202,421.358C361.972,422.381 361.741,423.403 361.511,424.426M368.602,430.659C368.45,431.519 368.298,432.38 368.146,433.24C366.276,432.91 364.41,432.551 362.548,432.161C362.727,431.306 362.906,430.451 363.085,429.595C363.458,429.674 363.832,429.751 364.206,429.826C363.925,429.056 363.649,428.286 363.378,427.515C362.563,427.343 361.749,427.166 360.935,426.983C360.782,427.665 360.628,428.347 360.475,429.029C360.932,429.131 361.389,429.233 361.847,429.332C361.662,430.186 361.477,431.04 361.292,431.893C359.433,431.49 357.578,431.058 355.73,430.594C355.942,429.747 356.154,428.899 356.366,428.052C356.822,428.166 357.278,428.278 357.734,428.389C358.35,425.841 358.966,423.294 359.583,420.747C359.147,420.641 358.712,420.534 358.276,420.425C358.489,419.578 358.701,418.73 358.913,417.882C360.945,418.391 362.984,418.861 365.03,419.292C365.594,419.423 366.1,419.648 366.55,419.967C367.001,420.286 367.378,420.665 367.68,421.104C367.983,421.544 368.198,422.032 368.326,422.57C368.452,423.108 368.466,423.659 368.361,424.224C368.239,424.886 367.981,425.468 367.583,425.964C367.185,426.461 366.704,426.853 366.139,427.138C366.548,428.24 366.967,429.342 367.397,430.442C367.798,430.516 368.2,430.588 368.602,430.659" style="fill:rgb(87,87,87);fill-rule:nonzero;"/>
        </g>
        <g transform="matrix(0.999801,7.6893e-20,7.6893e-20,0.999487,-231.92,-165.736)">
            <path d="M382.761,427.828C383.213,427.871 383.612,427.755 383.955,427.479C384.298,427.203 384.487,426.846 384.525,426.411C384.563,425.976 384.438,425.593 384.154,425.259C383.869,424.927 383.506,424.741 383.063,424.698C382.308,424.625 381.554,424.547 380.8,424.464C380.686,425.506 380.571,426.548 380.456,427.59C381.224,427.675 381.992,427.754 382.761,427.828M383.315,422.089C383.888,422.144 384.421,422.303 384.916,422.564C385.411,422.826 385.834,423.161 386.189,423.57C386.543,423.98 386.813,424.447 386.998,424.974C387.183,425.501 387.257,426.05 387.216,426.623C387.175,427.208 387.023,427.745 386.761,428.232C386.497,428.72 386.152,429.139 385.725,429.488C385.297,429.836 384.805,430.096 384.249,430.268C383.693,430.438 383.112,430.495 382.509,430.437C381.729,430.362 380.949,430.281 380.17,430.195C380.093,430.89 380.017,431.585 379.94,432.28C380.404,432.331 380.868,432.38 381.332,432.427C381.244,433.296 381.155,434.166 381.066,435.035C379.181,434.842 377.299,434.62 375.419,434.368C375.535,433.502 375.652,432.636 375.768,431.77C376.231,431.832 376.694,431.893 377.158,431.951C377.486,429.351 377.814,426.751 378.142,424.151C377.699,424.095 377.256,424.037 376.814,423.978C376.93,423.112 377.047,422.246 377.163,421.38C379.21,421.655 381.261,421.891 383.315,422.089" style="fill:rgb(87,87,87);fill-rule:nonzero;"/>
        </g>
        <g transform="matrix(0.999801,7.6893e-20,7.6893e-20,0.999487,-231.92,-165.736)">
            <path d="M403.405,422.804C403.438,424.114 403.47,425.424 403.503,426.734C402.605,426.757 401.708,426.772 400.81,426.78C400.806,426.343 400.802,425.907 400.798,425.47C399.907,425.478 399.016,425.479 398.126,425.473C398.12,426.346 398.114,427.22 398.108,428.093C399.012,428.099 399.917,428.098 400.822,428.09C400.83,428.963 400.838,429.837 400.846,430.711C399.927,430.719 399.009,430.72 398.09,430.714C398.084,431.588 398.079,432.461 398.073,433.335C399.005,433.341 399.937,433.34 400.869,433.332C400.866,432.895 400.861,432.458 400.858,432.021C401.783,432.013 402.709,431.997 403.634,431.974C403.667,433.284 403.699,434.594 403.732,435.904C400.421,435.987 397.108,435.978 393.797,435.877C393.824,435.004 393.85,434.13 393.877,433.257C394.343,433.271 394.809,433.283 395.275,433.294C395.335,430.674 395.394,428.054 395.453,425.434C395.008,425.424 394.562,425.412 394.117,425.398C394.144,424.525 394.17,423.652 394.197,422.778C397.265,422.872 400.336,422.881 403.405,422.804" style="fill:rgb(87,87,87);fill-rule:nonzero;"/>
        </g>
        <g transform="matrix(0.999801,7.6893e-20,7.6893e-20,0.999487,-231.92,-165.736)">
            <path d="M423.187,421.124C423.313,421.989 423.439,422.853 423.565,423.718C423.123,423.782 422.681,423.845 422.239,423.905C422.715,427.367 423.191,430.829 423.667,434.291C422.727,434.42 421.787,434.542 420.846,434.656C418.684,432.177 416.602,429.66 414.603,427.109C414.768,428.948 414.934,430.788 415.1,432.627C415.564,432.586 416.029,432.542 416.493,432.496C416.578,433.366 416.664,434.235 416.749,435.105C414.863,435.29 412.975,435.445 411.086,435.569C411.028,434.698 410.971,433.826 410.913,432.954C411.379,432.923 411.844,432.891 412.31,432.856C412.116,430.243 411.922,427.629 411.729,425.015C411.284,425.048 410.839,425.08 410.394,425.109C410.336,424.237 410.279,423.365 410.221,422.494C411.535,422.407 412.848,422.304 414.159,422.186C416.108,424.743 418.139,427.265 420.25,429.749C420.028,427.916 419.805,426.082 419.583,424.249C419.14,424.302 418.697,424.354 418.254,424.405C418.156,423.536 418.057,422.668 417.959,421.8C419.704,421.603 421.447,421.377 423.187,421.124" style="fill:rgb(87,87,87);fill-rule:nonzero;"/>
        </g>
        <g transform="matrix(0.999801,7.6893e-20,7.6893e-20,0.999487,-231.92,-165.736)">
            <path d="M440.27,417.715C440.594,418.985 440.917,420.255 441.241,421.525C440.364,421.748 439.487,421.964 438.607,422.174C438.506,421.749 438.405,421.324 438.304,420.899C437.868,421.002 437.432,421.104 436.995,421.204C437.581,423.759 438.168,426.313 438.754,428.868C439.21,428.763 439.667,428.656 440.124,428.547C440.326,429.397 440.528,430.247 440.73,431.097C438.878,431.538 437.02,431.949 435.157,432.33C434.982,431.474 434.807,430.618 434.632,429.762C435.091,429.668 435.549,429.572 436.007,429.475C435.462,426.911 434.916,424.348 434.371,421.784C433.933,421.878 433.495,421.969 433.057,422.059C433.144,422.487 433.232,422.915 433.319,423.343C432.435,423.523 431.549,423.697 430.665,423.863C430.422,422.575 430.18,421.287 429.938,419.999C433.4,419.349 436.846,418.587 440.27,417.715" style="fill:rgb(87,87,87);fill-rule:nonzero;"/>
        </g>
        <g transform="matrix(0.999801,7.6893e-20,7.6893e-20,0.999487,-231.92,-165.736)">
            <path d="M452.476,420.176C453.218,419.934 453.959,419.687 454.699,419.435C455.133,419.287 455.453,419.015 455.656,418.621C455.858,418.227 455.886,417.822 455.741,417.41C455.596,416.999 455.323,416.702 454.923,416.516C454.523,416.332 454.111,416.313 453.684,416.459C452.958,416.706 452.231,416.949 451.502,417.186C451.827,418.183 452.151,419.179 452.476,420.176M461.828,421.883C462.137,422.7 462.447,423.517 462.756,424.334C460.959,425.016 459.152,425.667 457.338,426.289C457.055,425.462 456.772,424.636 456.489,423.809C456.853,423.684 457.216,423.559 457.579,423.432C456.941,422.915 456.306,422.394 455.677,421.871C454.882,422.143 454.085,422.408 453.288,422.668C453.504,423.333 453.72,423.997 453.937,424.662C454.385,424.516 454.833,424.368 455.281,424.218C455.558,425.047 455.835,425.875 456.112,426.704C454.295,427.312 452.471,427.89 450.64,428.438C450.39,427.601 450.139,426.764 449.889,425.927C450.34,425.792 450.79,425.655 451.24,425.516C450.469,423.012 449.697,420.507 448.926,418.002C448.496,418.135 448.065,418.266 447.634,418.395C447.384,417.558 447.133,416.721 446.883,415.884C448.895,415.281 450.899,414.64 452.893,413.959C453.449,413.783 454.003,413.715 454.558,413.758C455.112,413.801 455.635,413.933 456.123,414.154C456.611,414.376 457.049,414.684 457.436,415.08C457.822,415.476 458.116,415.943 458.315,416.482C458.549,417.113 458.623,417.746 458.532,418.377C458.441,419.009 458.223,419.593 457.879,420.128C458.799,420.865 459.729,421.595 460.668,422.318C461.055,422.175 461.441,422.029 461.828,421.883" style="fill:rgb(87,87,87);fill-rule:nonzero;"/>
        </g>
        <g transform="matrix(0.999801,7.6893e-20,7.6893e-20,0.999487,-231.92,-165.736)">
            <path d="M473.653,414.174C474.005,414.919 474.357,415.663 474.709,416.408C475.14,416.204 475.571,415.998 476.002,415.79C476.381,416.577 476.761,417.364 477.141,418.151C475.393,418.994 473.635,419.808 471.868,420.591C471.514,419.793 471.16,418.994 470.806,418.195C471.241,418.002 471.676,417.807 472.111,417.61C471.771,416.86 471.431,416.11 471.091,415.36C469.139,414.271 467.219,413.151 465.333,412.001C464.992,412.146 464.652,412.29 464.311,412.432C463.974,411.626 463.637,410.82 463.3,410.014C464.949,409.324 466.59,408.607 468.222,407.862C468.585,408.657 468.948,409.452 469.31,410.247C468.997,410.39 468.683,410.532 468.368,410.673C469.315,411.226 470.27,411.771 471.233,412.309C471.453,411.224 471.662,410.14 471.861,409.056C471.549,409.205 471.237,409.353 470.925,409.499C470.553,408.708 470.182,407.918 469.811,407.127C471.437,406.364 473.053,405.573 474.66,404.754C475.057,405.533 475.453,406.311 475.85,407.09C475.518,407.259 475.185,407.427 474.852,407.594C474.495,409.783 474.095,411.977 473.653,414.174" style="fill:rgb(87,87,87);fill-rule:nonzero;"/>
        </g>
        <g transform="matrix(0.999801,7.6893e-20,7.6893e-20,0.999487,-231.92,-165.736)">
            <rect x="231.967" y="360.661" width="54.759" height="5.003" style="fill:rgb(87,87,87);"/>
        </g>
        <g transform="matrix(0.999801,7.6893e-20,7.6893e-20,0.999487,-231.92,-165.736)">
            <rect x="513.275" y="360.661" width="54.759" height="5.003" style="fill:rgb(87,87,87);"/>
        </g>
        <g transform="matrix(0.999801,7.6893e-20,7.6893e-20,0.999487,-231.92,-165.736)">
            <path d="M381.097,358.294C379.576,358.816 378.896,360.455 378.457,361.871C377.307,365.473 375.749,369.179 376.364,373.041C376.491,374.098 377.27,375.189 378.423,375.196C379.904,375.415 381.159,374.488 382.355,373.774C382.986,373.396 383.527,372.806 383.583,372.042C384.056,368.292 385.107,364.638 385.518,360.882C385.691,358.693 382.834,357.765 381.097,358.294M426.163,358.798C424.085,360.566 423.074,363.228 422.298,365.769C424.054,365.398 425.832,365.009 427.452,364.211C429.063,363.463 430.522,362.094 430.865,360.288C430.98,359.605 431.156,358.745 430.565,358.22C429.211,357.286 427.341,357.802 426.163,358.798M406.519,358.34C404.494,359.682 402.645,361.342 401.257,363.346C400.524,364.338 400.614,365.636 400.419,366.799C404.884,366.728 408.798,363.429 410.3,359.339C410.575,358.628 410.266,357.71 409.546,357.413C408.451,357.172 407.422,357.802 406.519,358.34M315.042,339.247C317.834,335.852 322.484,334.313 326.784,334.872C329.956,335.265 332.754,337.305 334.464,339.955C335.357,341.501 335.629,343.315 335.812,345.065C337.586,341.955 340.372,338.931 344.088,338.418C346.818,337.945 349.823,339.667 350.515,342.403C351.115,345.062 350.494,347.792 349.943,350.407C351.498,348.342 353.523,346.333 356.182,345.903C358.597,345.387 361.317,346.543 362.455,348.766C363.246,350.423 363.178,352.321 362.98,354.102C362.201,360.109 360.609,365.977 359.917,371.993C359.781,373.396 359.852,375.109 361.104,376.018C362.263,376.942 363.865,376.534 365.101,375.999C367.911,374.757 369.643,372.082 371.593,369.844C372.289,368.901 373.337,368.1 373.526,366.879C373.891,364.95 374.394,363.052 375.109,361.222C375.702,358.903 377.143,356.767 379.223,355.543C381.623,354.315 384.668,354.998 386.473,356.958C386.674,356.331 386.773,355.651 387.135,355.088C387.843,354.102 389.599,354.173 390.149,355.277C390.282,355.734 390.155,356.204 389.991,356.637C389.311,358.294 389.095,360.084 388.656,361.812C388.18,365.272 386.965,368.595 386.662,372.079C386.507,373.607 387.657,375.749 389.466,375.155C392.304,373.922 394.323,371.418 396.264,369.102C396.728,368.475 397.421,367.918 397.485,367.086C398.147,362.264 398.787,357.435 399.696,352.649C400.166,349.699 400.568,346.741 400.951,343.779C401.229,342.236 404.067,342.249 403.99,343.958C403.687,349.087 402.636,354.142 401.613,359.166C403.344,357.02 405.663,355.175 408.423,354.637C409.771,354.349 411.379,354.63 412.26,355.774C413.166,356.974 413.089,358.606 412.73,359.988C412.099,362.251 410.677,364.242 408.915,365.769C408.003,366.57 406.862,367.034 405.882,367.742C406.766,370.017 407.289,372.472 408.64,374.534C409.416,375.638 410.98,375.381 411.963,374.72C414.39,373.164 416.242,370.892 418.081,368.706C418.731,368.073 418.616,367.093 418.861,366.28C419.578,363.194 420.756,360.106 422.855,357.688C424.555,355.74 427.177,354.627 429.761,354.838C431.585,354.986 433.471,356.077 434.04,357.895C434.572,359.843 433.858,361.93 432.618,363.457C429.975,366.688 425.786,368.301 421.714,368.648C421.436,370.509 421.235,372.747 422.645,374.225C424.37,375.706 426.889,375.332 428.933,374.871C433.252,373.94 436.894,371.028 439.432,367.504C440.82,365.266 442.341,362.972 442.74,360.316C442.898,359.039 442.796,357.747 442.61,356.482C441.457,355.478 440.449,353.845 441.284,352.327C441.924,350.862 444.193,350.769 445.068,352.052C445.782,353.088 445.853,354.389 446.008,355.598C448.367,356.442 451.007,356.962 453.44,356.114C454.451,355.694 455.44,355.063 456.581,355.144C457.654,355.419 457.759,356.866 457.026,357.549C454.346,360.588 452.454,364.242 451.177,368.07C450.657,369.671 450.41,371.368 450.515,373.05C450.577,373.866 450.985,374.72 451.761,375.072C453.384,375.737 455.295,375.557 456.813,374.698C459.23,373.362 460.965,371.152 462.742,369.099C464.854,366.14 466.675,362.99 468.706,359.979C470.521,357.215 472.759,354.451 475.987,353.32C476.927,352.967 478.24,352.494 479.001,353.428C479.687,354.083 479.199,355.113 478.565,355.601C477.814,356.278 476.611,356.173 475.965,356.989C475.189,357.938 475.579,359.28 475.996,360.3C477.22,362.786 478.825,365.182 479.199,367.989C479.505,370.481 479.125,373.26 477.353,375.168C479.273,374.682 481.15,373.937 482.745,372.75C484.782,371.105 486.575,369.173 488.121,367.065C488.594,366.357 489.451,365.834 490.313,366.187C490.384,366.765 490.588,367.362 490.412,367.943C489.509,370.023 487.858,371.637 486.272,373.211C482.918,376.633 478.058,378.3 473.328,378.346C471.012,378.29 468.397,377.885 466.768,376.08C465.84,375.084 465.707,373.066 467.225,372.589C468.607,372.299 468.867,373.99 469.785,374.608C471.47,376.095 474.336,375.48 475.381,373.526C476.457,371.427 476.404,368.867 475.693,366.66C474.762,364.085 472.997,361.772 472.778,358.971C470.564,361.543 468.969,364.558 467.136,367.396C465.58,370.487 463.268,373.149 460.659,375.4C458.328,377.493 455.106,378.618 451.978,378.219C449.971,378.086 448.057,376.639 447.575,374.658C446.873,372.033 447.575,369.306 448.299,366.768C449.007,363.964 450.382,361.382 452.012,359.014C449.974,359.302 447.869,359.092 445.909,358.483C445.862,362.103 444.199,365.451 442.18,368.369C440.801,370.629 438.931,372.546 436.866,374.185C433.239,377.292 428.268,378.739 423.541,378.164C421.943,377.978 420.406,377.153 419.476,375.823C418.768,374.874 418.524,373.69 418.282,372.559C416.026,374.726 413.729,377.255 410.541,377.932C408.38,378.436 406.145,377.134 405.332,375.112C404.559,373.081 403.826,371.031 403.094,368.985C402.126,369.285 401.112,369.399 400.104,369.3C399.888,371.449 399.402,373.56 399.266,375.718C399.198,376.482 399.127,377.338 398.543,377.904C397.764,378.705 396.06,378.238 396.045,377.051C396.11,375.415 396.555,373.826 396.913,372.237C396.1,373.458 394.904,374.355 393.859,375.366C392.094,377.02 389.664,378.198 387.194,377.762C386.034,377.536 385.351,376.5 384.606,375.687C382.967,376.68 381.493,378.108 379.517,378.368C377.746,378.565 375.752,378.25 374.456,376.927C373.297,375.802 372.951,374.132 372.805,372.58C370.784,375.205 368.313,377.626 365.213,378.912C362.869,379.774 359.914,379.273 358.266,377.316C357.329,376.092 356.856,374.519 356.939,372.982C357.134,366.366 359.199,360.004 359.975,353.462C360.096,352.015 360.272,350.132 358.859,349.23C357.817,348.364 356.337,348.58 355.205,349.14C353.758,349.869 352.716,351.165 351.709,352.395C349.705,354.816 348.775,357.895 348.023,360.891C347.189,364.162 346.818,367.522 346.082,370.812C345.618,373.214 345.012,375.588 344.678,378.015C344.496,378.89 344.119,379.95 343.157,380.21C342.471,380.414 341.599,380.099 341.392,379.366C341.287,378.81 341.58,378.284 341.689,377.749C342.975,372.203 343.615,366.533 344.923,360.99C345.791,356.161 346.858,351.363 347.572,346.506C347.717,345.084 348.023,343.414 347.022,342.221C345.921,340.978 343.989,340.932 342.61,341.717C340.434,342.92 338.974,345.053 337.843,347.208C335.301,352.405 334.652,358.217 333.45,363.806C332.909,367.461 332.17,371.081 331.381,374.689C330.986,376.398 330.865,378.176 330.293,379.839C329.919,380.841 328.723,381.017 327.817,380.714C327.338,380.383 327.168,379.743 327.387,379.212C329.189,372.531 330.129,365.661 331.514,358.888C332.232,353.935 333.932,348.936 332.838,343.9C332.241,339.503 327.353,336.672 323.164,337.605C317.939,338.39 313.756,343.863 314.956,349.127C315.311,351.483 316.826,353.833 319.213,354.498C319.977,354.757 321.145,354.699 321.393,355.663C321.674,356.615 320.542,357.379 319.674,357.289C317.689,357.113 315.815,356.084 314.501,354.603C312.782,352.59 312.105,349.888 312.115,347.285C312.016,344.354 313.126,341.451 315.042,339.247" style="fill:rgb(87,87,87);fill-rule:nonzero;"/>
        </g>
        <g transform="matrix(0.999801,7.6893e-20,7.6893e-20,0.999487,-231.92,-165.736)">
            <path d="M381.097,358.294C379.576,358.816 378.896,360.455 378.457,361.871C377.307,365.473 375.749,369.179 376.364,373.041C376.491,374.098 377.27,375.189 378.423,375.196C379.904,375.415 381.159,374.488 382.355,373.774C382.986,373.396 383.527,372.806 383.583,372.042C384.056,368.292 385.107,364.638 385.518,360.882C385.691,358.693 382.834,357.765 381.097,358.294ZM426.163,358.798C424.085,360.566 423.074,363.228 422.298,365.769C424.054,365.398 425.832,365.009 427.452,364.211C429.063,363.463 430.522,362.094 430.865,360.288C430.98,359.605 431.156,358.745 430.565,358.22C429.211,357.286 427.341,357.802 426.163,358.798ZM406.519,358.34C404.494,359.682 402.645,361.342 401.257,363.346C400.524,364.338 400.614,365.636 400.419,366.799C404.884,366.728 408.798,363.429 410.3,359.339C410.575,358.628 410.266,357.71 409.546,357.413C408.451,357.172 407.422,357.802 406.519,358.34ZM315.042,339.247C317.834,335.852 322.484,334.313 326.784,334.872C329.956,335.265 332.754,337.305 334.464,339.955C335.357,341.501 335.629,343.315 335.812,345.065C337.586,341.955 340.372,338.931 344.088,338.418C346.818,337.945 349.823,339.667 350.515,342.403C351.115,345.062 350.494,347.792 349.943,350.407C351.498,348.342 353.523,346.333 356.182,345.903C358.597,345.387 361.317,346.543 362.455,348.766C363.246,350.423 363.178,352.321 362.98,354.102C362.201,360.109 360.609,365.977 359.917,371.993C359.781,373.396 359.852,375.109 361.104,376.018C362.263,376.942 363.865,376.534 365.101,375.999C367.911,374.757 369.643,372.082 371.593,369.844C372.289,368.901 373.337,368.1 373.526,366.879C373.891,364.95 374.394,363.052 375.109,361.222C375.702,358.903 377.143,356.767 379.223,355.543C381.623,354.315 384.668,354.998 386.473,356.958C386.674,356.331 386.773,355.651 387.135,355.088C387.843,354.102 389.599,354.173 390.149,355.277C390.282,355.734 390.155,356.204 389.991,356.637C389.311,358.294 389.095,360.084 388.656,361.812C388.18,365.272 386.965,368.595 386.662,372.079C386.507,373.607 387.657,375.749 389.466,375.155C392.304,373.922 394.323,371.418 396.264,369.102C396.728,368.475 397.421,367.918 397.485,367.086C398.147,362.264 398.787,357.435 399.696,352.649C400.166,349.699 400.568,346.741 400.951,343.779C401.229,342.236 404.067,342.249 403.99,343.958C403.687,349.087 402.636,354.142 401.613,359.166C403.344,357.02 405.663,355.175 408.423,354.637C409.771,354.349 411.379,354.63 412.26,355.774C413.166,356.974 413.089,358.606 412.73,359.988C412.099,362.251 410.677,364.242 408.915,365.769C408.003,366.57 406.862,367.034 405.882,367.742C406.766,370.017 407.289,372.472 408.64,374.534C409.416,375.638 410.98,375.381 411.963,374.72C414.39,373.164 416.242,370.892 418.081,368.706C418.731,368.073 418.616,367.093 418.861,366.28C419.578,363.194 420.756,360.106 422.855,357.688C424.555,355.74 427.177,354.627 429.761,354.838C431.585,354.986 433.471,356.077 434.04,357.895C434.572,359.843 433.858,361.93 432.618,363.457C429.975,366.688 425.786,368.301 421.714,368.648C421.436,370.509 421.235,372.747 422.645,374.225C424.37,375.706 426.889,375.332 428.933,374.871C433.252,373.94 436.894,371.028 439.432,367.504C440.82,365.266 442.341,362.972 442.74,360.316C442.898,359.039 442.796,357.747 442.61,356.482C441.457,355.478 440.449,353.845 441.284,352.327C441.924,350.862 444.193,350.769 445.068,352.052C445.782,353.088 445.853,354.389 446.008,355.598C448.367,356.442 451.007,356.962 453.44,356.114C454.451,355.694 455.44,355.063 456.581,355.144C457.654,355.419 457.759,356.866 457.026,357.549C454.346,360.588 452.454,364.242 451.177,368.07C450.657,369.671 450.41,371.368 450.515,373.05C450.577,373.866 450.985,374.72 451.761,375.072C453.384,375.737 455.295,375.557 456.813,374.698C459.23,373.362 460.965,371.152 462.742,369.099C464.854,366.14 466.675,362.99 468.706,359.979C470.521,357.215 472.759,354.451 475.987,353.32C476.927,352.967 478.24,352.494 479.001,353.428C479.687,354.083 479.199,355.113 478.565,355.601C477.814,356.278 476.611,356.173 475.965,356.989C475.189,357.938 475.579,359.28 475.996,360.3C477.22,362.786 478.825,365.182 479.199,367.989C479.505,370.481 479.125,373.26 477.353,375.168C479.273,374.682 481.15,373.937 482.745,372.75C484.782,371.105 486.575,369.173 488.121,367.065C488.594,366.357 489.451,365.834 490.313,366.187C490.384,366.765 490.588,367.362 490.412,367.943C489.509,370.023 487.858,371.637 486.272,373.211C482.918,376.633 478.058,378.3 473.328,378.346C471.012,378.29 468.397,377.885 466.768,376.08C465.84,375.084 465.707,373.066 467.225,372.589C468.607,372.299 468.867,373.99 469.785,374.608C471.47,376.095 474.336,375.48 475.381,373.526C476.457,371.427 476.404,368.867 475.693,366.66C474.762,364.085 472.997,361.772 472.778,358.971C470.564,361.543 468.969,364.558 467.136,367.396C465.58,370.487 463.268,373.149 460.659,375.4C458.328,377.493 455.106,378.618 451.978,378.219C449.971,378.086 448.057,376.639 447.575,374.658C446.873,372.033 447.575,369.306 448.299,366.768C449.007,363.964 450.382,361.382 452.012,359.014C449.974,359.302 447.869,359.092 445.909,358.483C445.862,362.103 444.199,365.451 442.18,368.369C440.801,370.629 438.931,372.546 436.866,374.185C433.239,377.292 428.268,378.739 423.541,378.164C421.943,377.978 420.406,377.153 419.476,375.823C418.768,374.874 418.524,373.69 418.282,372.559C416.026,374.726 413.729,377.255 410.541,377.932C408.38,378.436 406.145,377.134 405.332,375.112C404.559,373.081 403.826,371.031 403.094,368.985C402.126,369.285 401.112,369.399 400.104,369.3C399.888,371.449 399.402,373.56 399.266,375.718C399.198,376.482 399.127,377.338 398.543,377.904C397.764,378.705 396.06,378.238 396.045,377.051C396.11,375.415 396.555,373.826 396.913,372.237C396.1,373.458 394.904,374.355 393.859,375.366C392.094,377.02 389.664,378.198 387.194,377.762C386.034,377.536 385.351,376.5 384.606,375.687C382.967,376.68 381.493,378.108 379.517,378.368C377.746,378.565 375.752,378.25 374.456,376.927C373.297,375.802 372.951,374.132 372.805,372.58C370.784,375.205 368.313,377.626 365.213,378.912C362.869,379.774 359.914,379.273 358.266,377.316C357.329,376.092 356.856,374.519 356.939,372.982C357.134,366.366 359.199,360.004 359.975,353.462C360.096,352.015 360.272,350.132 358.859,349.23C357.817,348.364 356.337,348.58 355.205,349.14C353.758,349.869 352.716,351.165 351.709,352.395C349.705,354.816 348.775,357.895 348.023,360.891C347.189,364.162 346.818,367.522 346.082,370.812C345.618,373.214 345.012,375.588 344.678,378.015C344.496,378.89 344.119,379.95 343.157,380.21C342.471,380.414 341.599,380.099 341.392,379.366C341.287,378.81 341.58,378.284 341.689,377.749C342.975,372.203 343.615,366.533 344.923,360.99C345.791,356.161 346.858,351.363 347.572,346.506C347.717,345.084 348.023,343.414 347.022,342.221C345.921,340.978 343.989,340.932 342.61,341.717C340.434,342.92 338.974,345.053 337.843,347.208C335.301,352.405 334.652,358.217 333.45,363.806C332.909,367.461 332.17,371.081 331.381,374.689C330.986,376.398 330.865,378.176 330.293,379.839C329.919,380.841 328.723,381.017 327.817,380.714C327.338,380.383 327.168,379.743 327.387,379.212C329.189,372.531 330.129,365.661 331.514,358.888C332.232,353.935 333.932,348.936 332.838,343.9C332.241,339.503 327.353,336.672 323.164,337.605C317.939,338.39 313.756,343.863 314.956,349.127C315.311,351.483 316.826,353.833 319.213,354.498C319.977,354.757 321.145,354.699 321.393,355.663C321.674,356.615 320.542,357.379 319.674,357.289C317.689,357.113 315.815,356.084 314.501,354.603C312.782,352.59 312.105,349.888 312.115,347.285C312.016,344.354 313.126,341.451 315.042,339.247Z" style="fill:none;stroke-width:1.5px;stroke:rgb(87,87,87);"/>
        </g>
    </g>
</svg>
