<?xml version="1.0" encoding="UTF-8" standalone="no"?>
<svg width="100px" height="85px" viewBox="0 0 100 85" version="1.1" xmlns="http://www.w3.org/2000/svg" xmlns:xlink="http://www.w3.org/1999/xlink">
    <!-- Generator: Sketch 40.3 (33839) - http://www.bohemiancoding.com/sketch -->
    <title>logo</title>
    <desc>Created with Sketch.</desc>
    <defs>
        <polygon id="path-1" points="7.2169851 0.268774606 0.0545994065 0.268774606 0.0545994065 8.69572109 7.2169851 8.69572109"></polygon>
        <polygon id="path-3" points="0 84.5420856 99.7228487 84.5420856 99.7228487 0.31211529 0 0.31211529"></polygon>
    </defs>
    <g id="Page-1" stroke="none" stroke-width="1" fill="none" fill-rule="evenodd">
        <g id="home-step-1" transform="translate(-108.000000, -18.000000)">
            <g id="navigation" transform="translate(1.000000, 1.000000)">
                <g id="logo" transform="translate(107.000000, 17.000000)">
                    <path d="M21.3006231,24.4592374 C21.1751039,24.6958963 21.0445401,24.8683236 20.9080415,24.9765194 C20.7258457,25.1286795 20.5332641,25.2275212 20.3291098,25.2730445 C20.3148665,31.0760192 20.3006231,36.8793057 20.2863798,42.6822804 C20.2857864,42.8974248 20.3196142,43.0445961 20.38727,43.1244178 C20.4552226,43.2045512 20.5341543,43.2725244 20.6249555,43.3292726 C20.8056677,43.4421455 20.9866766,43.6086486 21.1679822,43.82847 C21.3483976,44.0482915 21.4389021,44.3392041 21.4380119,44.7018316 C21.4368249,45.1611181 21.435638,45.6200929 21.434451,46.0793794 C19.3362315,46.2761274 17.2394955,46.4950134 15.1442433,46.7357257 C15.1454303,46.2639671 15.1463205,45.7925202 15.1475074,45.3207615 C15.1483976,44.9478445 15.2391988,44.631364 15.4213947,44.3713199 C15.602997,44.1115876 15.7845994,43.9070445 15.9664985,43.7583142 C16.0795549,43.6812988 16.1647181,43.5968 16.2219881,43.5038826 C16.278368,43.411277 16.3074481,43.255687 16.3080415,43.0371128 C16.3175371,38.9234894 16.3270326,34.809866 16.3365282,30.6962426 C16.3365282,30.6747281 16.3305935,30.6529019 16.3196142,30.6313875 C16.3080415,30.6101848 16.2798516,30.6441714 16.234451,30.7327236 C15.5279228,32.2234561 14.8902374,33.5838547 14.3213947,34.8076834 C14.0706528,35.3296424 13.8261424,35.8472362 13.58727,36.3610883 C13.3483976,36.8749405 13.1317804,37.3448283 12.9386053,37.7698165 C12.7451335,38.1951164 12.5804451,38.5583675 12.4439466,38.8580106 C12.3074481,39.1585892 12.2273294,39.3434887 12.2050742,39.4120854 C12.1368249,39.5739115 11.9552226,39.7067397 11.6608605,39.8111939 C11.3662018,39.9159599 11.0546291,39.9829976 10.7267359,40.0132426 C10.3982493,40.0437993 10.0869733,40.0394341 9.79320475,39.9992114 C9.49884273,39.9593006 9.31813056,39.8638887 9.25047478,39.7117286 C9.20507418,39.6481207 9.12050445,39.4816176 8.99676558,39.2094132 C8.87243323,38.9384559 8.70922849,38.6076324 8.50626113,38.2169427 C8.30299703,37.8262529 8.08311573,37.3906634 7.84602374,36.9086152 C7.60922849,36.4275025 7.37747774,35.9320467 7.15225519,35.4225598 C6.5878635,34.2532968 5.96709199,32.9402923 5.28934718,31.4751277 C5.26649852,31.430228 5.23860534,31.4084017 5.20448071,31.4102726 C5.17065282,31.4121434 5.15344214,31.4710742 5.15344214,31.5864415 C5.1489911,35.8048309 5.14454006,40.0235321 5.14038576,44.2419214 C5.14008902,44.4732796 5.17391691,44.6310522 5.24127596,44.7139919 C5.30922849,44.7978671 5.3878635,44.880495 5.47836795,44.9606285 C5.65878338,45.0753722 5.83919881,45.2477995 6.01991098,45.4766633 C6.20032641,45.7064624 6.29053412,46.0151479 6.28994065,46.4055258 C6.28934718,46.8991108 6.28875371,47.3930075 6.28816024,47.8865924 C4.19854599,48.1896654 2.1110089,48.5145646 0.0261424332,48.8616019 L0.0261424332,47.3244107 C0.0261424332,46.919378 0.115756677,46.5720289 0.296765579,46.2829871 C0.476884273,45.994257 0.657299703,45.7657051 0.838308605,45.597643 C0.928219585,45.5134561 1.00181009,45.4202268 1.05818991,45.3173317 C1.114273,45.2147483 1.15403561,45.0672653 1.17688427,44.8745707 C1.17836795,38.4495481 1.18014837,32.0248372 1.18192878,25.5998146 C0.955222552,25.5574093 0.762344214,25.454826 0.60388724,25.2914409 C0.445133531,25.1760736 0.308931751,24.9886798 0.196172107,24.728012 C0.0825222552,24.4682797 0.0261424332,24.1355854 0.0261424332,23.7299291 L0.0261424332,22.1213349 C1.56827893,22.1210231 3.11071217,22.1207113 4.65284866,22.1207113 C4.97035608,22.1207113 5.20833828,22.2943858 5.36679525,22.6401759 C7.15403561,26.6521514 8.93801187,30.5412762 10.7202077,34.3303122 C12.4831157,30.3177131 14.2483976,26.4186105 16.0151632,22.61149 C16.1056677,22.4144302 16.2759941,22.2831609 16.5261424,22.2176822 C16.7756973,22.1522034 16.9908309,22.1194641 17.17273,22.1194641 C18.6130861,22.1194641 20.0534421,22.1191523 21.4935015,22.1191523 C21.4923145,22.5996414 21.4911276,23.0801306 21.4899407,23.5606198 C21.4890504,23.9238708 21.425549,24.2232022 21.3006231,24.4592374 L21.3006231,24.4592374 Z" id="Fill-1" fill="#FFFFFF"></path>
                    <path d="M31.8747774,36.3332443 C32.1694362,36.322643 32.2949555,36.205093 32.2501484,35.9796591 C31.9807122,34.5659421 31.7109792,33.1494189 31.441543,31.7300894 C31.3287834,31.1953464 31.2278932,30.6705812 31.1385757,30.15517 C31.0486647,29.6403824 30.9646884,29.1764188 30.8863501,28.7632792 C30.8074184,28.351075 30.7456973,28.0155745 30.7011869,27.7570894 C30.6560831,27.4992279 30.6341246,27.3595399 30.6341246,27.3386491 C30.611276,27.3389609 30.588724,27.3392727 30.5658754,27.3395845 C30.5658754,27.3604753 30.531454,27.5731253 30.4626113,27.9784698 C30.3934718,28.3835026 30.3014837,28.8982901 30.1866469,29.5228325 C30.0715134,30.1473749 29.9456973,30.8299127 29.8077151,31.570446 C29.6700297,32.3112911 29.5376855,33.0059893 29.4118694,33.6542287 C29.2851632,34.30278 29.1818991,34.858102 29.1014837,35.3183239 C29.0207715,35.7791695 28.9807122,36.0410844 28.9807122,36.1034451 C28.9575668,36.2503045 28.974184,36.343222 29.0311573,36.3821974 C29.0875371,36.4217965 29.2406528,36.4358276 29.4908012,36.4255381 C29.8652819,36.4099479 30.2400593,36.3949814 30.6145401,36.3806384 C31.0347181,36.3641128 31.4545994,36.3485226 31.8747774,36.3332443 M37.7590504,42.4243254 C37.9406528,42.5203609 38.1169139,42.6768862 38.2869436,42.8951486 C38.45727,43.1137229 38.5421365,43.3955932 38.541543,43.7416951 C38.5409496,44.1489105 38.5403561,44.5561258 38.5397626,44.9633412 C36.4362018,45.0406684 34.3332344,45.1401338 32.2311573,45.2614253 C32.2320475,44.8900674 32.2329377,44.5190212 32.2335312,44.1476633 C32.2344214,43.7971961 32.274184,43.5268625 32.3543027,43.3369742 C32.4341246,43.1470859 32.5255193,42.9930549 32.6278932,42.8745696 C32.7302671,42.7563961 32.827003,42.6379108 32.9183976,42.5200491 C33.0089021,42.4028109 33.0551929,42.2509626 33.0554896,42.0657514 C32.94273,41.5154182 32.8643917,41.0558199 32.8195846,40.6869564 C32.7747774,40.3180928 32.7299703,40.0265566 32.6851632,39.8123476 C32.6400593,39.5978268 32.5777448,39.4456667 32.4988131,39.3564909 C32.4189911,39.2670033 32.2997033,39.2255334 32.1412463,39.2323931 C32.0504451,39.2364465 31.9596439,39.2405 31.8688427,39.2442416 C30.9148368,39.2860233 29.9611276,39.330923 29.0074184,39.3792525 C28.8029674,39.389542 28.6548961,39.418228 28.5643917,39.4646867 C28.4732938,39.5114572 28.4160237,39.6286953 28.3931751,39.8173364 C28.3700297,39.9230378 28.352819,40.1119907 28.3409496,40.3832598 C28.3284866,40.6548406 28.2997033,40.93827 28.2540059,41.2326125 C28.2074184,41.5690484 28.1614243,41.9366647 28.1151335,42.3357732 C28.1145401,42.5655724 28.1534125,42.7351935 28.2332344,42.8446365 C28.3121662,42.9543913 28.3910979,43.069135 28.4706231,43.1891793 C28.5498516,43.3092237 28.6287834,43.4501589 28.7083086,43.6113613 C28.7872404,43.7731873 28.8264095,44.0207592 28.825816,44.3534536 C28.8249258,44.7282413 28.8240356,45.1027173 28.8231454,45.4775051 C26.7563798,45.6203111 24.6902077,45.7843198 22.6255193,45.9698428 C22.6267062,45.5448547 22.6275964,45.1195547 22.6287834,44.6945666 C22.6293769,44.3755916 22.6863501,44.12116 22.8005935,43.9312716 C22.9142433,43.7416951 23.0397626,43.5773747 23.1762611,43.4395575 C23.3127596,43.3014286 23.4545994,43.1629878 23.6026706,43.0248589 C23.7501484,42.8864182 23.858457,42.7199151 23.927003,42.5244143 C24.5694362,39.6851318 25.2115727,36.86674 25.8537092,34.0670565 C26.0827893,33.0284391 26.3181009,32.0072827 26.558457,31.0042109 C26.7991098,30.0017627 27.0106825,29.1062631 27.1946588,28.3180238 C27.3777448,27.5297846 27.5264095,26.8902757 27.641543,26.3973144 C27.7557864,25.9052885 27.8133531,25.6486742 27.8133531,25.6274716 C27.8136499,25.5754004 27.8136499,25.5233292 27.8136499,25.4709462 C27.8142433,25.3041313 27.7635015,25.1691204 27.6614243,25.0649781 C27.5596439,24.9617711 27.4459941,24.8426622 27.3222552,24.7073395 C27.1976261,24.5726404 27.0845697,24.4008366 26.9830861,24.1919283 C26.8813056,23.9836436 26.8311573,23.6696575 26.8320475,23.2502818 C26.8329377,22.8729996 26.8338279,22.4960291 26.8347181,22.1187469 C28.0367953,22.1187469 29.0178042,22.1140699 29.7777448,22.1031567 C30.5373887,22.0928672 31.1439169,22.1293482 31.5976261,22.2116644 C32.0510386,22.2942923 32.3851632,22.4333566 32.6005935,22.6288574 C32.8154303,22.82467 32.9792285,23.1177653 33.0919881,23.5081433 C33.1142433,23.5904594 33.1875371,23.914735 33.311276,24.4794111 C33.4347181,25.0450226 33.5982196,25.7634179 33.8005935,26.6345968 C34.0032641,27.5063994 34.2278932,28.489204 34.4759644,29.582387 C34.7234421,30.6765054 34.9709199,31.7840314 35.2189911,32.9049649 C35.804451,35.5344037 36.4810089,38.5015257 37.2486647,41.8000948 C37.2937685,41.9619208 37.3617211,42.0866422 37.4525223,42.1751944 C37.5430267,42.2640584 37.6451039,42.3469981 37.7590504,42.4243254" id="Fill-3" fill="#FFFFFF"></path>
                    <path d="M48.5741543,26.9617099 C48.5741543,26.6994831 48.5572404,26.452223 48.5231157,26.2199294 C48.4892878,25.9882594 48.4154006,25.7865225 48.3020475,25.6147188 C48.1883976,25.4435387 48.0240059,25.3075924 47.8085757,25.206568 C47.5925519,25.1058555 47.3035312,25.0556551 46.9406231,25.0559669 C46.3168843,25.0565906 45.6928487,25.057526 45.0688131,25.0587732 C44.9100593,25.059085 44.7907715,25.1049201 44.7112463,25.1959667 C44.6314243,25.2870133 44.5922552,25.3933383 44.5919585,25.5146299 L44.581276,41.4961176 C44.5809792,41.779547 44.7397329,41.9186113 45.0584273,41.9142461 C45.6836499,41.9058274 46.3091691,41.8992795 46.9346884,41.8946024 C47.2981899,41.8917962 47.5881009,41.8344244 47.8044214,41.7221751 C48.0204451,41.6105495 48.1851335,41.4683671 48.2993769,41.2959397 C48.41273,41.1244478 48.4869139,40.9223992 48.5210386,40.6897938 C48.5551632,40.4581238 48.5723739,40.2208413 48.5723739,39.9782582 C48.5729674,35.6395127 48.5735608,31.3004554 48.5741543,26.9617099 M46.9418101,22.1181545 C48.8922552,22.1181545 50.3100593,22.5621627 51.1946291,23.450179 C52.0797923,24.3388189 52.522819,25.5308437 52.5234125,27.0246942 C52.5248961,31.3054442 52.5266766,35.5861943 52.528457,39.8669444 C52.5290504,41.3617303 52.0860237,42.5481425 51.1990801,43.4314818 C50.3121365,44.3157565 48.8898813,44.754464 46.9335015,44.7716132 C44.4195549,44.7940631 41.905905,44.8476933 39.3928487,44.9331274 C39.3934421,44.5265357 39.3940356,44.1199439 39.3943323,43.7130404 C39.3949258,43.2659142 39.4637685,42.9232421 39.6005638,42.6850243 C39.7370623,42.4477418 39.9189614,42.2746909 40.1468546,42.1664951 C40.4198516,42.0576757 40.5563501,41.8409722 40.5566469,41.5157612 C40.5631751,36.1867278 40.5694065,30.8580062 40.575638,25.5289728 C40.5762315,25.2043854 40.428457,24.9714682 40.134095,24.8302212 C39.6578338,24.6088407 39.4204451,24.1420709 39.4213353,23.4299118 C39.4219288,22.9927633 39.4225223,22.5556148 39.4231157,22.1184663 C41.9293472,22.1181545 44.4355786,22.1181545 46.9418101,22.1181545" id="Fill-5" fill="#FFFFFF"></path>
                    <path d="M59.3975074,25.2121805 C59.3067062,25.3032271 59.2616024,25.3998862 59.2616024,25.5012223 C59.2639763,27.4209964 59.2663501,29.3410823 59.268724,31.2611681 C59.2693175,31.5458447 59.4280712,31.6898979 59.7464688,31.6942632 C61.0633828,31.7129714 62.3802967,31.7351094 63.6972107,31.7609891 C63.8102671,31.7631717 63.9295549,31.8015236 64.0547774,31.8757328 C64.1794065,31.9502538 64.2423145,32.0693628 64.2426113,32.2330596 C64.2437982,32.9505194 64.2452819,33.6676674 64.2464688,34.3851273 C64.2470623,34.6726101 64.0770326,34.8110508 63.7363798,34.8020085 C62.4078932,34.7677101 61.0791098,34.7380888 59.7503264,34.7134563 C59.4319288,34.7075321 59.2734718,34.84722 59.2737685,35.1315848 C59.2764392,37.2852115 59.2791098,39.4385264 59.2817804,41.5921531 C59.2820772,41.7346473 59.3387537,41.8481437 59.4527003,41.9323307 C59.5663501,42.0168294 59.68,42.0604819 59.7939466,42.0639117 C60.7829674,42.0932213 61.7716914,42.1265842 62.7604154,42.1643125 C62.9874184,42.173043 63.1354896,42.0564285 63.2031454,41.8132217 C63.315905,41.3682782 63.5369733,41.0698822 63.8663501,40.9180339 C64.1951335,40.7674328 64.6209496,40.7016423 65.144095,40.7234685 C65.5417211,40.7399941 65.9393472,40.7571433 66.3369733,40.7749161 L66.344095,44.4507674 C66.3446884,44.6774486 66.259822,44.8582946 66.0894955,44.9926819 C65.9191691,45.1276928 65.7090801,45.1881827 65.4592285,45.1750869 C64.7544807,45.1379823 64.0497329,45.1033721 63.3449852,45.0712564 C60.9577448,44.9627488 58.5696142,44.8826153 56.1811869,44.8305441 C55.4986944,44.8158893 54.8162018,44.8034172 54.1340059,44.7931277 C54.1337092,44.3890303 54.1334125,43.9846212 54.1331157,43.5805239 C54.132819,43.1362039 54.1951335,42.7985207 54.3203561,42.5677862 C54.4446884,42.3373634 54.6209496,42.173043 54.8488427,42.0751367 C54.9618991,42.036473 55.0645697,41.9569631 55.1553709,41.8372306 C55.2458754,41.7171863 55.2915727,41.5868524 55.2915727,41.4449818 C55.2877151,36.1352802 55.2835608,30.8258905 55.2794065,25.5165007 C55.2794065,25.1931605 55.1200593,24.9599315 54.8025519,24.8174373 C54.5981009,24.7161011 54.4331157,24.5589522 54.3087834,24.346614 C54.1835608,24.1342758 54.1212463,23.826214 54.1209496,23.4218049 C54.1206528,22.9871508 54.1203561,22.5528086 54.1200593,22.1181545 C57.817092,22.1181545 61.5141246,22.1184663 65.2111573,22.1184663 C65.4604154,22.1184663 65.7046291,22.2060831 65.9432047,22.3810048 C66.1817804,22.5562384 66.3010682,22.7261713 66.301365,22.8908035 C66.3037389,24.0541423 66.3061128,25.217793 66.3084866,26.3811318 C65.8544807,26.3764547 65.4007715,26.3720895 64.9470623,26.3677242 C64.4705045,26.3630472 64.0960237,26.2576576 63.8230267,26.0503083 C63.5506231,25.8435826 63.3571513,25.6474582 63.2435015,25.4628705 C63.1292582,25.2165457 62.8909792,25.092448 62.528368,25.0905771 C61.5868249,25.0852765 60.6449852,25.0805994 59.7034421,25.076546 C59.5897923,25.0759224 59.4877151,25.1211339 59.3975074,25.2121805" id="Fill-7" fill="#FFFFFF"></path>
                    <path d="M76.8591395,27.2262128 C76.8573591,26.5667484 76.6576558,26.0631857 76.2600297,25.7180193 C75.8621068,25.3731646 75.3793175,25.1982429 74.8128487,25.1920068 C74.3591395,25.187018 73.9054303,25.1823409 73.4517211,25.1776638 C73.1793175,25.1748576 73.0437092,25.3204698 73.0445994,25.6141887 C73.0493472,27.6820695 73.0543917,29.7496384 73.0594362,31.8175191 C73.0597329,31.985893 73.0991988,32.1021957 73.1793175,32.1679862 C73.2588427,32.2337768 73.3437092,32.2680751 73.4348071,32.2711932 C74.0134421,32.2908368 74.5920772,32.3114158 75.1704154,32.3326185 C75.8733828,32.3584981 76.3324332,32.2013492 76.5475668,31.8583654 C76.7621068,31.5156933 76.8683383,31.0246028 76.8668546,30.3860293 C76.8644807,29.3327571 76.8618101,28.2794849 76.8591395,27.2262128 M81.1837685,43.3286802 C81.3653709,43.4537134 81.5244214,43.6255171 81.6609199,43.8444032 C81.7974184,44.0639128 81.8662611,44.3582553 81.8668546,44.7271189 C81.8683383,45.3136212 81.8695252,45.9001236 81.8710089,46.4863141 C80.7721958,46.3684524 79.6724926,46.2562032 78.5727893,46.1505018 C77.9825816,46.0934417 77.5398516,45.8817272 77.2443027,45.5144227 C76.948457,45.1471182 76.800089,44.7305487 76.7991988,44.2622199 C76.7932641,41.9012439 76.7876261,39.5399561 76.7816914,37.17898 C76.7802077,36.5622328 76.6481602,36.0976456 76.3870326,35.7867775 C76.1250148,35.4762212 75.6422255,35.3041057 74.9395549,35.2713663 C74.462997,35.2489165 73.9864392,35.227402 73.5098813,35.2061994 C73.2146291,35.1934154 73.0677448,35.3343506 73.068635,35.6277577 C73.0736795,37.8318966 73.0790208,40.0363472 73.084362,42.240486 C73.0849555,42.4509534 73.1134421,42.5996837 73.1704154,42.6873004 C73.227092,42.7755408 73.3122552,42.8544271 73.4264985,42.9255183 C73.6081009,43.0642709 73.79,43.25603 73.9721958,43.5011075 C74.1543917,43.7461851 74.2460831,44.0480109 74.2466766,44.4062731 C74.2478635,44.8593235 74.2490504,45.312374 74.2502374,45.7654245 C72.1505341,45.5936207 70.0496439,45.4436433 67.9478635,45.3158038 C67.9469733,44.8714839 67.9460831,44.4268521 67.9448961,43.9825321 C67.9443027,43.6311296 68.0339169,43.3470766 68.215816,43.1294378 C68.3965282,42.911799 68.5778338,42.7459195 68.7597329,42.6317994 C68.8502374,42.5747394 68.9297626,42.507078 68.9977151,42.4275681 C69.0656677,42.3486819 69.0994955,42.2155418 69.0989021,42.0290833 C69.0870326,36.5329232 69.0748665,31.0367632 69.062997,25.5406031 C69.0627003,25.3750355 69.0624036,25.2403363 69.0621068,25.1365058 C69.0618101,25.0326752 69.0048368,24.960025 68.8914837,24.9173079 C68.7095846,24.8122302 68.5107715,24.6454153 68.2950445,24.4159279 C68.078724,24.1870642 67.9707122,23.8662184 67.9695252,23.4524552 C67.968635,23.0078234 67.9677448,22.5631916 67.9668546,22.1185598 C70.3597329,22.1185598 72.7526113,22.1188716 75.1454896,22.1188716 C75.9840653,22.1188716 76.7502374,22.2516999 77.442819,22.5192273 C78.1351039,22.7870665 78.7253116,23.1584245 79.2149258,23.633613 C79.7033531,24.1094251 80.078724,24.6784665 80.341632,25.3401135 C80.6033531,26.0020723 80.7359941,26.7344987 80.7380712,27.5339628 C80.7404451,28.5283041 80.742819,29.5226454 80.7451929,30.5169868 C80.7466766,31.2088787 80.6463798,31.8371627 80.4437092,32.4002798 C80.2407418,32.9637087 79.9131454,33.417071 79.4603264,33.7606784 C79.1888131,33.9627271 79.2006825,34.1775597 79.4962315,34.4073589 C80.0187834,34.7996076 80.3600297,35.3249965 80.5202671,35.9822783 C80.6802077,36.63956 80.7615134,37.3691802 80.7635905,38.1686443 C80.7671513,39.6493991 80.7707122,41.129842 80.774273,42.6105968 C80.7748665,42.8051622 80.8146291,42.954516 80.8941543,43.0589702 C80.9736795,43.1634244 81.0701187,43.2532238 81.1837685,43.3286802" id="Fill-9" fill="#FFFFFF"></path>
                    <path d="M92.5846884,37.8984666 C92.878457,37.9243463 93.0027893,37.8096026 92.9573887,37.5526765 C92.684095,35.9447059 92.4105045,34.3439068 92.1366172,32.750591 C92.0220772,32.1497457 91.9194065,31.5616843 91.8283086,30.9867187 C91.7366172,30.4120649 91.6511573,29.8954065 91.5710386,29.4358082 C91.4909199,28.9771452 91.4280119,28.6051637 91.3826113,28.3186163 C91.3366172,28.0326925 91.3140653,27.8783497 91.3140653,27.8555881 C91.2912166,27.8546527 91.2686647,27.8540291 91.245816,27.8534055 C91.245816,27.8761671 91.2122849,28.1084607 91.1449258,28.5493508 C91.0775668,28.990241 90.9876558,29.5496164 90.8757864,30.2256064 C90.7630267,30.9015964 90.640178,31.6390116 90.5051632,32.4356695 C90.3710386,33.2323274 90.241365,33.9772259 90.1182196,34.6694297 C89.9947774,35.362257 89.8938872,35.9534364 89.815549,36.4435915 C89.7369139,36.9343702 89.6980415,37.2128107 89.6980415,37.2807839 C89.6757864,37.4369974 89.6927003,37.5398926 89.7496736,37.5894693 C89.8060534,37.6393579 89.9588724,37.6742799 90.2084273,37.6948589 C90.5817211,37.7260393 90.9553116,37.7575314 91.3286053,37.7893354 C91.7472997,37.8251928 92.1659941,37.8616738 92.5846884,37.8984666 M98.4541246,45.7446895 C98.6342433,45.88999 98.8093175,46.1054462 98.978457,46.3926172 C99.1478932,46.6801 99.2324629,47.0265137 99.2324629,47.4315464 L99.2324629,48.8614772 C97.1472997,48.5144399 95.0597626,48.1895407 92.9701484,47.8864677 C92.9695549,47.4733281 92.9692582,47.0598766 92.9686647,46.646737 C92.9680712,46.2563591 93.0072404,45.9632638 93.0861721,45.7668276 C93.1651039,45.5707032 93.2553116,45.4157369 93.3567953,45.3025522 C93.4582789,45.1896793 93.5541246,45.0752474 93.6443323,44.9598802 C93.7342433,44.8451365 93.7796439,44.6836223 93.7796439,44.4759611 C93.6654006,43.8386348 93.5858754,43.3107515 93.5404748,42.8907522 C93.4944807,42.4704411 93.4490801,42.137435 93.4039763,41.8904866 C93.3579822,41.6435383 93.2956677,41.4639395 93.2167359,41.352002 C93.1369139,41.2400646 93.0182196,41.1755212 92.8600593,41.1586839 C92.7698516,41.1490179 92.6793472,41.139352 92.5888427,41.1296861 C91.6389911,41.0289736 90.6888427,40.9313791 89.7383976,40.8372145 C89.5342433,40.8169472 89.3870623,40.8253659 89.2971513,40.8612233 C89.2063501,40.8977043 89.1499703,41.0155661 89.1280119,41.2157439 C89.1054599,41.3264341 89.088546,41.5272356 89.0781602,41.8178364 C89.0668843,42.1090609 89.0392878,42.4099512 88.9947774,42.7195721 C88.9496736,43.0744045 88.9054599,43.4625998 88.8609496,43.8841581 C88.861543,44.1314183 88.9013056,44.3213066 88.9808309,44.4538231 C89.0600593,44.5866514 89.1395846,44.7250921 89.2191098,44.8694571 C89.2983383,45.014134 89.3778635,45.1812606 89.4576855,45.371149 C89.5369139,45.5613491 89.57727,45.8369834 89.5778635,46.1974282 C89.578457,46.6030845 89.5790504,47.0087409 89.5799407,47.414709 C87.5217804,47.1400101 85.4618398,46.8865139 83.4004154,46.6545321 C83.3995252,46.2173836 83.3983383,45.7799233 83.3974481,45.342463 C83.3965579,45.0147576 83.4523442,44.7637558 83.5656973,44.5894576 C83.6781602,44.4154713 83.8027893,44.2689236 83.9383976,44.1516855 C84.0740059,44.0338238 84.2149555,43.9165857 84.3621365,43.7999712 C84.5090208,43.6830449 84.6164392,43.529014 84.684095,43.3378784 C85.3116914,40.4976605 85.9398813,37.6331218 86.5680712,34.7420799 C86.7921068,33.6688523 87.0226706,32.6084086 87.2585757,31.5610607 C87.4944807,30.5143364 87.7018991,29.5733135 87.8820178,28.7414218 C88.061543,27.9095301 88.2075371,27.2307339 88.32,26.706904 C88.4321662,26.183386 88.488546,25.9093107 88.488546,25.8868609 C88.4882493,25.8307362 88.4882493,25.7746116 88.4882493,25.7187988 C88.4879525,25.5395118 88.4366172,25.3929642 88.3345401,25.2788441 C88.2321662,25.1653476 88.1182196,25.0350138 87.9935905,24.8875307 C87.868368,24.7406713 87.7547181,24.5548364 87.6523442,24.3303379 C87.5499703,24.1061512 87.4983383,23.7712742 87.4974481,23.3247716 C87.4968546,22.9231687 87.4959644,22.5215658 87.4950742,22.119963 C88.6968546,22.119963 89.6775668,22.1149741 90.4378042,22.1034374 C91.1971513,22.0922124 91.804273,22.1321233 92.2579822,22.2234817 C92.7116914,22.3154637 93.0464095,22.4707419 93.2624332,22.6899397 C93.4778635,22.9094494 93.6422552,23.2390257 93.7564985,23.678045 C93.7790504,23.7706506 93.8532344,24.1345253 93.9787537,24.771228 C94.1039763,25.4088661 94.2692582,26.2208024 94.4743027,27.2110903 C94.6793472,28.2020018 94.9063501,29.3241825 95.157092,30.580127 C95.4069436,31.836695 95.6567953,33.1163365 95.9069436,34.4190515 C96.4974481,37.4750375 97.1775668,40.9663011 97.9461128,44.9265172 C97.9912166,45.1223298 98.0588724,45.2791669 98.1493769,45.3985877 C98.2392878,45.5183202 98.3410682,45.6336875 98.4541246,45.7446895" id="Fill-11" fill="#FFFFFF"></path>
                    <g id="Group-15" transform="translate(54.302671, 0.043341)">
                        <mask id="mask-2" fill="white">
                            <use xlink:href="#path-1"></use>
                        </mask>
                        <g id="Clip-14"></g>
                        <path d="M0.0545994065,1.68336466 C0.252522255,1.9727183 1.26231454,3.37770481 1.53768546,3.68826108 C1.81780415,3.99881736 2.10267062,4.09111119 2.18160237,4.3601976 C2.26231454,4.62928401 2.22522255,5.76861395 2.24777448,6.68063915 C2.27032641,7.59266434 1.84985163,8.41239571 1.76142433,8.56892106 C1.6727003,8.724511 3.79347181,8.95649279 5.29910979,7.73890018 C6.80296736,6.52068396 7.31335312,5.06830332 7.20237389,4.97507407 C7.09436202,4.88215663 6.42462908,5.05053052 5.49554896,4.55632199 C4.56973294,4.06242527 4.06557864,3.49369571 3.82581602,3.24518833 C3.58902077,2.99792816 3.2620178,2.47004486 3.13323442,2.21218338 C3.00296736,1.95307468 2.28160237,1.03263079 2.13323442,0.79503653 C1.98367953,0.557442274 1.86439169,0.206351548 1.71632047,0.278066349 C1.56973294,0.351651972 0.742136499,0.976817963 0.456973294,1.2571293 C0.172106825,1.53775244 0.0545994065,1.68336466 0.0545994065,1.68336466" id="Fill-13" fill="#FFFFFF" mask="url(#mask-2)"></path>
                    </g>
                    <path d="M42.7604748,0.700996599 C43.0423739,0.936096428 43.7489021,1.42687512 44.1275371,1.74335565 C44.504095,2.0604598 45.4379228,2.49542566 46.1221958,3.33292983 C46.8082493,4.170434 47.8094362,5.46473027 48.2310979,5.79524196 C48.6515727,6.12700087 49.1904451,6.76276818 49.7426706,6.98196603 C50.2948961,7.20022848 51.6082493,7.92922503 52.3922255,8.59336645 C52.7575074,8.90080469 53.2017211,9.32236301 53.64,9.70744031 C54.1468249,10.1530075 54.6144807,10.5764366 54.8346588,10.8626722 C55.2468249,11.3964798 54.3943027,12.6056537 54.1429674,12.8095732 C53.8901484,13.0144281 53.4756083,12.1314006 53.2438576,11.6552767 C53.008546,11.178841 52.4925223,10.6762137 52.0254599,10.2674394 C51.5583976,9.8580414 50.5726409,9.14868846 50.2717507,8.96940146 C50.1094362,8.87274238 49.5109199,8.46084997 48.8821365,8.04615134 C48.3509792,7.69568422 47.8494955,7.25978294 47.5465282,7.03964968 C46.8848071,6.56009592 46.2925223,6.33590921 45.977092,6.07960674 C45.8132938,5.94802567 45.2183383,5.34063248 44.5806528,4.77657997 C43.9747181,4.24090158 43.3334718,3.73889797 43.1132938,3.5630408 C42.6589911,3.20166056 41.9667062,2.59582639 41.8153709,2.44428989 C41.6655193,2.2927534 42.6189318,0.582511274 42.7604748,0.700996599" id="Fill-16" fill="#FFFFFF"></path>
                    <path d="M45.2116914,1.85563609 C45.02,2.14935497 44.0280119,3.58427462 43.7588724,3.90231418 C43.4900297,4.22035373 43.1971513,4.31483019 43.1229674,4.58641103 C43.0505638,4.85736826 43.115549,5.99825721 43.1170326,6.909347 C43.1202967,7.8213722 43.5710386,8.6264488 43.66273,8.77985612 C43.7232641,8.87869782 42.8538279,9.05330778 41.8205935,8.83442173 C41.2564985,8.7153128 40.6567953,8.45246246 40.1137685,8.03838743 C39.6054599,7.65019209 39.1888427,7.25513707 38.8852819,6.86756534 C38.2701484,6.08275596 38.0710386,5.4332693 38.141365,5.36872598 C38.2475964,5.27206689 38.9217804,5.43233389 39.8378042,4.91131026 C40.7526409,4.38997483 41.2472997,3.79941903 41.4790504,3.54498738 C41.7093175,3.28930852 41.972819,2.71590191 42.0935905,2.45367518 C42.2176261,2.19144845 42.9345401,1.25977963 43.0778635,1.01782012 C43.2194065,0.775860616 43.3277151,0.452208597 43.4757864,0.520805364 C43.6238576,0.589090327 44.4751929,1.16686219 44.768368,1.43937844 C45.0597626,1.71189468 45.2588724,1.55879917 45.2116914,1.85563609" id="Fill-18" fill="#FFFFFF"></path>
                    <path d="M49.0643917,7.41256665 C48.4863501,7.76365738 47.8020772,8.23759868 47.3222552,8.66726388 C46.5540059,9.35323155 45.315727,10.4464146 44.9181009,10.9911353 C44.5204748,11.5367914 45.4189911,12.770286 45.6747774,12.9667222 C45.9308605,13.163782 46.3706231,12.2601755 46.5910979,11.7778155 C46.8133531,11.2957673 47.3172107,10.7984407 47.7715134,10.3768824 C48.2287834,9.95407687 49.1433234,9.1427642 49.4379822,8.9547467 C49.5459941,8.88646173 49.8548961,8.67661799 50.2335312,8.41595027 L49.0643917,7.41256665 Z" id="Fill-20" fill="#FFFFFF"></path>
                    <path d="M56.7226706,0.472912348 C56.4472997,0.715807264 55.7757864,1.2555391 55.4072404,1.58293276 C55.0383976,1.91032642 54.1238576,2.37990247 53.4588724,3.23673845 C52.7968546,4.09388624 51.809911,5.38818251 51.3959644,5.73147815 C51.2220772,5.87709038 51.025638,6.076021 50.8194065,6.27463983 C51.3606528,6.49882653 51.8372107,6.76042966 52.2188131,6.99802391 C52.8452226,6.52345901 53.3734125,6.23067553 53.6745994,5.97281405 C53.9852819,5.70622207 56.0351335,3.75713847 56.4778635,3.38235068 C56.9205935,3.0084983 57.5695549,2.35277557 57.7161424,2.19687383 C57.86273,2.04066028 56.8612463,0.349438168 56.7226706,0.472912348" id="Fill-22" fill="#FFFFFF"></path>
                    <path d="M28.8753412,77.2065656 C28.9020475,77.1445167 28.928457,77.0824678 28.9551632,77.0201071 C28.9990801,76.9172119 29.0002671,76.812446 28.9593175,76.7051856 C28.918368,76.598237 28.8471513,76.5202861 28.7453709,76.471333 C28.4996736,76.3525358 28.2545697,76.2318679 28.0103561,76.1087055 C27.9088724,76.0575697 27.8064985,76.0497746 27.701454,76.0850084 C27.5967062,76.1202422 27.5207418,76.1882154 27.4735608,76.2895515 C27.2456677,76.7787712 27.0177745,77.2683027 26.7898813,77.7575223 C26.7427003,77.8588585 26.7394362,77.9648717 26.7809792,78.0743147 C26.8222255,78.1840695 26.8961128,78.2660738 27.0020475,78.3193922 C27.2578338,78.4481671 27.5142136,78.5747593 27.7714837,78.6988571 C27.8780119,78.7503046 27.9851335,78.7574761 28.0916617,78.7206833 C28.1978932,78.6842023 28.2732641,78.6137347 28.317181,78.5108396 C28.3438872,78.4484789 28.3705935,78.38643 28.397003,78.3243811 C28.6521958,78.445049 28.9079822,78.5632225 29.164362,78.6792134 C29.1388427,78.7415741 29.1130267,78.8042466 29.0875074,78.8669191 C29.022819,79.0243799 28.9326113,79.1572082 28.8154006,79.2647804 C28.6984866,79.3729762 28.5658457,79.4534215 28.417181,79.5058045 C28.2685163,79.5584993 28.1094659,79.5806373 27.9409199,79.5712832 C27.7720772,79.5622409 27.607092,79.5189002 27.4468546,79.441573 C27.185727,79.3156044 26.9254896,79.1871413 26.6661424,79.0564957 C26.5029377,78.9741795 26.3640653,78.8678546 26.2510089,78.7381443 C26.1379525,78.6081222 26.0527893,78.4656281 25.9955193,78.3115971 C25.938546,78.1575662 25.9121365,77.9985464 25.9159941,77.8348496 C25.9195549,77.6711528 25.958724,77.5130684 26.032908,77.3602847 C26.2682196,76.8748067 26.5035312,76.3896404 26.7391395,75.9041624 C26.811543,75.7548085 26.9085757,75.6291517 27.0302374,75.5259448 C27.1518991,75.4227378 27.2851335,75.3475932 27.4302374,75.2998873 C27.575638,75.2518695 27.7266766,75.2331613 27.8839466,75.2428272 C28.0412166,75.2524931 28.1952226,75.295522 28.3462611,75.3716021 C28.5869139,75.4928936 28.8281602,75.6116907 29.07,75.728617 C29.2186647,75.8003318 29.3471513,75.8966791 29.4557567,76.0182825 C29.564362,76.1398858 29.6477448,76.2739613 29.7050148,76.4217562 C29.7622849,76.5692392 29.7919585,76.7248292 29.7937389,76.8888378 C29.7952226,77.0528465 29.7652522,77.2118662 29.7020475,77.3655854 C29.6765282,77.4282579 29.6510089,77.4909304 29.6251929,77.5532911 C29.3747478,77.4401064 29.1245994,77.3244273 28.8753412,77.2065656" id="Fill-24" fill="#FFFFFF"></path>
                    <path d="M33.6063798,79.7941915 C33.6111276,79.3657735 33.618546,78.9376674 33.6289318,78.5101848 C33.6179525,78.5061313 33.6069733,78.5023897 33.5962908,78.4983362 C33.3574184,78.8447499 33.1161721,79.1899164 32.8722552,79.5335238 C33.1164688,79.6223878 33.361276,79.709381 33.6063798,79.7941915 M34.8259644,81.4782422 C34.7526706,81.7395335 34.6793769,82.0011366 34.6060831,82.2621161 C34.0621662,82.0937422 33.5203264,81.9160143 32.9802671,81.7286204 C33.0615727,81.4701353 33.1428783,81.2113384 33.224184,80.9525415 C33.3494065,80.9958822 33.4749258,81.038911 33.6004451,81.0813163 C33.6001484,80.9381985 33.6004451,80.7950807 33.6007418,80.6519629 C33.1930267,80.5132104 32.7864985,80.3688454 32.3811573,80.2188679 C32.2986647,80.3326762 32.2161721,80.4464844 32.1330861,80.5602927 C32.2577151,80.6067514 32.3823442,80.6525865 32.50727,80.6981098 C32.4227003,80.9553477 32.3378338,81.2128974 32.2529674,81.4704471 C31.7152819,81.2746345 31.1796736,81.0697796 30.6467359,80.8555706 C30.7393175,80.601139 30.8318991,80.3467073 30.9247774,80.0922757 C31.0520772,80.1434114 31.1799703,80.1942354 31.3078635,80.2444358 C31.9864985,79.3476889 32.6473294,78.4403408 33.2900593,77.5227031 C33.6704748,77.6633265 34.0520772,77.798961 34.4348665,77.9296067 C34.4155786,79.0686248 34.4158754,80.210761 34.4360534,81.3557034 C34.565727,81.3971733 34.6959941,81.4380195 34.8259644,81.4782422" id="Fill-26" fill="#FFFFFF"></path>
                    <path d="M38.4404451,80.9455883 C38.6650742,80.9985949 38.89,81.0503542 39.1149258,81.1002428 C39.24727,81.1295523 39.3692285,81.1074143 39.479911,81.0338287 C39.5902967,80.960243 39.6582493,80.8561007 39.6837685,80.7226488 C39.7092878,80.5891969 39.6849555,80.4660345 39.6119585,80.3528498 C39.5386647,80.239977 39.4374777,80.1695094 39.3075074,80.1408235 C39.0867359,80.0918703 38.8659644,80.0413582 38.6454896,79.9889752 C38.5772404,80.3079501 38.5086944,80.6266133 38.4404451,80.9455883 M40.5445994,82.8890594 C40.4994955,83.1572104 40.4543917,83.4256732 40.4092878,83.6938242 C39.8543917,83.590929 39.3006825,83.4789916 38.7481602,83.3573882 C38.801276,83.0907963 38.8543917,82.8242043 38.9075074,82.5573005 C39.0181899,82.581933 39.1291691,82.6059418 39.2401484,82.6293271 C39.1567656,82.3892384 39.0748665,82.1491497 38.994451,81.9087492 C38.7526113,81.855119 38.5110682,81.7999298 38.2695252,81.7428698 C38.2241246,81.9555198 38.1784273,82.1681697 38.1330267,82.3808197 C38.268635,82.4126237 38.4042433,82.4444276 38.5401484,82.4752962 C38.4852522,82.7415763 38.4303561,83.0078565 38.3754599,83.2738249 C37.8238279,83.1481681 37.2733828,83.013469 36.7250148,82.8687922 C36.7879228,82.6046946 36.8508309,82.3402853 36.9137389,82.0761877 C37.0490504,82.1117333 37.184362,82.1466553 37.3196736,82.1812655 C37.5024629,81.3867902 37.6852522,80.5926267 37.8683383,79.7984632 C37.7389614,79.7654121 37.6098813,79.7320491 37.4805045,79.6980625 C37.5437092,79.433965 37.6066172,79.1695556 37.6695252,78.9051462 C38.2724926,79.0638542 38.8775371,79.2104019 39.4846588,79.3447892 C39.6520178,79.3856354 39.8021662,79.4557912 39.9356973,79.5552565 C40.0695252,79.6547218 40.1813947,79.7728954 40.2710089,79.9097771 C40.3609199,80.0469706 40.4247181,80.1991307 40.4627003,80.366881 C40.500089,80.5346313 40.5042433,80.706435 40.4730861,80.882604 C40.4368843,81.0890179 40.3603264,81.2704875 40.2422255,81.425142 C40.1241246,81.5801084 39.9813947,81.7023353 39.8137389,81.7911993 C39.9351039,82.1348068 40.0594362,82.4784142 40.1870326,82.821398 C40.3060237,82.8444715 40.4253116,82.8669213 40.5445994,82.8890594" id="Fill-28" fill="#FFFFFF"></path>
                    <path d="M44.7461424,82.0064373 C44.8802671,82.0198448 44.9986647,81.9836756 45.1004451,81.8976179 C45.2022255,81.8115601 45.2583086,81.7002462 45.2695846,81.5646117 C45.2808605,81.4289772 45.2437685,81.3095565 45.1594955,81.2054141 C45.0749258,81.1018954 44.9672107,81.0438999 44.8357567,81.0304924 C44.6117211,81.0077307 44.3879822,80.98341 44.1642433,80.9575303 C44.1304154,81.2824296 44.0962908,81.6073288 44.0621662,81.932228 C44.2900593,81.9587313 44.5179525,81.9833638 44.7461424,82.0064373 M44.9105341,80.2169971 C45.0805638,80.2341462 45.238724,80.283723 45.3856083,80.3651037 C45.5324926,80.4467962 45.6580119,80.5512504 45.7633531,80.678778 C45.8683976,80.8066175 45.9485163,80.9522297 46.0034125,81.1165501 C46.0583086,81.2808706 46.0802671,81.4520507 46.0681009,81.6307141 C46.0559347,81.8131191 46.0108309,81.9805576 45.9330861,82.1324059 C45.8547478,82.284566 45.7523739,82.4152116 45.6256677,82.5240311 C45.4986647,82.6325387 45.3526706,82.7136076 45.1876855,82.7672378 C45.0227003,82.8202444 44.8502967,82.8380172 44.671365,82.8199326 C44.439911,82.7965473 44.208457,82.7712912 43.9772997,82.7444761 C43.954451,82.9611795 43.9318991,83.177883 43.9090504,83.3945864 C44.0467359,83.4104884 44.1844214,83.4257667 44.3221068,83.4404215 C44.2959941,83.7113787 44.2695846,83.9826478 44.2431751,84.253605 C43.6838279,84.1934269 43.1253709,84.1242065 42.5675074,84.0456321 C42.6019288,83.7756103 42.6366469,83.5055884 42.6710682,83.2355666 C42.808457,83.2548984 42.9458457,83.2739184 43.0835312,83.292003 L43.3755193,80.8599358 C43.2440653,80.8424749 43.1126113,80.8243902 42.981454,80.8059938 C43.0158754,80.535972 43.0505935,80.2659502 43.0850148,79.9959284 C43.6924332,80.0816743 44.3010386,80.15526 44.9105341,80.2169971" id="Fill-30" fill="#FFFFFF"></path>
                    <g id="Group-34" transform="translate(47.774481, 80.176837)" fill="#FFFFFF">
                        <path d="M3.09732938,0.263130962 C3.10712166,0.67159353 3.11661721,1.0800561 3.1264095,1.48851867 C2.85994065,1.49569015 2.59376855,1.5003672 2.3272997,1.50286163 C2.32611276,1.3666035 2.32492582,1.23065718 2.32373887,1.09439906 C2.05934718,1.09689349 1.79495549,1.09720529 1.53086053,1.09533447 C1.52908012,1.36753891 1.5272997,1.64005516 1.52551929,1.9122596 C1.79376855,1.91413042 2.06231454,1.91381862 2.33086053,1.91132419 C2.33323442,2.18352864 2.33560831,2.45604488 2.3379822,2.72856113 C2.0652819,2.73105556 1.79287834,2.73136736 1.52017804,2.72949654 C1.51839763,3.00201279 1.51691395,3.27421723 1.51513353,3.54673348 C1.79169139,3.5486043 2.06824926,3.5482925 2.34480712,3.54579807 C2.34391691,3.40953995 2.34243323,3.27328182 2.34154303,3.1370237 C2.61602374,3.13452927 2.89080119,3.12954042 3.1652819,3.12236894 C3.17507418,3.5308315 3.18456973,3.93929407 3.19436202,4.34775664 C2.21186944,4.37363633 1.22878338,4.3708301 0.246290801,4.33933794 C0.254302671,4.0671335 0.262017804,3.79461725 0.270029674,3.52241281 C0.408308605,3.52677806 0.546587537,3.5305197 0.684866469,3.53394954 C0.702670623,2.7170244 0.720178042,1.90009927 0.73768546,1.08317413 C0.605637982,1.0800561 0.473293769,1.07631446 0.341246291,1.07194921 C0.34925816,0.799744763 0.356973294,0.527540319 0.364985163,0.255024072 C1.27537092,0.2843336 2.18664688,0.287139831 3.09732938,0.263130962" id="Fill-32"></path>
                    </g>
                    <path d="M56.7418398,79.9162314 C56.7792285,80.1859414 56.8166172,80.4553396 56.8540059,80.7250497 C56.7228487,80.7450051 56.5916914,80.7646487 56.4605341,80.7833569 L56.884273,84.0217479 C56.6053412,84.0619706 56.3264095,84.1000106 56.047181,84.1355562 C55.405638,83.3625954 54.7878338,82.577786 54.1946588,81.7823753 C54.2436202,82.3557819 54.2928783,82.9295003 54.3421365,83.5029069 C54.479822,83.490123 54.6178042,83.4764036 54.7554896,83.4620607 C54.7807122,83.7333297 54.8062315,84.0042869 54.831454,84.275556 C54.2718101,84.3332396 53.7115727,84.3815691 53.1510386,84.4202328 C53.1338279,84.1486519 53.1169139,83.8767593 53.0997033,83.6048667 C53.2379822,83.5952008 53.3759644,83.585223 53.5142433,83.5743099 C53.4566766,82.7595674 53.3991098,81.9445131 53.3418398,81.1294588 C53.2097923,81.1397483 53.0777448,81.149726 52.9456973,81.1587683 C52.9284866,80.8868757 52.9115727,80.614983 52.894362,80.3434022 C53.284273,80.3162753 53.6738872,80.2841595 54.062908,80.2473667 C54.6412463,81.0446482 55.2439169,81.8310166 55.8703264,82.6055365 C55.804451,82.0340007 55.7382789,81.4621531 55.6724036,80.8906173 C55.5409496,80.9071429 55.4094955,80.9233567 55.2780415,80.9392587 C55.2489614,80.6683014 55.2195846,80.397656 55.1905045,80.1270106 C55.7083086,80.0655853 56.2255193,79.9951177 56.7418398,79.9162314" id="Fill-35" fill="#FFFFFF"></path>
                    <path d="M61.8108902,78.8532933 C61.9070326,79.2492838 62.0028783,79.6452742 62.0990208,80.0412646 C61.8387834,80.1107968 61.578546,80.1781463 61.3174184,80.2436251 C61.2874481,80.1111086 61.2574777,79.9785921 61.2275074,79.8460756 C61.0981306,79.8781914 60.9687537,79.9099953 60.8390801,79.9411757 C61.0129674,80.7378336 61.1871513,81.5341797 61.3610386,82.3308376 C61.4966469,82.2980982 61.6319585,82.2647353 61.7675668,82.2307487 C61.8275074,82.4957817 61.8874481,82.7608146 61.9473887,83.0258476 C61.3978338,83.1633529 60.8464985,83.2915042 60.2936795,83.4103013 C60.2417507,83.1433975 60.189822,82.8764937 60.1378932,82.6095899 C60.274095,82.5802804 60.41,82.5503473 60.545905,82.5201023 C60.384184,81.7206382 60.2221662,80.9214859 60.0604451,80.1220217 C59.9304748,80.1513312 59.8005045,80.1797054 59.6705341,80.2077677 C59.6963501,80.3412196 59.7224629,80.4746715 59.7482789,80.6081234 C59.4859644,80.664248 59.2233531,80.7185018 58.9607418,80.7702612 C58.888635,80.3686583 58.8168249,79.9670554 58.7450148,79.5654525 C59.7723145,79.3627802 60.7948665,79.125186 61.8108902,78.8532933" id="Fill-37" fill="#FFFFFF"></path>
                    <path d="M65.4330861,79.6206417 C65.6532641,79.5451853 65.8731454,79.4681698 66.09273,79.3895953 C66.2215134,79.3434484 66.3164688,79.2586379 66.3767062,79.1357873 C66.4366469,79.0129367 66.4449555,78.8866563 66.4019288,78.7581933 C66.3589021,78.630042 66.2778932,78.5374364 66.1591988,78.4794409 C66.0405045,78.4220691 65.9182493,78.4161448 65.791543,78.4616681 C65.5761128,78.5386836 65.3603858,78.6144519 65.1440653,78.6883493 C65.2405045,78.9992174 65.3366469,79.3097736 65.4330861,79.6206417 M68.2081602,80.1528903 C68.2998516,80.4076337 68.3918398,80.6623772 68.4835312,80.9171206 C67.9502967,81.1297706 67.414095,81.3327547 66.875816,81.5266964 C66.7918398,81.2688349 66.7078635,81.0112853 66.6238872,80.7534238 C66.7318991,80.7144483 66.8396142,80.6754729 66.9473294,80.6358739 C66.7580119,80.4746715 66.5695846,80.3122218 66.3829377,80.1491486 C66.1470326,80.2339592 65.9105341,80.3165871 65.6740356,80.397656 C65.7381306,80.6050053 65.8022255,80.8120428 65.8666172,81.0193921 C65.9995549,80.9738688 66.1324926,80.9277219 66.2654303,80.8809514 C66.3476261,81.1394365 66.429822,81.3976098 66.5120178,81.6560949 C65.9728487,81.8456714 65.4316024,82.0258938 64.8882789,82.1967621 C64.814095,81.9357826 64.7396142,81.6748031 64.6654303,81.4138236 C64.7992582,81.3717301 64.9327893,81.329013 65.0663205,81.2856723 C64.8375371,80.5049164 64.608457,79.7238487 64.3796736,78.9427809 C64.2520772,78.9842508 64.124184,79.025097 63.9962908,79.0653197 C63.9221068,78.8043402 63.8476261,78.5433607 63.7734421,78.2823811 C64.3704748,78.0943636 64.9651335,77.8944976 65.5568249,77.6821594 C65.7218101,77.627282 65.8862018,77.6060794 66.0508902,77.6194869 C66.2152819,77.6328945 66.3704748,77.6740525 66.5152819,77.7429611 C66.660089,77.8121815 66.7900593,77.908217 66.9048961,78.0316911 C67.0194362,78.1551653 67.1066766,78.3007775 67.165727,78.4688396 C67.2351632,78.6655876 67.2571217,78.8629592 67.2301187,79.0597072 C67.2031157,79.256767 67.1384273,79.4388603 67.0363501,79.6056751 C67.3093472,79.8354743 67.5853116,80.0630909 67.8639466,80.2885248 C67.9787834,80.2439369 68.0933234,80.1984136 68.2081602,80.1528903" id="Fill-39" fill="#FFFFFF"></path>
                    <path d="M71.7170623,77.7490413 C71.8215134,77.9813349 71.9259644,78.2133167 72.0304154,78.4456103 C72.1583086,78.3820024 72.2862018,78.3177708 72.414095,78.2529157 C72.5265579,78.4983051 72.6393175,78.7436944 72.7520772,78.9890837 C72.2333828,79.2519341 71.7117211,79.5057421 71.1873887,79.7498843 C71.0823442,79.5010651 70.9772997,79.2519341 70.8722552,79.0028031 C71.0013353,78.942625 71.1304154,78.8818233 71.2594955,78.8203981 C71.1586053,78.5865454 71.0577151,78.3526928 70.9568249,78.1188402 C70.3775964,77.7792862 69.8078635,77.4300663 69.2482196,77.0714923 C69.1470326,77.1167038 69.0461424,77.1616035 68.9449555,77.2058796 C68.8449555,76.954566 68.7449555,76.7032524 68.6449555,76.4519388 C69.134273,76.2367944 69.6212166,76.0132313 70.1054896,75.7809377 C70.2132047,76.0288214 70.3209199,76.2767052 70.4283383,76.524589 C70.3354599,76.5691769 70.2422849,76.613453 70.1488131,76.6574173 C70.429822,76.8298446 70.7132047,76.9997775 70.9989614,77.1675278 C71.0642433,76.829221 71.1262611,76.491226 71.1853116,76.153231 C71.09273,76.1996898 71.0001484,76.2458367 70.9075668,76.29136 C70.797181,76.0447234 70.687092,75.7983987 70.577003,75.5517621 C71.0594955,75.313856 71.5390208,75.0672195 72.0158754,74.8118524 C72.1336795,75.0547474 72.2511869,75.2973305 72.3689911,75.5402254 C72.2704748,75.5929202 72.1716617,75.6453032 72.0728487,75.6973743 C71.9669139,76.3799122 71.8482196,77.064009 71.7170623,77.7490413" id="Fill-41" fill="#FFFFFF"></path>
                    <mask id="mask-4" fill="white">
                        <use xlink:href="#path-3"></use>
                    </mask>
                    <g id="Clip-44"></g>
                    <polygon id="Fill-43" fill="#FFFFFF" mask="url(#mask-4)" points="0 62.6229241 16.2486647 62.6229241 16.2486647 61.0639066 0 61.0639066"></polygon>
                    <polygon id="Fill-45" fill="#FFFFFF" mask="url(#mask-4)" points="83.4738872 62.6229241 99.7228487 62.6229241 99.7228487 61.0639066 83.4738872 61.0639066"></polygon>
                    <path d="M45.3429377,61.1068732 C45.2800297,61.7111483 45.162819,62.3219713 45.0491691,62.9131508 C44.9447181,63.4566242 44.8367062,64.0191177 44.7690504,64.5828584 L44.7681602,64.5953306 C44.7556973,64.7727468 44.6019881,64.8943501 44.5114837,64.9514102 L44.3803264,65.0355971 C44.0809199,65.2289153 43.7978338,65.4119439 43.4913056,65.3639262 L43.4598516,65.3617435 C43.2482789,65.3604963 43.0948665,65.1241493 43.0678635,64.8868668 C42.9197923,63.9124809 43.2289911,62.9405895 43.5278042,62.0008138 C43.5800297,61.8371169 43.6316617,61.6740437 43.6815134,61.5100351 C43.8008012,61.1053141 43.9705341,60.6744017 44.3171217,60.5493685 C44.3918991,60.5253597 44.4752819,60.5141347 44.5610386,60.5141347 C44.7806231,60.5141347 45.0168249,60.588344 45.1690504,60.716807 C45.2975371,60.8256264 45.3542136,60.9553367 45.3429377,61.1068732 M52.7088131,60.5705712 C52.3010979,61.7373398 51.3094065,62.5901223 50.2399703,62.7248215 C50.2402671,62.7213916 50.2405638,62.7173382 50.2411573,62.7132847 C50.2654896,62.4582295 50.288635,62.2175172 50.4177151,62.0338649 C50.7844807,61.4772957 51.2895252,60.9731095 51.9251335,60.5315957 C52.1319585,60.4018855 52.3450148,60.2684336 52.5488724,60.2684336 C52.574095,60.2684336 52.5993175,60.2703044 52.6245401,60.2746697 C52.7064392,60.323311 52.7488724,60.4620635 52.7088131,60.5705712 M56.8088131,62.341615 C57.0177151,61.7011706 57.2948665,61.0853587 57.7690504,60.6606824 C58.0518398,60.4103042 58.4981306,60.2727988 58.7835905,60.4770301 C58.8533234,60.5425088 58.837003,60.6853148 58.8013947,60.9038891 C58.7245401,61.3304363 58.3927893,61.7245559 57.9094065,61.9605911 C57.5604451,62.1411253 57.1761721,62.2533746 56.8088131,62.341615 M76.9010979,62.8835294 C76.8936795,62.841436 76.8865579,62.7996543 76.8815134,62.7578726 L76.8654896,62.6216145 L76.7450148,62.5698551 C76.3705341,62.4102117 76.0132641,62.6347102 75.8307715,62.9218813 C75.3666766,63.5872699 74.8432344,64.1690952 74.2818101,64.6455309 C74.014451,64.8547511 73.7064392,65.0274902 73.3497626,65.1681136 C73.6533234,64.4992951 73.6352226,63.7606326 73.5832938,63.3178717 C73.4921958,62.5997883 73.1755786,61.9739987 72.8690504,61.3684763 C72.7812166,61.1951135 72.6936795,61.0223744 72.6183086,60.862731 C72.4675668,60.4757829 72.4539169,60.2225985 72.5773591,60.0638905 C72.6402671,59.980639 72.7533234,59.9410399 72.8838872,59.8952048 C73.0260237,59.8453163 73.1871513,59.7888798 73.3105935,59.6713299 C73.4536202,59.5550272 73.6117804,59.3392592 73.6248368,59.0813977 C73.6331454,58.912712 73.5737982,58.7555631 73.4764688,58.660463 C73.1464985,58.2354749 72.6162315,58.4434478 72.3361128,58.5538262 C71.2797329,58.9432688 70.5663798,59.9173429 70.0645994,60.7202368 C69.8097033,61.1168509 69.562819,61.5268725 69.3242433,61.9231747 C68.9969436,62.4666482 68.658368,63.0288299 68.3108902,63.5417466 L68.1361128,63.7559556 C67.6832938,64.3112776 67.2153412,64.8856196 66.6102967,65.2370221 C66.2102967,65.4749282 65.7105935,65.5151509 65.3132641,65.3442825 C65.1536202,65.2682025 65.084184,65.0624122 65.0735015,64.9118111 C65.0447181,64.4310101 65.1070326,63.937737 65.2586647,63.4475819 C65.6601484,62.1832188 66.2292878,61.1065614 66.9352226,60.2643801 C67.1114837,60.0913292 67.1856677,59.8163185 67.1245401,59.5634459 C67.0702374,59.339571 66.9138576,59.1727561 66.7064392,59.1166315 L66.6666766,59.1100836 C66.3420475,59.0870102 66.068457,59.2213975 65.8236499,59.3405064 C65.7604451,59.3716868 65.6972404,59.4022435 65.645905,59.4250052 C65.1189021,59.6176997 64.4868546,59.5805951 63.7180119,59.3118205 C63.6791395,58.9663422 63.6340356,58.5756525 63.4189021,58.2476352 C63.2464985,57.9822904 62.935816,57.8373018 62.6022849,57.8700412 C62.2850742,57.9015333 62.025727,58.0886154 61.9168249,58.3524012 C61.6248368,58.9105294 61.9111869,59.4936019 62.2963501,59.8771202 C62.3497626,60.2918188 62.358368,60.6270076 62.3242433,60.9213501 C62.2206825,61.6453578 61.8325519,62.2988979 61.4577745,62.9312354 L61.3818101,63.0606338 C60.5815134,64.2286497 59.5224629,65.0115882 58.3981306,65.2663317 C57.8091098,65.4057078 57.1488724,65.4970663 56.7420475,65.1313208 C56.431365,64.7895841 56.4402671,64.2645071 56.5010979,63.7681159 C57.835816,63.6081607 58.9990208,62.9998321 59.7132641,62.0828181 C60.16727,61.4950685 60.3408605,60.7688782 60.1746884,60.1315519 C59.9657864,59.4287468 59.2889318,59.0642485 58.7108902,59.0149836 C57.8871513,58.942957 57.0304748,59.3155621 56.4755786,59.9831334 C55.9067359,60.6715955 55.5028783,61.5805027 55.2447181,62.7482067 C55.2171217,62.8454894 55.2031751,62.9418367 55.1904154,63.0350659 C55.1678635,63.1909677 55.1488724,63.3256668 55.0565875,63.4217022 L54.9767656,63.522103 C54.4708309,64.1541286 53.9479822,64.8079805 53.2874481,65.2532359 C53.0951632,65.3888704 52.7568843,65.4786698 52.6114837,65.261031 C52.3485757,64.8397845 52.1981306,64.3627252 52.0381899,63.8576035 C51.9862611,63.6920359 51.9337389,63.5264682 51.8773591,63.3624596 C51.9488724,63.3156891 52.0230564,63.2701658 52.099911,63.223707 C52.2865579,63.1102106 52.4800297,62.9926606 52.65273,62.8330173 C53.2497626,62.2895438 53.6651929,61.6266496 53.8545104,60.9126196 C54.0067359,60.2955605 53.9453116,59.7723542 53.6755786,59.3972546 C53.3904154,59.0081239 52.8565875,58.8363202 52.3186053,58.9557409 C51.668457,59.0885692 51.130178,59.449014 50.7132641,59.84251 C50.9613353,58.5422895 51.1924926,57.2090178 51.2678635,55.866392 C51.2827003,55.5259026 51.0509496,55.2593106 50.7046588,55.2184643 C50.3764688,55.1804243 49.9936795,55.3559697 49.9230564,55.7697329 C49.8230564,56.5822928 49.7005045,57.5457655 49.55273,58.5217105 C49.3025816,59.9058061 49.1183086,61.3217058 48.9399703,62.6908349 L48.8936795,63.0490971 C48.8847774,63.1669588 48.7975371,63.2742192 48.6966469,63.398317 C48.6539169,63.4510118 48.6117804,63.5033948 48.5824036,63.5451764 L48.5108902,63.6352876 C47.9678635,64.3168901 47.4061424,65.0218777 46.6660831,65.3608081 C46.5536202,65.39916 46.4551039,65.3813872 46.3645994,65.3049953 C46.2076261,65.1718552 46.1022849,64.8831252 46.1254303,64.6439719 C46.1735015,64.0618348 46.3061424,63.4756442 46.4340356,62.9090973 C46.5408605,62.4370268 46.6512463,61.9487426 46.7111869,61.4801019 C46.7539169,61.3023739 46.789822,61.1227751 46.8260237,60.9431763 C46.8993175,60.5749364 46.9687537,60.2272755 47.099911,59.891775 C47.1551039,59.7374322 47.2111869,59.5335128 47.1521365,59.3196156 L47.1375964,59.2803283 C47.0289911,59.0511528 46.8061424,58.9011753 46.5420475,58.8787254 C46.2687537,58.8547166 46.0097033,58.9750727 45.8568843,59.1995712 C45.8005045,59.2918651 45.7619288,59.3897714 45.7319585,59.4858068 C45.1147478,59.000017 44.2666766,58.8983691 43.5835905,59.2662972 C42.9420475,59.6625994 42.4595549,60.3601038 42.2681602,61.1533319 C42.0643027,61.702106 41.9067359,62.2926618 41.7856677,62.966781 C41.7554006,63.1735067 41.6094065,63.3478048 41.4551039,63.5323925 C41.3844807,63.6165794 41.3147478,63.7004546 41.2645994,63.7731048 C41.1450148,63.9174698 41.0281009,64.0671355 40.9108902,64.2177365 C40.4782493,64.7727468 40.0310682,65.3464652 39.4177151,65.6317654 C38.9853709,65.8275779 38.6625223,65.8403619 38.4503561,65.6629457 C38.2254303,65.4914538 38.1399703,65.150029 38.188635,64.6237047 C38.2954599,63.6480716 38.4791395,62.6646434 38.6565875,61.7133309 C38.8189021,60.8443346 38.9865579,59.945717 39.0978338,59.0442931 C39.157181,58.4817996 39.182997,57.8291949 38.9186053,57.2479932 C38.5462018,56.4834511 37.6408605,56.0466144 36.8236499,56.231202 C36.3221662,56.3166362 35.8476855,56.5875934 35.3877448,57.054675 C35.4788427,56.4834511 35.5197923,55.9013139 35.3933828,55.3135644 C35.16727,54.3741005 34.1773591,53.7283555 33.2399703,53.8964175 C32.1862611,54.049513 31.425727,54.8489772 30.9530267,55.5408691 C30.8895252,55.1844777 30.7877448,54.8187322 30.6016914,54.4807373 C30.0278042,53.5462622 29.1162315,52.9145484 28.1643027,52.7904506 C26.7640059,52.5986914 25.3177151,53.167421 24.4835905,54.2331653 C23.8666766,54.9789992 23.5298813,55.9515143 23.5601484,56.8919136 C23.5568843,57.8535156 23.8275074,58.7181466 24.3245401,59.3299051 C24.7663798,59.8531113 25.3794362,60.1867411 26.0028783,60.2447365 C26.231365,60.2690572 26.4880415,60.1586788 26.6384866,59.9684786 C26.7619288,59.8125769 26.8013947,59.6242476 26.751543,59.4471432 C26.6619288,59.0801505 26.335816,59.0087475 26.120089,58.9613534 C26.0643027,58.949193 26.0091098,58.9379681 25.9488724,58.9167655 C25.3070326,58.728748 24.9325519,58.0359206 24.8429377,57.4154317 C24.6945697,56.731023 24.8411573,56.0020265 25.2562908,55.3631411 C25.694273,54.6883984 26.3815134,54.2185105 27.11,54.1031432 C27.6907122,53.9671969 28.3494659,54.1137446 28.8720178,54.4963274 C29.3438279,54.8411821 29.6417507,55.3288427 29.7147478,55.886971 C29.945905,57.0050983 29.7316617,58.1553414 29.5245401,59.2678562 C29.4509496,59.6635348 29.3746884,60.0732446 29.321276,60.4636226 C29.1809199,61.1854476 29.0539169,61.9213039 28.931365,62.6331512 C28.6948665,64.004463 28.4500593,65.4225452 28.1088131,66.7586232 C28.0025816,67.0292686 28.0895252,67.3448137 28.3159347,67.5085105 L28.3714243,67.5378201 C28.4708309,67.5727421 28.5779525,67.5917621 28.6847774,67.5914503 C28.9791395,67.5914503 29.2702374,67.4498915 29.3874481,67.1193798 C29.498724,66.7788904 29.5551039,66.4274879 29.6094065,66.0879339 C29.641454,65.887756 29.6732047,65.6872664 29.7174184,65.4874003 C29.9260237,64.4830813 30.162819,63.2929274 30.331365,62.0937312 C30.4132641,61.6933755 30.4865579,61.2892782 30.5601484,60.8845573 C30.8002077,59.5615751 31.0485757,58.1930696 31.6141543,56.9776596 C31.8702374,56.4656783 32.2859644,55.741047 32.9420475,55.3597113 C33.2447181,55.1788653 33.71,55.1548564 33.9705341,55.4641655 C34.1779525,55.723586 34.1364095,56.1155229 34.0966469,56.4943642 L34.084184,56.6159675 C33.9491691,57.5809993 33.7678635,58.557256 33.5924926,59.501397 C33.4921958,60.0420643 33.3918991,60.5827315 33.3013947,61.1127974 C33.1025816,61.9976957 32.9536202,62.9050439 32.8094065,63.7821471 C32.6711276,64.6243283 32.5278042,65.4948836 32.3405638,66.3454835 C32.3316617,66.3900714 32.3180119,66.4346593 32.3049555,66.4789354 C32.2669733,66.6058395 32.220089,66.7629884 32.2562908,66.9597364 C32.2978338,67.1137673 32.3978338,67.2434776 32.5375964,67.3239229 C32.6933828,67.4140341 32.8880415,67.4358603 33.0521365,67.3847246 C33.361632,67.2971078 33.56727,67.0068187 33.6660831,66.5066859 C33.730178,66.0177781 33.8307715,65.5238814 33.9281009,65.0458866 C33.9806231,64.7886487 34.0331454,64.5310991 34.0794362,64.2797854 C34.1767656,63.8223697 34.2536202,63.3555999 34.3278042,62.9044203 C34.4209792,62.3391205 34.5174184,61.7548008 34.6542136,61.1919955 C34.857181,60.3420192 35.1221662,59.3732458 35.7037685,58.6345833 L35.7242433,58.60808 C36.0034718,58.2501296 36.2921958,57.8797071 36.6678635,57.6807764 C36.9239466,57.5479482 37.2803264,57.4774806 37.5337389,57.6963666 C37.8126706,57.8834487 37.804362,58.28131 37.7637092,58.7914205 C37.6708309,59.6148935 37.5114837,60.447097 37.357181,61.2521736 C37.1304748,62.4348442 36.8963501,63.6580493 36.861632,64.8927911 C36.8340356,65.4284695 36.9939763,65.9775554 37.3073294,66.4075324 C37.8325519,67.063567 38.7818101,67.296796 39.6242433,66.9703377 C40.3384866,66.6591578 41.0037685,66.122544 41.6476855,65.3367993 C41.7218694,65.6794713 41.8577745,66.0286912 42.1227596,66.298713 C42.5049555,66.7090464 43.1194955,66.8983111 43.8126706,66.8163068 C44.2966469,66.7498927 44.674095,66.4739466 45.0393769,66.2070428 C45.11,66.1552834 45.1809199,66.103524 45.2521365,66.0539473 C45.445905,66.2899825 45.6663798,66.5531447 46.0227596,66.6257949 C46.7447181,66.7611176 47.5346291,66.4655279 48.1939763,65.8166648 C48.2770623,65.7324779 48.3631157,65.6507854 48.4494659,65.5690929 C48.4815134,65.5385361 48.5141543,65.5076676 48.5464985,65.476799 C48.5052522,65.703792 48.4743917,65.9363974 48.4651929,66.1771097 C48.468457,66.4268643 48.6180119,66.6441913 48.8556973,66.7436566 C49.115638,66.8527878 49.41,66.7957278 49.5838872,66.6083339 C49.8150445,66.3729222 49.8426409,66.048023 49.8660831,65.7730123 C49.8880415,65.403837 49.9441246,65.027802 49.9981306,64.6639273 C50.0304748,64.4475357 50.0634125,64.2255316 50.0901187,64.0019685 C50.2720178,64.0000977 50.4565875,63.9826367 50.6390801,63.9399196 C50.8340356,64.5123908 51.0304748,65.0854857 51.2372997,65.6570214 C51.5292878,66.4181338 52.3010979,66.8577767 53.035816,66.6772425 C53.9108902,66.4820535 54.5488724,65.8540812 55.1586647,65.2298507 C55.221276,65.4711866 55.3085163,65.7143933 55.458368,65.9254842 C55.7589614,66.3763521 56.2681602,66.6859729 56.820089,66.7530107 C58.2930861,66.94134 59.8361128,66.4571092 60.9393769,65.4637033 C61.6340356,64.8840606 62.1821068,64.2535939 62.5610386,63.6000538 C63.2447181,62.5614364 63.6168249,61.6054469 63.6927893,60.6874975 C64.0797329,60.7869628 64.4779525,60.8318625 64.8592582,60.8221966 C64.4310682,61.5421508 64.1420475,62.2278067 63.9794362,62.9037967 C63.7420475,63.779029 63.5467953,64.6355532 63.7625223,65.4833469 C63.9239466,66.1802277 64.5580712,66.7218303 65.2568843,66.7704717 C66.2224629,66.9001819 67.2512463,66.5487794 68.0067359,65.8363084 C68.8812166,65.043704 69.5456083,64.1796965 69.9699407,63.290433 C70.1233531,63.0406784 70.2711276,62.7871821 70.4189021,62.5330623 C70.7028783,62.0457135 70.9939763,61.5452689 71.3251335,61.0831761 C71.4289911,61.4829082 71.6022849,61.8523953 71.7714243,62.2131519 C71.8996142,62.4866036 72.0203858,62.7444651 72.1105935,63.0057564 C72.3260237,63.7085615 72.2972404,64.4241505 72.0334421,64.9648177 C71.914451,65.1986703 71.6809199,65.368915 71.4082196,65.4206744 C71.1488724,65.4693157 70.8954599,65.4032134 70.6936795,65.2186257 C70.631365,65.1743496 70.5726113,65.0836148 70.5105935,64.9875794 C70.3758754,64.7792946 70.1761721,64.4640613 69.7432344,64.559785 C69.5046588,64.6383595 69.3378932,64.8220117 69.2735015,65.0767552 C69.1933828,65.3966655 69.288635,65.779872 69.5085163,66.0280676 C70.0832938,66.6971979 70.9862611,66.7957278 71.6227596,66.8116298 C73.1874481,66.7957278 74.6447181,66.1864638 75.6183086,65.1425457 L75.6456083,65.1144834 C76.1221662,64.6180922 76.6147478,64.1045519 76.9028783,63.4017468 C76.9574777,63.2127939 76.9272107,63.0378722 76.9010979,62.8835294" id="Fill-46" fill="#FFFFFF" mask="url(#mask-4)"></path>
                </g>
            </g>
        </g>
    </g>
</svg>