<?xml version="1.0" encoding="UTF-8" standalone="no"?>
<!DOCTYPE svg PUBLIC "-//W3C//DTD SVG 1.1//EN" "http://www.w3.org/Graphics/SVG/1.1/DTD/svg11.dtd">
<svg width="100%" height="100%" viewBox="0 0 480 480" version="1.1" xmlns="http://www.w3.org/2000/svg" xmlns:xlink="http://www.w3.org/1999/xlink" xml:space="preserve" style="fill-rule:evenodd;clip-rule:evenodd;stroke-linejoin:round;stroke-miterlimit:1.41421;">
    <g id="Imago">
        <g id="Fill-1" transform="matrix(1.01483,1.66723e-18,1.66723e-18,1.00803,-0.437037,-0.000507805)">
            <path d="M73.46,13.752C70.34,12.166 68.64,10.343 67.833,9.545C67.166,8.883 66.291,7.596 65.767,6.707C66.076,6.41 66.317,6.173 66.444,6.045C66.937,5.543 63.562,0.12 63.094,0.516C62.819,0.749 62.418,1.069 61.968,1.426C61.536,0.695 61.168,-0.174 60.724,0.031C60.23,0.267 57.441,2.271 56.48,3.17C55.52,4.07 55.124,4.537 55.124,4.537C55.296,4.777 55.653,5.257 56.101,5.854C54.806,6.744 53.328,7.87 52.096,9.38C49.866,12.128 46.539,16.28 45.145,17.381C44.559,17.849 43.895,18.486 43.202,19.123C44.833,19.771 46.41,20.546 47.918,21.443C50.028,19.922 51.808,18.983 52.823,18.154C53.63,17.497 57.913,13.636 60.521,11.35C61.323,12.056 62.064,12.382 62.291,13.121C62.564,13.985 62.439,17.64 62.515,20.564C62.591,23.489 61.174,26.119 60.875,26.62C60.577,27.12 67.724,27.863 72.798,23.958C77.866,20.052 79.586,15.393 79.212,15.095C78.848,14.796 76.591,15.335 73.46,13.751" style="fill:rgb(254,254,254);"/>
        </g>
        <g id="Fill-4" transform="matrix(1.01483,1.66723e-18,1.66723e-18,1.00803,-0.437037,-0.000507805)">
            <path d="M52.706,30.133C51.229,28.898 49.732,27.546 48.502,26.56C45.859,24.43 41.433,22.09 39.572,21.39C37.712,20.689 35.895,18.65 34.479,17.586C33.057,16.525 29.683,12.375 27.371,9.689C26.123,8.234 24.635,7.167 23.325,6.324C23.775,5.702 24.133,5.198 24.303,4.951C24.463,3.999 23.791,4.49 22.809,3.616C21.821,2.742 18.952,0.889 18.453,0.669C17.987,0.464 17.638,1.352 17.205,2.103C16.811,1.827 16.423,1.542 16.042,1.248C15.565,0.868 12.352,6.353 12.857,6.838C12.982,6.958 13.218,7.166 13.523,7.426C13.063,8.356 12.358,9.699 11.724,10.369C10.944,11.185 9.276,13.079 6.194,14.749C3.106,16.422 0.834,15.908 0.476,16.217C0.239,16.425 0.91,18.507 2.983,21.025C4.006,22.268 5.41,23.535 7.123,24.78C8.953,26.108 10.974,26.95 12.875,27.333C16.357,28.033 19.287,27.475 19.083,27.157C18.774,26.666 17.255,24.084 17.244,21.159C17.239,18.236 17.02,14.577 17.264,13.709C17.485,12.939 18.281,12.611 19.089,11.842C20.135,12.646 21.164,13.472 22.176,14.319C24.326,16.128 26.331,18.076 26.882,18.498C27.945,19.32 29.942,20.038 32.172,21.577C32.942,22.109 34.09,23.033 35.375,23.937C33.956,24.843 32.525,25.852 31.415,26.797C28.827,28.997 24.655,32.503 23.313,34.25C21.973,36 25.001,39.956 25.864,40.585C26.727,41.218 28.208,38.32 28.952,36.773C29.702,35.227 31.399,33.631 32.929,32.28C34.47,30.923 37.552,28.322 38.546,27.719C38.771,27.583 39.258,27.272 39.899,26.857C40.586,27.295 41.116,27.63 41.355,27.766C42.37,28.341 45.692,30.616 47.266,31.929C48.839,33.239 50.579,34.852 51.371,36.379C52.152,37.907 53.551,40.739 54.402,40.082C55.248,39.428 58.122,35.55 56.732,33.838C55.99,32.92 54.414,31.562 52.706,30.133" style="fill:rgb(254,254,254);"/>
        </g>
    </g>
    <g id="Logo">
        <g id="Fill-11" transform="matrix(1.00278,-1.55568e-18,-1.55568e-18,1.00913,96,-0.314291)">
            <path d="M21.3,24.46C21.175,24.696 21.045,24.868 20.908,24.977C20.742,25.121 20.543,25.223 20.329,25.273L20.286,42.683C20.286,42.897 20.32,43.045 20.387,43.124C20.455,43.204 20.534,43.273 20.625,43.329C20.805,43.442 20.987,43.609 21.168,43.829C21.348,44.049 21.438,44.339 21.438,44.702L21.434,46.079C19.335,46.276 17.238,46.495 15.144,46.736L15.148,45.321C15.148,44.948 15.239,44.631 15.421,44.371C15.603,44.111 15.785,43.907 15.966,43.758C16.068,43.692 16.156,43.606 16.222,43.504C16.278,43.411 16.307,43.256 16.308,43.037L16.337,30.697C16.337,30.674 16.331,30.651 16.32,30.631C16.308,30.611 16.28,30.644 16.234,30.733C15.591,32.089 14.954,33.447 14.321,34.808C13.851,35.791 13.39,36.779 12.938,37.77L12.444,38.858C12.307,39.158 12.227,39.343 12.205,39.412C12.137,39.574 11.955,39.707 11.661,39.812C11.359,39.918 11.046,39.985 10.727,40.013C10.398,40.043 10.087,40.039 9.793,39.999C9.499,39.959 9.318,39.864 9.25,39.712C9.154,39.55 9.069,39.382 8.997,39.209C8.842,38.874 8.678,38.544 8.507,38.217C8.303,37.827 8.083,37.391 7.846,36.909C7.605,36.418 7.373,35.923 7.152,35.423C6.52,34.112 5.899,32.796 5.289,31.475C5.266,31.43 5.239,31.408 5.204,31.41C5.171,31.412 5.154,31.471 5.154,31.586L5.14,44.242C5.14,44.473 5.174,44.632 5.241,44.714C5.309,44.798 5.388,44.88 5.478,44.961C5.658,45.075 5.839,45.248 6.02,45.477C6.2,45.707 6.29,46.015 6.29,46.406L6.288,47.886C4.198,48.19 2.111,48.515 0.026,48.862L0.026,47.324C0.026,46.919 0.116,46.572 0.296,46.283C0.476,45.994 0.657,45.766 0.838,45.598C0.928,45.513 1.002,45.42 1.058,45.318C1.114,45.215 1.154,45.068 1.177,44.875L1.182,25.6C0.961,25.561 0.759,25.453 0.604,25.291C0.445,25.176 0.309,24.989 0.196,24.728C0.083,24.468 0.026,24.136 0.026,23.73L0.026,22.12L4.653,22.12C4.97,22.12 5.208,22.293 5.367,22.64C7.111,26.555 8.896,30.452 10.72,34.33C12.445,30.405 14.21,26.498 16.015,22.61C16.105,22.413 16.276,22.282 16.526,22.217C16.776,22.151 16.991,22.118 17.173,22.118L21.493,22.118L21.49,23.56C21.49,23.923 21.426,24.222 21.3,24.458L21.3,24.46Z" style="fill:white;"/>
        </g>
        <g id="Fill-3" transform="matrix(1.00278,-1.55568e-18,-1.55568e-18,1.00913,96,-0.314291)">
            <path d="M31.875,36.333C32.169,36.323 32.295,36.205 32.25,35.98C31.98,34.566 31.711,33.15 31.442,31.73C31.331,31.207 31.23,30.682 31.139,30.155C31.049,29.64 30.965,29.176 30.886,28.763C30.807,28.351 30.746,28.016 30.701,27.757C30.674,27.618 30.652,27.479 30.634,27.339L30.566,27.339C30.566,27.36 30.531,27.573 30.463,27.979C30.393,28.384 30.301,28.899 30.187,29.523C30.072,30.147 29.946,30.83 29.807,31.57C29.67,32.311 29.537,33.006 29.412,33.654C29.285,34.303 29.182,34.858 29.102,35.318C29.021,35.779 28.981,36.041 28.981,36.103C28.958,36.25 28.974,36.343 29.031,36.383C29.088,36.422 29.241,36.436 29.491,36.426C30.286,36.392 31.08,36.361 31.875,36.333M37.759,42.424C37.941,42.52 38.117,42.677 38.287,42.895C38.457,43.114 38.542,43.395 38.542,43.742L38.54,44.963C36.436,45.041 34.333,45.14 32.231,45.261L32.234,44.148C32.234,43.798 32.274,43.527 32.354,43.337C32.434,43.147 32.526,42.993 32.628,42.875C32.73,42.756 32.827,42.638 32.918,42.52C33.013,42.388 33.062,42.228 33.055,42.066C32.943,41.516 32.865,41.056 32.82,40.687C32.775,40.318 32.73,40.027 32.685,39.812C32.64,39.598 32.578,39.446 32.499,39.356C32.419,39.267 32.299,39.226 32.141,39.232L31.869,39.244C30.915,39.286 29.961,39.331 29.007,39.379C28.803,39.389 28.655,39.419 28.564,39.465C28.474,39.511 28.416,39.629 28.394,39.817C28.37,39.923 28.353,40.112 28.341,40.383C28.327,40.668 28.298,40.951 28.254,41.233C28.207,41.569 28.161,41.937 28.115,42.336C28.115,42.566 28.153,42.736 28.233,42.845C28.313,42.955 28.391,43.069 28.471,43.189C28.55,43.309 28.629,43.45 28.708,43.611C28.788,43.773 28.826,44.021 28.826,44.353L28.823,45.478C26.756,45.62 24.69,45.784 22.626,45.97L22.629,44.695C22.629,44.375 22.686,44.121 22.801,43.931C22.914,43.741 23.04,43.577 23.176,43.44C23.313,43.301 23.455,43.163 23.603,43.025C23.75,42.886 23.858,42.72 23.927,42.525C24.569,39.685 25.212,36.867 25.854,34.067C26.083,33.028 26.318,32.007 26.558,31.004C26.799,30.002 27.011,29.106 27.195,28.318C27.378,27.53 27.526,26.89 27.642,26.398C27.756,25.905 27.813,25.648 27.813,25.628L27.813,25.471C27.82,25.321 27.765,25.174 27.661,25.065C27.546,24.948 27.433,24.828 27.322,24.707C27.184,24.553 27.07,24.379 26.983,24.192C26.881,23.984 26.831,23.67 26.832,23.25L26.835,22.119C28.037,22.119 29.018,22.114 29.778,22.103C30.538,22.093 31.144,22.129 31.598,22.212C32.051,22.294 32.385,22.433 32.601,22.629C32.815,22.825 32.979,23.118 33.092,23.509C33.114,23.59 33.188,23.915 33.312,24.479C33.435,25.045 33.598,25.763 33.801,26.635C34.285,28.722 34.758,30.812 35.219,32.905C35.804,35.535 36.481,38.502 37.249,41.8C37.283,41.941 37.353,42.07 37.453,42.175C37.543,42.265 37.645,42.347 37.759,42.425" style="fill:white;"/>
        </g>
        <g id="Fill-5" transform="matrix(1.00278,-1.55568e-18,-1.55568e-18,1.00913,96,-0.314291)">
            <path d="M48.574,26.962C48.574,26.699 48.557,26.452 48.524,26.22C48.496,26.004 48.42,25.798 48.302,25.615C48.179,25.436 48.008,25.295 47.809,25.207C47.593,25.106 47.304,25.056 46.941,25.056L45.069,25.059C44.91,25.059 44.791,25.105 44.711,25.196C44.633,25.284 44.59,25.398 44.592,25.515L44.582,41.496C44.581,41.78 44.74,41.919 45.058,41.914C45.684,41.906 46.309,41.899 46.935,41.894C47.298,41.892 47.588,41.834 47.805,41.722C48.02,41.611 48.185,41.468 48.299,41.296C48.413,41.124 48.487,40.922 48.521,40.69C48.555,40.458 48.572,40.22 48.572,39.978L48.574,26.962M46.942,22.118C48.892,22.118 50.31,22.562 51.195,23.45C52.08,24.339 52.523,25.53 52.523,27.025L52.528,39.867C52.529,41.362 52.086,42.548 51.199,43.431C50.312,44.316 48.889,44.754 46.934,44.771C44.42,44.794 41.906,44.848 39.393,44.933L39.394,43.713C39.394,43.266 39.464,42.923 39.601,42.685C39.737,42.448 39.919,42.275 40.147,42.166C40.42,42.058 40.557,41.841 40.557,41.516L40.576,25.529C40.59,25.227 40.413,24.946 40.134,24.83C39.658,24.609 39.42,24.142 39.421,23.43L39.423,22.118L46.942,22.118" style="fill:white;"/>
        </g>
        <g id="Fill-7" transform="matrix(1.00278,-1.55568e-18,-1.55568e-18,1.00913,96,-0.314291)">
            <path d="M59.398,25.212C59.315,25.286 59.266,25.391 59.262,25.502L59.269,31.262C59.269,31.546 59.429,31.69 59.746,31.694C61.063,31.713 62.38,31.735 63.697,31.761C63.81,31.763 63.93,31.801 64.055,31.876C64.179,31.95 64.242,32.069 64.243,32.233C64.243,32.951 64.245,33.668 64.246,34.385C64.247,34.673 64.077,34.811 63.736,34.802C62.407,34.767 61.079,34.738 59.75,34.713C59.432,34.708 59.273,34.847 59.274,35.132L59.282,41.592C59.282,41.735 59.339,41.848 59.452,41.932C59.549,42.011 59.669,42.057 59.794,42.064C60.783,42.094 61.772,42.127 62.76,42.164C62.987,42.173 63.135,42.056 63.203,41.814C63.316,41.368 63.537,41.07 63.866,40.918C64.196,40.768 64.621,40.702 65.144,40.723L66.337,40.775L66.344,44.451C66.352,44.662 66.257,44.864 66.089,44.993C65.909,45.13 65.684,45.195 65.459,45.175C61.687,44.976 57.911,44.849 54.134,44.793L54.134,43.581C54.133,43.136 54.195,42.799 54.32,42.568C54.445,42.338 54.62,42.173 54.849,42.075C54.973,42.028 55.079,41.945 55.155,41.837C55.245,41.717 55.292,41.587 55.292,41.445L55.279,25.517C55.279,25.193 55.12,24.96 54.803,24.817C54.595,24.713 54.423,24.549 54.309,24.347C54.184,24.134 54.121,23.827 54.121,23.422L54.121,22.118L65.211,22.118C65.461,22.118 65.705,22.206 65.943,22.381C66.182,22.556 66.301,22.726 66.301,22.891L66.308,26.381L64.948,26.368C64.471,26.363 64.096,26.258 63.823,26.05C63.551,25.844 63.357,25.647 63.243,25.463C63.129,25.217 62.891,25.093 62.528,25.091C61.587,25.085 60.645,25.081 59.703,25.077C59.587,25.078 59.476,25.127 59.398,25.212" style="fill:white;"/>
        </g>
        <g id="Fill-9" transform="matrix(1.00278,-1.55568e-18,-1.55568e-18,1.00913,96,-0.314291)">
            <path d="M76.86,27.226C76.857,26.566 76.658,26.063 76.26,25.718C75.862,25.373 75.38,25.198 74.813,25.192L73.452,25.178C73.179,25.175 73.044,25.32 73.045,25.614L73.059,31.818C73.059,31.986 73.099,32.102 73.179,32.168C73.259,32.234 73.344,32.268 73.435,32.271C74.013,32.291 74.592,32.311 75.17,32.333C75.873,32.358 76.332,32.201 76.548,31.858C76.762,31.516 76.868,31.025 76.867,30.386L76.859,27.226M81.184,43.329C81.365,43.454 81.524,43.626 81.661,43.844C81.797,44.064 81.866,44.358 81.867,44.727L81.871,46.487C80.772,46.369 79.673,46.257 78.573,46.151C77.983,46.093 77.54,45.881 77.244,45.514C76.954,45.162 76.796,44.718 76.799,44.262L76.782,37.179C76.78,36.562 76.648,36.098 76.387,35.787C76.125,35.477 75.642,35.304 74.94,35.271L73.51,35.206C73.215,35.193 73.068,35.334 73.069,35.628L73.084,42.24C73.085,42.451 73.114,42.6 73.17,42.687C73.236,42.785 73.324,42.866 73.426,42.926C73.608,43.064 73.79,43.256 73.972,43.501C74.154,43.746 74.246,44.048 74.247,44.406L74.25,45.766C72.15,45.594 70.05,45.444 67.948,45.316L67.945,43.983C67.945,43.631 68.034,43.347 68.215,43.129C68.369,42.936 68.553,42.768 68.76,42.632C68.85,42.575 68.93,42.507 68.998,42.428C69.066,42.348 69.099,42.216 69.098,42.029L69.063,25.541L69.063,25.137C69.062,25.033 69.005,24.96 68.891,24.917C68.669,24.779 68.469,24.611 68.295,24.416C68.079,24.187 67.971,23.866 67.97,23.452L67.967,22.119L75.145,22.119C75.985,22.119 76.75,22.252 77.443,22.519C78.135,22.787 78.725,23.159 79.215,23.634C79.708,24.116 80.092,24.698 80.342,25.34C80.603,26.002 80.736,26.734 80.738,27.534L80.745,30.517C80.755,31.157 80.653,31.795 80.444,32.4C80.257,32.94 79.915,33.414 79.46,33.76C79.189,33.963 79.2,34.178 79.496,34.407C80.019,34.8 80.36,35.325 80.52,35.982C80.687,36.699 80.769,37.433 80.764,38.169L80.774,42.611C80.774,42.805 80.814,42.955 80.894,43.059C80.974,43.163 81.07,43.253 81.184,43.329" style="fill:white;"/>
        </g>
        <g id="Fill-111" transform="matrix(1.00278,-1.55568e-18,-1.55568e-18,1.00913,96,-0.314291)">
            <path d="M92.585,37.898C92.878,37.924 93.003,37.81 92.957,37.553C92.684,35.945 92.411,34.343 92.137,32.751C92.022,32.15 91.919,31.561 91.828,30.987C91.737,30.412 91.651,29.895 91.571,29.436C91.491,28.977 91.428,28.606 91.383,28.319C91.356,28.165 91.333,28.011 91.314,27.856L91.246,27.853C91.246,27.876 91.212,28.108 91.145,28.549C91.078,28.99 90.988,29.549 90.875,30.226C90.763,30.902 90.64,31.639 90.505,32.436C90.371,33.232 90.241,33.977 90.118,34.669C89.995,35.362 89.894,35.953 89.816,36.444C89.736,36.934 89.698,37.213 89.698,37.281C89.676,37.437 89.693,37.54 89.75,37.589C89.806,37.639 89.959,37.674 90.208,37.695C91,37.761 91.793,37.829 92.585,37.898M98.455,45.745C98.635,45.89 98.809,46.105 98.978,46.393C99.148,46.68 99.232,47.027 99.232,47.432L99.232,48.862C97.148,48.515 95.061,48.19 92.97,47.886L92.969,46.646C92.969,46.256 93.007,45.963 93.086,45.766C93.166,45.571 93.256,45.416 93.356,45.303C93.458,45.19 93.554,45.075 93.644,44.96C93.734,44.845 93.78,44.684 93.78,44.476C93.682,43.951 93.602,43.422 93.54,42.891C93.494,42.471 93.45,42.137 93.404,41.891C93.358,41.644 93.296,41.464 93.217,41.352C93.133,41.238 93.002,41.167 92.86,41.159L92.589,41.129C91.639,41.029 90.689,40.931 89.739,40.837C89.534,40.817 89.387,40.825 89.297,40.861C89.207,40.898 89.15,41.016 89.128,41.216C89.105,41.326 89.088,41.527 89.078,41.818C89.066,42.12 89.038,42.421 88.995,42.72C88.95,43.074 88.905,43.463 88.861,43.884C88.861,44.131 88.901,44.321 88.981,44.454C89.061,44.587 89.14,44.725 89.219,44.869C89.299,45.014 89.378,45.181 89.458,45.371C89.537,45.561 89.578,45.837 89.578,46.197L89.58,47.415C87.523,47.14 85.463,46.887 83.4,46.655C83.4,46.217 83.398,45.78 83.397,45.342C83.397,45.015 83.452,44.764 83.566,44.589C83.678,44.415 83.803,44.269 83.938,44.152C84.074,44.034 84.215,43.917 84.362,43.8C84.509,43.683 84.616,43.529 84.684,43.338C85.317,40.474 85.945,37.608 86.568,34.742C86.792,33.669 87.023,32.608 87.258,31.562C87.494,30.514 87.702,29.573 87.882,28.742L88.32,26.707C88.432,26.183 88.489,25.909 88.489,25.887L88.489,25.719C88.495,25.558 88.44,25.401 88.335,25.279C88.219,25.151 88.106,25.02 87.994,24.888C87.855,24.719 87.74,24.531 87.652,24.33C87.55,24.106 87.498,23.771 87.497,23.325L87.495,22.12C88.697,22.12 89.678,22.115 90.438,22.103C91.198,22.093 91.804,22.133 92.258,22.223C92.712,22.315 93.046,22.471 93.262,22.69C93.478,22.91 93.642,23.239 93.756,23.678C93.779,23.771 93.853,24.135 93.979,24.771C94.104,25.409 94.269,26.221 94.474,27.211C94.969,29.61 95.447,32.013 95.907,34.419C96.497,37.475 97.177,40.966 97.947,44.927C97.991,45.122 98.059,45.279 98.149,45.399C98.239,45.519 98.341,45.634 98.454,45.745" style="fill:white;"/>
        </g>
        <g id="Fill-13" transform="matrix(1.00278,-1.55568e-18,-1.55568e-18,1.00913,150.454,-0.270899)">
            <path d="M0.055,1.683C0.253,1.973 1.262,3.378 1.538,3.688C1.818,3.998 2.103,4.091 2.182,4.36C2.262,4.63 2.225,5.769 2.248,6.68C2.27,7.593 1.85,8.412 1.761,8.569C1.673,8.725 3.793,8.956 5.299,7.739C6.803,6.521 7.313,5.069 7.202,4.975C7.094,4.882 6.425,5.051 5.496,4.556C4.57,4.062 4.066,3.494 3.826,3.246C3.589,2.998 3.262,2.47 3.133,2.212C3.003,1.953 2.282,1.032 2.133,0.795C1.983,0.557 1.864,0.206 1.716,0.278C1.57,0.352 0.742,0.977 0.457,1.258C0.172,1.538 0.055,1.683 0.055,1.683" style="fill:white;"/>
        </g>
        <g id="Fill-16" transform="matrix(1.00278,-1.55568e-18,-1.55568e-18,1.00913,96,-0.314291)">
            <path d="M42.76,0.701C43.042,0.936 43.749,1.427 44.128,1.743C44.504,2.06 45.438,2.495 46.122,3.333C46.808,4.17 47.809,5.465 48.232,5.795C48.652,6.127 49.19,6.763 49.742,6.982C50.295,7.2 51.608,7.929 52.392,8.593C52.758,8.901 53.202,9.323 53.64,9.707C54.147,10.153 54.614,10.577 54.835,10.863C55.247,11.396 54.395,12.606 54.143,12.81C53.89,13.014 53.476,12.131 53.243,11.655C53.009,11.179 52.493,10.676 52.025,10.267C51.467,9.8 50.882,9.366 50.272,8.969C50.109,8.873 49.511,8.461 48.882,8.046C48.351,7.696 47.849,7.26 47.547,7.04C46.885,6.56 46.293,6.336 45.977,6.08C45.813,5.948 45.218,5.34 44.581,4.777C43.975,4.241 43.333,3.739 43.113,3.563C42.667,3.205 42.235,2.832 41.815,2.444C41.665,2.293 42.619,0.583 42.76,0.701" style="fill:white;"/>
        </g>
        <g id="Fill-18" transform="matrix(1.00278,-1.55568e-18,-1.55568e-18,1.00913,96,-0.314291)">
            <path d="M45.212,1.856C45.02,2.149 44.028,3.584 43.759,3.902C43.49,4.22 43.197,4.315 43.123,4.586C43.051,4.857 43.116,5.998 43.117,6.909C43.12,7.821 43.571,8.626 43.663,8.779C43.723,8.879 42.853,9.053 41.821,8.834C41.2,8.697 40.618,8.425 40.114,8.038C39.605,7.65 39.189,7.255 38.885,6.868C38.27,6.083 38.071,5.433 38.141,5.368C38.248,5.272 38.921,5.432 39.838,4.911C40.753,4.39 41.248,3.799 41.479,3.545C41.709,3.289 41.973,2.715 42.094,2.454C42.218,2.191 42.934,1.26 43.078,1.018C43.219,0.776 43.328,0.452 43.476,0.521C43.624,0.589 44.476,1.167 44.768,1.439C45.06,1.712 45.258,1.559 45.212,1.856" style="fill:white;"/>
        </g>
        <g id="Fill-20" transform="matrix(1.00278,-1.55568e-18,-1.55568e-18,1.00913,96,-0.314291)">
            <path d="M49.064,7.413C48.486,7.763 47.802,8.238 47.322,8.667C46.554,9.353 45.316,10.447 44.918,10.991C44.52,11.537 45.419,12.771 45.675,12.967C45.931,13.164 46.371,12.26 46.591,11.777C46.813,11.296 47.317,10.798 47.771,10.377C48.229,9.954 49.143,9.143 49.438,8.955C49.546,8.886 49.855,8.677 50.234,8.416L49.064,7.413L49.064,7.413Z" style="fill:white;"/>
        </g>
        <g id="Fill-22" transform="matrix(1.00278,-1.55568e-18,-1.55568e-18,1.00913,96,-0.314291)">
            <path d="M56.723,0.473C56.447,0.716 55.776,1.256 55.407,1.583C55.038,1.91 54.124,2.38 53.459,3.237C52.797,4.094 51.809,5.388 51.396,5.731C51.222,5.877 51.026,6.076 50.819,6.275C51.305,6.478 51.773,6.719 52.219,6.998C52.845,6.523 53.373,6.231 53.675,5.973C53.985,5.706 56.035,3.757 56.478,3.383C56.907,3.005 57.32,2.61 57.716,2.197C57.863,2.041 56.861,0.349 56.723,0.473" style="fill:white;"/>
        </g>
        <g id="Fill-24" transform="matrix(1.00278,-1.55568e-18,-1.55568e-18,1.00913,96,-0.314291)">
            <path d="M28.875,77.207L28.955,77.02C28.999,76.92 29,76.806 28.959,76.705C28.922,76.602 28.845,76.517 28.745,76.471C28.5,76.353 28.255,76.231 28.01,76.109C27.915,76.058 27.803,76.05 27.701,76.085C27.6,76.118 27.517,76.192 27.474,76.29L26.79,77.758C26.743,77.857 26.74,77.972 26.781,78.074C26.82,78.181 26.899,78.269 27.002,78.319C27.258,78.449 27.514,78.575 27.772,78.699C27.871,78.75 27.987,78.758 28.092,78.721C28.194,78.688 28.277,78.611 28.317,78.511L28.397,78.324C28.652,78.445 28.908,78.564 29.164,78.679L29.088,78.867C29.023,79.024 28.933,79.157 28.815,79.265C28.698,79.373 28.565,79.453 28.417,79.505C28.264,79.559 28.102,79.581 27.941,79.571C27.769,79.561 27.601,79.517 27.447,79.441C27.186,79.315 26.926,79.187 26.667,79.056C26.205,78.827 25.912,78.351 25.916,77.835C25.92,77.671 25.959,77.513 26.033,77.36L26.739,75.904C26.938,75.498 27.353,75.24 27.804,75.24C27.993,75.24 28.178,75.285 28.346,75.371C28.586,75.493 28.828,75.611 29.07,75.729C29.219,75.8 29.347,75.897 29.456,76.019C29.671,76.258 29.791,76.568 29.794,76.889C29.795,77.053 29.765,77.212 29.702,77.366L29.625,77.553C29.375,77.44 29.125,77.324 28.875,77.207" style="fill:white;"/>
        </g>
        <g id="Fill-26" transform="matrix(1.00278,-1.55568e-18,-1.55568e-18,1.00913,96,-0.314291)">
            <path d="M33.606,79.794C33.611,79.366 33.619,78.938 33.629,78.51L33.596,78.498C33.357,78.845 33.116,79.19 32.872,79.534C33.116,79.622 33.362,79.709 33.606,79.794M34.826,81.478L34.606,82.262C34.061,82.094 33.519,81.916 32.98,81.729L33.224,80.953L33.6,81.081L33.6,80.652C33.192,80.513 32.785,80.369 32.381,80.219L32.133,80.56L32.507,80.698L32.253,81.47C31.715,81.275 31.18,81.07 30.647,80.856L30.925,80.092L31.308,80.244C31.985,79.349 32.646,78.442 33.29,77.523C33.67,77.663 34.052,77.799 34.435,77.93C34.416,79.072 34.416,80.214 34.436,81.356L34.826,81.478" style="fill:white;"/>
        </g>
        <g id="Fill-28" transform="matrix(1.00278,-1.55568e-18,-1.55568e-18,1.00913,96,-0.314291)">
            <path d="M38.44,80.946C38.665,80.999 38.89,81.05 39.115,81.1C39.247,81.13 39.369,81.107 39.48,81.034C39.588,80.963 39.662,80.851 39.684,80.723C39.71,80.595 39.684,80.462 39.612,80.353C39.544,80.244 39.434,80.167 39.308,80.141C39.087,80.091 38.866,80.041 38.645,79.989L38.44,80.946M40.545,82.889L40.409,83.694C39.854,83.591 39.3,83.479 38.749,83.357L38.908,82.557C39.018,82.582 39.129,82.606 39.24,82.629L38.994,81.909C38.752,81.855 38.511,81.8 38.27,81.743L38.133,82.381L38.54,82.475L38.375,83.274C37.823,83.148 37.273,83.013 36.725,82.869L36.914,82.076C37.049,82.112 37.184,82.146 37.32,82.181L37.868,79.798C37.739,79.765 37.61,79.732 37.481,79.698L37.67,78.905C38.272,79.064 38.878,79.21 39.485,79.345C39.652,79.385 39.802,79.455 39.935,79.555C40.203,79.753 40.391,80.042 40.463,80.367C40.5,80.535 40.504,80.707 40.473,80.883C40.441,81.08 40.362,81.266 40.243,81.425C40.128,81.577 39.981,81.702 39.813,81.791C39.935,82.135 40.059,82.478 40.187,82.821L40.545,82.889" style="fill:white;"/>
        </g>
        <g id="Fill-30" transform="matrix(1.00278,-1.55568e-18,-1.55568e-18,1.00913,96,-0.314291)">
            <path d="M44.746,82.006C44.874,82.022 45.003,81.982 45.1,81.898C45.2,81.815 45.262,81.695 45.27,81.565C45.283,81.435 45.243,81.305 45.16,81.205C45.081,81.104 44.963,81.041 44.836,81.03C44.612,81.008 44.388,80.984 44.164,80.958L44.062,81.932C44.29,81.959 44.518,81.983 44.746,82.006M44.911,80.217C45.081,80.234 45.239,80.284 45.386,80.365C45.68,80.527 45.901,80.797 46.003,81.117C46.058,81.281 46.08,81.452 46.068,81.631C46.048,81.976 45.888,82.299 45.626,82.524C45.362,82.749 45.016,82.856 44.671,82.82C44.439,82.796 44.208,82.771 43.977,82.744L43.909,83.394C44.047,83.41 44.184,83.426 44.322,83.44L44.243,84.254C43.683,84.194 43.125,84.124 42.568,84.046L42.671,83.236L43.084,83.292L43.376,80.86C43.244,80.842 43.113,80.824 42.981,80.806L43.085,79.996C43.692,80.082 44.301,80.156 44.911,80.217" style="fill:white;"/>
        </g>
        <g id="Fill-32" transform="matrix(1.00278,-1.55568e-18,-1.55568e-18,1.00913,143.907,80.5947)">
            <path d="M3.097,0.263L3.127,1.489C2.86,1.496 2.594,1.5 2.327,1.503L2.324,1.094C2.06,1.097 1.795,1.097 1.531,1.095L1.526,1.912C1.794,1.914 2.062,1.914 2.331,1.912L2.338,2.729C2.065,2.731 1.793,2.731 1.52,2.729L1.515,3.547C1.792,3.549 2.068,3.548 2.345,3.546L2.342,3.137C2.616,3.135 2.891,3.13 3.165,3.122L3.195,4.348C2.212,4.374 1.229,4.371 0.246,4.339L0.27,3.522C0.408,3.527 0.547,3.531 0.685,3.534L0.738,1.084C0.606,1.081 0.473,1.077 0.341,1.072L0.365,0.255C1.275,0.285 2.187,0.287 3.097,0.263" style="fill:white;"/>
        </g>
        <g id="Fill-35" transform="matrix(1.00278,-1.55568e-18,-1.55568e-18,1.00913,96,-0.314291)">
            <path d="M56.742,79.916L56.854,80.725C56.723,80.745 56.592,80.765 56.461,80.783L56.884,84.022C56.605,84.062 56.326,84.1 56.047,84.136C55.409,83.368 54.792,82.583 54.195,81.782L54.342,83.502C54.48,83.49 54.618,83.476 54.755,83.462L54.831,84.276C54.271,84.333 53.711,84.382 53.151,84.42L53.1,83.605L53.514,83.575L53.342,81.129L52.946,81.159L52.894,80.343C53.284,80.316 53.674,80.284 54.063,80.247C54.645,81.049 55.247,81.836 55.87,82.606L55.672,80.891L55.278,80.939L55.191,80.127C55.709,80.066 56.226,79.996 56.741,79.917" style="fill:white;"/>
        </g>
        <g id="Fill-37" transform="matrix(1.00278,-1.55568e-18,-1.55568e-18,1.00913,96,-0.314291)">
            <path d="M61.81,78.853L62.099,80.041C61.839,80.111 61.579,80.178 61.317,80.244L61.227,79.846L60.839,79.941L61.361,82.331L61.768,82.231L61.948,83.026C61.398,83.163 60.846,83.292 60.294,83.41L60.138,82.61L60.546,82.52L60.06,80.122C59.93,80.152 59.8,80.18 59.67,80.208L59.748,80.608C59.486,80.664 59.223,80.718 58.961,80.77L58.745,79.565C59.772,79.363 60.795,79.125 61.811,78.853" style="fill:white;"/>
        </g>
        <g id="Fill-39" transform="matrix(1.00278,-1.55568e-18,-1.55568e-18,1.00913,96,-0.314291)">
            <path d="M65.433,79.62C65.653,79.545 65.873,79.468 66.093,79.39C66.218,79.347 66.32,79.255 66.377,79.136C66.437,79.019 66.446,78.882 66.402,78.758C66.364,78.635 66.275,78.534 66.159,78.479C66.044,78.422 65.911,78.416 65.792,78.462C65.577,78.539 65.361,78.614 65.144,78.688L65.434,79.621M68.208,80.153L68.484,80.917C67.95,81.13 67.414,81.333 66.876,81.527L66.624,80.753L66.947,80.636C66.758,80.475 66.57,80.312 66.383,80.149C66.147,80.234 65.911,80.317 65.674,80.398L65.867,81.019C66,80.974 66.132,80.928 66.265,80.881L66.512,81.656C65.972,81.846 65.432,82.026 64.888,82.196L64.665,81.414L65.066,81.286L64.38,78.943L63.996,79.065L63.773,78.282C64.372,78.094 64.966,77.894 65.557,77.682C65.722,77.627 65.887,77.606 66.051,77.619C66.378,77.643 66.683,77.79 66.905,78.031C67.019,78.155 67.107,78.301 67.165,78.469C67.235,78.666 67.257,78.863 67.23,79.059C67.203,79.257 67.138,79.439 67.036,79.606C67.309,79.836 67.586,80.063 67.864,80.289L68.208,80.153" style="fill:white;"/>
        </g>
        <g id="Fill-41" transform="matrix(1.00278,-1.55568e-18,-1.55568e-18,1.00913,96,-0.314291)">
            <path d="M71.717,77.749L72.03,78.446L72.414,78.253L72.752,78.989C72.233,79.252 71.712,79.506 71.187,79.749L70.872,79.003C71.002,78.943 71.13,78.882 71.259,78.82L70.957,78.119C70.377,77.779 69.807,77.43 69.248,77.071L68.945,77.206L68.645,76.452C69.135,76.237 69.621,76.013 70.105,75.781L70.428,76.525L70.148,76.657C70.43,76.83 70.713,77 70.999,77.167C71.064,76.829 71.126,76.491 71.185,76.153C71.093,76.2 71,76.246 70.908,76.291L70.577,75.551C71.059,75.314 71.539,75.067 72.016,74.811L72.369,75.541L72.073,75.697C71.966,76.383 71.848,77.067 71.717,77.749" style="fill:white;"/>
        </g>
        <g id="Fill-43" transform="matrix(1.00278,-1.55568e-18,-1.55568e-18,1.00913,96,-0.314291)">
            <rect x="0" y="61.063" width="16.249" height="1.56" style="fill:white;"/>
        </g>
        <g id="Fill-45" transform="matrix(1.00278,-1.55568e-18,-1.55568e-18,1.00913,96,-0.314291)">
            <path d="M83.474,62.623L99.723,62.623L99.723,61.063L83.473,61.063L83.474,62.623Z" style="fill:white;"/>
        </g>
        <g id="Fill-46" transform="matrix(1.00278,-1.55568e-18,-1.55568e-18,1.00913,96,-0.314291)">
            <path d="M45.343,61.107C45.271,61.713 45.173,62.315 45.049,62.913C44.936,63.466 44.843,64.023 44.769,64.583L44.769,64.595C44.756,64.773 44.602,64.895 44.511,64.951L44.381,65.036C44.081,65.229 43.798,65.412 43.491,65.364L43.46,65.362C43.248,65.36 43.095,65.124 43.068,64.887C42.92,63.912 43.229,62.941 43.528,62.001C43.58,61.837 43.632,61.674 43.682,61.51C43.801,61.105 43.971,60.674 44.317,60.55C44.611,60.47 44.927,60.532 45.169,60.717C45.289,60.809 45.355,60.956 45.343,61.107M52.709,60.571C52.301,61.737 51.309,62.591 50.24,62.725L50.241,62.713C50.265,62.458 50.289,62.218 50.418,62.033C50.784,61.477 51.29,60.973 51.925,60.532C52.132,60.402 52.345,60.268 52.549,60.268C52.574,60.268 52.599,60.27 52.625,60.275C52.706,60.323 52.749,60.462 52.709,60.571M56.809,62.341C57.018,61.701 57.295,61.085 57.769,60.661C58.052,60.411 58.499,60.273 58.784,60.477C58.854,60.543 58.837,60.685 58.801,60.904C58.725,61.33 58.393,61.724 57.909,61.961C57.56,62.141 57.176,62.253 56.809,62.341M76.901,62.884C76.893,62.842 76.887,62.8 76.881,62.758L76.865,62.622L76.745,62.57C76.371,62.41 76.013,62.635 75.831,62.922C75.39,63.561 74.87,64.14 74.281,64.646C74.014,64.855 73.706,65.027 73.35,65.168C73.653,64.499 73.635,63.761 73.583,63.318C73.493,62.6 73.176,61.974 72.869,61.368C72.781,61.195 72.694,61.022 72.619,60.863C72.468,60.476 72.454,60.223 72.577,60.063C72.64,59.981 72.753,59.941 72.884,59.895C73.026,59.845 73.187,59.789 73.311,59.671C73.492,59.525 73.605,59.312 73.625,59.081C73.636,58.926 73.582,58.774 73.476,58.661C73.146,58.235 72.616,58.443 72.336,58.554C71.28,58.944 70.566,59.917 70.065,60.72C69.812,61.117 69.566,61.518 69.325,61.923C69.001,62.471 68.663,63.011 68.311,63.542L68.136,63.756C67.683,64.311 67.216,64.886 66.61,65.237C66.21,65.475 65.71,65.515 65.313,65.344C65.153,65.268 65.084,65.062 65.073,64.912C65.045,64.431 65.107,63.938 65.259,63.448C65.66,62.183 66.229,61.107 66.935,60.264C67.114,60.079 67.186,59.814 67.125,59.564C67.079,59.349 66.917,59.177 66.706,59.117L66.666,59.11C66.342,59.087 66.068,59.221 65.824,59.34C65.765,59.369 65.706,59.398 65.646,59.425C65.119,59.618 64.486,59.581 63.718,59.312C63.679,58.966 63.634,58.576 63.418,58.248C63.239,57.979 62.923,57.833 62.602,57.87C62.303,57.892 62.038,58.077 61.917,58.352C61.625,58.911 61.911,59.494 62.297,59.877C62.35,60.292 62.358,60.627 62.324,60.921C62.221,61.645 61.833,62.299 61.458,62.931L61.382,63.061C60.582,64.229 59.522,65.011 58.398,65.266C57.809,65.406 57.148,65.497 56.742,65.131C56.432,64.79 56.44,64.265 56.502,63.768C57.836,63.608 58.999,63 59.713,62.083C60.167,61.495 60.341,60.769 60.175,60.132C59.965,59.429 59.289,59.064 58.711,59.015C57.887,58.943 57.031,59.315 56.476,59.983C55.906,60.672 55.503,61.581 55.245,62.748C55.22,62.842 55.202,62.938 55.19,63.035C55.168,63.191 55.149,63.325 55.057,63.422L54.977,63.522C54.471,64.154 53.948,64.808 53.287,65.253C53.095,65.389 52.757,65.479 52.611,65.261C52.349,64.84 52.198,64.363 52.038,63.858C51.987,63.692 51.934,63.527 51.878,63.362C51.948,63.316 52.023,63.27 52.1,63.224C52.287,63.11 52.48,62.993 52.653,62.833C53.25,62.29 53.665,61.627 53.855,60.913C54.007,60.296 53.945,59.773 53.675,59.397C53.39,59.008 52.857,58.837 52.319,58.956C51.669,59.089 51.13,59.449 50.713,59.843C50.961,58.543 51.193,57.209 51.268,55.866C51.289,55.535 51.036,55.244 50.705,55.218C50.376,55.18 49.994,55.356 49.923,55.77C49.823,56.582 49.701,57.546 49.553,58.522C49.303,59.906 49.118,61.322 48.94,62.691L48.894,63.049C48.884,63.167 48.798,63.274 48.697,63.399C48.657,63.446 48.619,63.495 48.582,63.545L48.511,63.635C47.968,64.317 47.406,65.022 46.666,65.361C46.563,65.401 46.446,65.379 46.365,65.305C46.208,65.172 46.102,64.883 46.125,64.644C46.174,64.062 46.306,63.476 46.434,62.909C46.541,62.437 46.651,61.949 46.711,61.48C46.754,61.302 46.79,61.123 46.826,60.943C46.899,60.575 46.969,60.227 47.1,59.892C47.155,59.737 47.211,59.534 47.152,59.32L47.138,59.28C47.026,59.049 46.798,58.896 46.542,58.879C46.273,58.853 46.01,58.976 45.857,59.199C45.804,59.289 45.762,59.386 45.732,59.486C45.115,59 44.267,58.898 43.584,59.266C42.942,59.663 42.46,60.36 42.268,61.153C42.064,61.703 41.907,62.293 41.786,62.967C41.756,63.174 41.609,63.347 41.456,63.532C41.384,63.617 41.315,63.7 41.265,63.773C41.145,63.917 41.028,64.067 40.911,64.218C40.478,64.773 40.031,65.346 39.418,65.632C38.985,65.828 38.663,65.84 38.45,65.662C38.225,65.492 38.14,65.15 38.189,64.624C38.295,63.648 38.479,62.664 38.657,61.714C38.819,60.844 38.987,59.946 39.097,59.044C39.157,58.482 39.183,57.829 38.919,57.248C38.546,56.483 37.641,56.047 36.824,56.231C36.322,56.317 35.848,56.588 35.388,57.055C35.478,56.483 35.52,55.901 35.393,55.314C35.167,54.374 34.177,53.728 33.24,53.896C32.186,54.05 31.426,54.849 30.953,55.541C30.895,55.171 30.776,54.813 30.602,54.481C30.028,53.546 29.116,52.915 28.164,52.791C26.764,52.599 25.318,53.167 24.484,54.233C23.867,54.98 23.539,55.924 23.56,56.892C23.557,57.854 23.828,58.718 24.325,59.33C24.766,59.853 25.379,60.187 26.003,60.245C26.247,60.263 26.485,60.159 26.638,59.968C26.758,59.824 26.801,59.629 26.752,59.448C26.662,59.08 26.336,59.008 26.12,58.961C26.064,58.949 26.01,58.938 25.949,58.917C25.307,58.729 24.933,58.036 24.843,57.415C24.695,56.731 24.841,56.002 25.256,55.363C25.694,54.688 26.382,54.219 27.11,54.103C27.69,53.967 28.35,54.113 28.872,54.496C29.344,54.841 29.642,55.329 29.715,55.887C29.945,57.005 29.732,58.155 29.525,59.267C29.451,59.664 29.375,60.073 29.321,60.464C29.181,61.185 29.054,61.921 28.931,62.634C28.695,64.004 28.451,65.423 28.109,66.759C28.002,67.026 28.087,67.334 28.316,67.509L28.371,67.538C28.471,67.573 28.578,67.592 28.685,67.591C28.979,67.591 29.27,67.45 29.387,67.119C29.499,66.779 29.555,66.427 29.609,66.088C29.641,65.888 29.673,65.688 29.717,65.488C29.926,64.483 30.163,63.293 30.331,62.094C30.413,61.694 30.487,61.289 30.561,60.884C30.801,59.562 31.049,58.194 31.614,56.978C31.87,56.466 32.286,55.741 32.942,55.36C33.245,55.179 33.71,55.155 33.971,55.464C34.178,55.724 34.136,56.116 34.097,56.494L34.084,56.616C33.941,57.581 33.777,58.543 33.592,59.501C33.492,60.042 33.392,60.583 33.302,61.113C33.102,61.998 32.954,62.905 32.809,63.783C32.676,64.641 32.52,65.495 32.341,66.345C32.331,66.39 32.318,66.435 32.305,66.479C32.249,66.632 32.232,66.797 32.256,66.959C32.297,67.113 32.399,67.245 32.538,67.324C32.694,67.413 32.88,67.435 33.052,67.384C33.362,67.297 33.567,67.007 33.666,66.507C33.73,66.017 33.831,65.524 33.928,65.046C33.981,64.789 34.033,64.531 34.079,64.28C34.177,63.822 34.254,63.356 34.328,62.904C34.421,62.339 34.518,61.754 34.654,61.192C34.857,60.342 35.122,59.373 35.704,58.635L35.724,58.608C36.004,58.25 36.292,57.88 36.668,57.681C36.924,57.548 37.28,57.477 37.534,57.696C37.813,57.883 37.804,58.281 37.764,58.791C37.671,59.615 37.511,60.447 37.357,61.252C37.13,62.435 36.897,63.658 36.862,64.892C36.835,65.433 36.992,65.968 37.307,66.408C37.833,67.064 38.782,67.297 39.624,66.97C40.338,66.66 41.004,66.123 41.648,65.337C41.722,65.679 41.858,66.029 42.123,66.299C42.505,66.709 43.119,66.899 43.813,66.816C44.297,66.75 44.674,66.474 45.039,66.207L45.252,66.054C45.446,66.29 45.666,66.554 46.022,66.626C46.745,66.761 47.535,66.466 48.194,65.816C48.277,65.732 48.364,65.651 48.449,65.569L48.546,65.477C48.506,65.704 48.474,65.937 48.466,66.177C48.47,66.427 48.624,66.651 48.856,66.744C49.116,66.853 49.41,66.796 49.584,66.608C49.815,66.373 49.843,66.048 49.866,65.773C49.888,65.403 49.944,65.028 49.998,64.663C50.03,64.448 50.063,64.226 50.09,64.002C50.272,64 50.457,63.982 50.64,63.94C50.834,64.514 51.033,65.087 51.237,65.657C51.529,66.418 52.301,66.857 53.036,66.677C53.911,66.482 54.549,65.854 55.159,65.23C55.221,65.471 55.309,65.714 55.459,65.925C55.759,66.376 56.269,66.686 56.82,66.753C58.314,66.934 59.816,66.464 60.94,65.463C61.634,64.884 62.182,64.253 62.561,63.6C63.245,62.561 63.617,61.605 63.693,60.687C64.08,60.787 64.478,60.832 64.859,60.822C64.431,61.542 64.142,62.228 63.979,62.904C63.742,63.779 63.547,64.636 63.763,65.484C63.923,66.18 64.558,66.722 65.257,66.77C66.222,66.9 67.251,66.549 68.007,65.836C68.881,65.044 69.546,64.18 69.97,63.29C70.123,63.04 70.271,62.787 70.419,62.533C70.703,62.046 70.994,61.545 71.325,61.083C71.429,61.483 71.602,61.853 71.771,62.213C71.9,62.487 72.021,62.744 72.111,63.006C72.326,63.709 72.297,64.424 72.033,64.965C71.906,65.205 71.675,65.373 71.408,65.421C71.152,65.473 70.885,65.398 70.694,65.219C70.621,65.153 70.559,65.075 70.511,64.988C70.376,64.779 70.176,64.464 69.743,64.56C69.506,64.637 69.327,64.834 69.273,65.077C69.193,65.397 69.289,65.78 69.509,66.028C70.083,66.698 70.986,66.796 71.623,66.812C73.187,66.796 74.645,66.186 75.618,65.142L75.646,65.114C76.122,64.618 76.615,64.104 76.903,63.402C76.957,63.212 76.927,63.038 76.901,62.884" style="fill:white;"/>
        </g>
    </g>
    <g id="Librero">
        <g id="Fill-12" transform="matrix(1,0,0,1,288,0)">
            <path d="M68.304,80L70.982,80L70.982,74.667L68.304,74.667L68.304,80ZM38.839,70.667L38.839,53.333L70.982,53.333L70.982,70.667L38.84,70.667L38.839,70.667ZM8.133,70.667L4.018,70.667L4.018,53.333L34.82,53.333L34.82,70.667L8.133,70.667ZM4.018,80L6.696,80L6.696,74.667L4.018,74.667L4.018,80ZM70.982,4L70.982,10.719C70.839,10.686 70.693,10.668 70.546,10.667L57.967,10.667C57.147,10.667 56.409,11.163 56.104,11.92L51.221,24L29.464,24L29.464,12.667C29.464,11.563 28.564,10.667 27.455,10.667L11.384,10.667C10.284,10.665 9.378,11.567 9.375,12.667L9.375,24L4.018,24L4.018,4L70.982,4ZM58.117,24L55.552,24L59.325,14.667L61.605,14.667L58.116,24L58.117,24ZM64.535,24L62.405,24L65.893,14.667L67.736,14.667L64.535,24ZM70.982,24L68.78,24L70.982,17.583L70.982,24ZM13.392,24L25.446,24L25.446,21.333L13.393,21.333L13.393,24L13.392,24ZM13.392,17.333L25.446,17.333L25.446,14.667L13.393,14.667L13.393,17.333L13.392,17.333ZM66.296,36L26.116,36C25.016,35.998 24.11,36.9 24.107,38L24.107,49.333L4.017,49.333L4.017,28L70.982,28L70.982,49.333L68.304,49.333L68.304,38C68.304,36.896 67.404,36 66.294,36L66.296,36ZM60.269,49.333L64.287,49.333L64.287,40L60.269,40L60.269,49.333ZM52.233,49.333L56.251,49.333L56.251,40L52.233,40L52.233,49.333ZM44.197,49.333L48.215,49.333L48.215,40L44.197,40L44.197,49.333ZM36.162,49.333L40.18,49.333L40.18,40L36.16,40L36.16,49.333L36.162,49.333ZM28.126,49.333L32.144,49.333L32.144,40L28.126,40L28.126,49.333ZM72.419,0L1.437,0C0.328,0 0,0.896 0,2L0,82C0,83.104 0.328,84 1.437,84L8.133,84C9.243,84 10.714,83.104 10.714,82L10.714,74.667L64.286,74.667L64.286,82C64.286,83.104 64.614,84 65.723,84L72.419,84C73.53,84 75,83.104 75,82L75,2C75,0.896 73.528,0 72.42,0L72.419,0Z" style="fill:rgb(203,183,136);"/>
        </g>
        <g id="Fill-31" transform="matrix(1,0,0,1,288,0)">
            <path d="M43.527,59.333C43.525,59.333 43.524,59.333 43.522,59.333C42.424,59.333 41.52,60.235 41.517,61.333L41.517,64C41.517,65.104 42.417,66 43.527,66C44.627,66.002 45.533,65.1 45.536,64L45.536,61.333C45.536,60.229 44.636,59.333 43.526,59.333" style="fill:rgb(203,183,136);"/>
        </g>
        <g id="Fill-42" transform="matrix(1,0,0,1,288,0)">
            <path d="M30.134,59.333C29.034,59.331 28.128,60.233 28.125,61.333L28.125,64C28.125,65.104 29.025,66 30.134,66C31.234,66.002 32.14,65.1 32.143,64L32.143,61.333C32.143,60.229 31.243,59.333 30.133,59.333" style="fill:rgb(203,183,136);"/>
        </g>
    </g>
    <g id="Escritorio" transform="matrix(1,0,0,1,384,0)">
        <path d="M80.063,76.066L75.918,76.066L73.575,43.279L80.062,43.279L80.062,76.066L80.063,76.066ZM6.627,76.066L3.937,76.066L3.937,43.279L8.97,43.279L6.627,76.066L6.627,76.066ZM3.937,34.098L80.063,34.098L80.063,39.344L3.938,39.344L3.938,34.098L3.937,34.098ZM65.625,30.164L68.25,30.164L68.25,22.295L65.625,22.295L65.625,30.164ZM13.125,22.295L49.875,22.295L49.875,19.672L13.125,19.672L13.125,22.295ZM13.125,6.557L49.875,6.557L49.875,3.934L13.125,3.934L13.125,6.557ZM13.125,17.049L49.875,17.049L49.875,9.18L13.125,9.18L13.125,17.05L13.125,17.049ZM82.031,30.164L72.187,30.164L72.187,24.918L73.5,24.918L73.5,27.541C73.5,28.621 74.389,29.51 75.469,29.51C76.549,29.51 77.438,28.621 77.438,27.541L77.438,22.951C77.438,21.865 75.995,20.984 74.908,20.984L72.188,20.984L72.188,20.328C72.187,19.248 71.298,18.36 70.218,18.361L67.726,18.361C68.016,18.306 68.299,18.209 68.549,18.018C69.039,17.647 69.327,17.067 69.327,16.452C69.327,16.023 69.186,15.605 68.926,15.263L68.222,14.337C67.942,13.967 67.697,13.387 68.116,12.707L69.032,11.229C69.224,10.918 69.326,10.56 69.326,10.194C69.326,9.514 68.973,8.879 68.393,8.522C68.082,8.329 67.723,8.227 67.357,8.227C66.676,8.227 66.042,8.58 65.684,9.159L64.768,10.637C63.578,12.561 63.7,14.889 65.086,16.715L65.79,17.642C66.075,18.017 66.468,18.257 66.892,18.361L63.656,18.361C62.577,18.362 61.689,19.249 61.688,20.328L61.688,30.164L34.124,30.164L34.124,26.23L51.843,26.23C52.922,26.229 53.81,25.341 53.811,24.262L53.811,1.967C53.81,0.888 52.923,0.001 51.844,0L11.156,0C10.077,0 9.188,0.888 9.187,1.967L9.187,24.262C9.187,25.348 10.07,26.23 11.157,26.23L30.187,26.23L30.187,30.164L1.97,30.164C0.891,30.163 0.002,31.051 0,32.13L0,78.032C0,79.119 0.322,80 1.408,80L8.46,80C9.487,80.001 10.351,79.197 10.424,78.172L12.919,43.279L69.628,43.279L72.122,78.172C72.195,79.196 73.057,79.999 74.084,80L81.471,80C82.558,80 84,79.119 84,78.033L84,32.13C83.999,31.051 83.11,30.163 82.031,30.163L82.031,30.164Z" style="fill:rgb(203,183,136);"/>
    </g>
    <g id="Mesa">
        <g id="Fill-14" transform="matrix(1.00358,6.6249e-19,6.6249e-19,1.00088,-1.73572e-19,95.7378)">
            <path d="M28.947,36.331L3.389,36.331L3.389,3.651L7.249,3.651C8.293,3.651 9.142,4.5 9.142,5.544L9.142,26.878C9.145,29.237 11.085,31.177 13.444,31.18L27.055,31.18C28.098,31.18 28.947,32.029 28.947,33.072L28.947,36.332L28.947,36.331ZM27.055,27.791L13.445,27.791C12.944,27.791 12.532,27.379 12.531,26.878L12.531,5.544C12.528,2.648 10.146,0.265 7.25,0.262L1.694,0.262C0.76,0.262 0,1.022 0,1.957L0,58.312C0.022,59.226 0.78,59.966 1.695,59.966C2.609,59.966 3.367,59.226 3.389,58.312L3.389,39.72L25.359,39.72L25.361,58.312C25.361,59.241 26.126,60.006 27.055,60.006C27.984,60.006 28.749,59.241 28.749,58.312C28.749,58.312 28.749,39.72 28.749,39.72L30.641,39.72C31.577,39.72 32.336,38.961 32.336,38.026L32.336,33.072C32.336,30.161 29.966,27.792 27.055,27.792L27.055,27.791Z" style="fill:rgb(197,175,122);"/>
        </g>
        <g id="Fill-44" transform="matrix(1.00358,6.6249e-19,6.6249e-19,1.00088,69.5321,95.7378)">
            <path d="M28.963,36.331L3.405,36.331L3.405,33.071C3.405,32.029 4.253,31.181 5.296,31.181L18.907,31.181C21.267,31.179 23.207,29.238 23.209,26.878L23.209,5.544C23.209,4.5 24.059,3.651 25.102,3.651L28.963,3.651L28.963,36.331ZM30.657,0.262L25.102,0.262C22.205,0.265 19.823,2.647 19.82,5.544L19.82,26.878C19.82,27.382 19.41,27.791 18.907,27.791L5.297,27.791C2.402,27.794 0.02,30.176 0.016,33.071L0.016,38.026C0.016,38.961 0.775,39.72 1.71,39.72L3.603,39.72L3.602,58.312C3.602,59.242 4.367,60.006 5.297,60.006C6.226,60.006 6.991,59.242 6.991,58.312L6.991,39.72L28.963,39.72L28.963,58.312C28.985,59.226 29.743,59.966 30.658,59.966C31.572,59.966 32.33,59.226 32.352,58.312L32.352,1.957C32.352,1.021 31.592,0.262 30.657,0.262L30.657,0.262Z" style="fill:rgb(197,175,122);"/>
        </g>
        <g id="Fill-71" transform="matrix(1.00358,6.6249e-19,6.6249e-19,1.00088,-4.98192e-19,95.2473)">
            <path d="M50.603,37.308L41.376,24.208L59.83,24.208L50.602,37.308L50.603,37.308ZM26.213,17.66C26.215,16.248 27.377,15.086 28.789,15.085L70.126,15.085C71.537,15.088 72.698,16.249 72.7,17.66L72.7,20.819L26.213,20.819L26.213,17.66ZM76.09,24.208L76.09,17.66C76.086,14.39 73.396,11.7 70.126,11.696L68.513,11.696C69.505,10.79 70.072,9.508 70.073,8.164L70.073,5.037C70.073,4.107 69.308,3.342 68.378,3.342C67.448,3.342 66.683,4.107 66.683,5.037L66.683,8.164C66.655,8.919 66.026,9.524 65.271,9.524C64.516,9.524 63.887,8.919 63.859,8.164L63.859,5.037C63.837,4.123 63.079,3.383 62.165,3.383C61.25,3.383 60.492,4.123 60.47,5.037L60.47,8.164C60.47,9.561 61.074,10.818 62.03,11.696L36.884,11.696C37.876,10.79 38.443,9.508 38.444,8.164L38.444,5.037C38.444,4.107 37.679,3.342 36.749,3.342C35.819,3.342 35.054,4.107 35.054,5.037L35.054,8.164C35.034,8.925 34.402,9.539 33.642,9.539C32.881,9.539 32.249,8.925 32.229,8.164L32.229,5.037C32.198,4.13 31.443,3.4 30.535,3.4C29.627,3.4 28.872,4.13 28.841,5.037L28.841,8.164C28.841,9.561 29.445,10.818 30.401,11.696L28.789,11.696C25.518,11.699 22.828,14.389 22.824,17.66L22.824,24.208L37.23,24.208L48.53,40.251L35.982,58.067C35.798,58.345 35.699,58.671 35.699,59.004C35.699,59.934 36.464,60.699 37.394,60.699C37.928,60.699 38.432,60.447 38.752,60.019L50.603,43.194L62.141,59.574C62.458,60.024 62.975,60.293 63.526,60.293C64.455,60.293 65.22,59.528 65.22,58.598C65.22,58.249 65.112,57.908 64.911,57.623L52.678,40.25L63.978,24.207L76.09,24.207L76.09,24.208Z" style="fill:rgb(197,175,122);"/>
        </g>
    </g>
    <g id="Sofa">
        <g id="Fill-15" transform="matrix(1,0,0,1,192,96)">
            <path d="M3.762,61.672L75.238,61.672L75.238,33.277C75.238,31.585 73.264,30.207 71.495,30.207L66.479,30.207C64.762,30.207 63.952,31.555 63.952,33.277L63.952,49.716C63.952,50.758 62.574,51.603 61.536,51.603L16.393,51.603C15.355,51.603 15.048,50.758 15.048,49.716L15.048,33.276C15.048,31.586 13.074,30.206 11.305,30.206L6.289,30.206C4.572,30.206 3.762,31.555 3.762,33.276L3.762,61.672ZM76.584,65.448L1.346,65.448C0.307,65.448 0,64.602 0,63.56L0,33.277C0,29.439 2.463,26.431 6.289,26.431L11.305,26.431C15.148,26.431 18.81,29.502 18.81,33.277L18.81,47.827L60.19,47.827L60.19,33.277C60.19,29.439 62.653,26.431 66.48,26.431L71.495,26.431C75.338,26.431 79,29.502 79,33.277L79,63.56C79,64.602 77.622,65.448 76.584,65.448L76.584,65.448Z" style="fill:rgb(203,183,136);"/>
        </g>
        <g id="Fill-33" transform="matrix(1,0,0,1,192,96)">
            <path d="M18.81,47.828L60.19,47.828L60.19,32.623C60.19,29.461 61.444,26.786 65.206,25.963L65.206,6.846C65.206,5.154 63.233,3.776 61.463,3.776L15.066,3.776C13.35,3.776 12.54,5.124 12.54,6.846L12.54,26.435C15.048,26.557 18.81,29.369 18.81,32.808L18.81,47.828ZM61.536,51.603L16.393,51.603C15.355,51.603 15.048,50.758 15.048,49.716L15.048,32.808C15.048,31.375 13.282,30.207 11.77,30.207L10.123,30.207C9.085,30.207 8.778,29.361 8.778,28.319L8.778,6.846C8.778,3.008 11.24,0 15.066,0L61.463,0C65.307,0 68.968,3.071 68.968,6.846L68.968,27.589C68.97,28.622 68.121,29.474 67.088,29.477C65.366,29.481 63.951,30.901 63.952,32.623L63.952,49.716C63.952,50.758 62.574,51.603 61.536,51.603L61.536,51.603Z" style="fill:rgb(203,183,136);"/>
        </g>
        <g id="Fill-51" transform="matrix(1,0,0,1,192,96)">
            <path d="M26.333,39.017L52.667,39.017L52.667,31.233C52.667,28.81 53.921,27.427 55.175,26.781L55.175,15.656C55.175,13.964 53.201,12.586 51.432,12.586L25.098,12.586C23.381,12.586 22.571,13.934 22.571,15.656L22.571,26.578C23.825,27.18 26.333,28.877 26.333,31.862L26.333,39.017ZM54.013,42.793L23.916,42.793C22.878,42.793 22.57,41.947 22.57,40.905L22.57,31.862C22.57,31.382 22.57,30.105 20.781,30.105C19.741,30.105 18.809,29.26 18.809,28.218L18.809,15.656C18.809,11.818 21.271,8.81 25.097,8.81L51.431,8.81C55.274,8.81 58.936,11.881 58.936,15.656L58.936,28.218C58.938,29.252 58.089,30.104 57.055,30.106C56.771,30.129 56.428,30.281 56.428,31.233L56.428,40.905C56.428,41.947 55.049,42.793 54.011,42.793L54.013,42.793Z" style="fill:rgb(203,183,136);"/>
        </g>
        <g id="Fill-72" transform="matrix(1,0,0,1,192,96)">
            <path d="M6.27,69.224L8.778,69.224L8.778,65.448L6.27,65.448L6.27,69.224ZM12.54,71.112C12.542,72.146 11.693,72.998 10.659,73L4.389,73C3.355,72.998 2.506,72.146 2.508,71.112L2.508,63.56C2.508,62.518 3.351,61.672 4.388,61.672L10.658,61.672C11.697,61.672 12.54,62.518 12.54,63.56L12.54,71.112Z" style="fill:rgb(203,183,136);"/>
        </g>
        <g id="Fill-91" transform="matrix(1,0,0,1,192,96)">
            <path d="M70.222,69.224L72.73,69.224L72.73,65.448L70.222,65.448L70.222,69.224ZM76.492,71.112C76.494,72.145 75.645,72.997 74.612,73L68.342,73C67.309,72.998 66.46,72.148 66.46,71.115C66.46,71.114 66.46,71.113 66.46,71.112L66.46,63.56C66.46,62.518 67.303,61.672 68.341,61.672L74.611,61.672C75.649,61.672 76.492,62.518 76.492,63.56L76.492,71.112Z" style="fill:rgb(203,183,136);"/>
        </g>
    </g>
</svg>
